<svg xmlns="http://www.w3.org/2000/svg" width="480" height="200" viewBox="0 0 480 200"><rect x="25" y="72" width="240" height="65" fill="#b88b59"/><polygon points="195,72 265,72 265,137 195,137" fill="#91664f"/><rect x="20" y="68" width="250" height="10" fill="#dfb87d"/><polygon points="25,60 39,14 250,14 265,60" fill="#739c90"/><polygon points="145,14 250,14 265,60 145,60" fill="#4e746c"/><path d="M145 15L145 60" fill="none" stroke="#e9d8b4" stroke-width="5" stroke-linecap="round" stroke-linejoin="round"/><path d="M45 80L45 132 M95 80L95 132 M145 80L145 132 M195 80L195 132 M245 80L245 132" fill="none" stroke="#795846" stroke-width="3" stroke-linecap="round" stroke-linejoin="round"/><rect x="265" y="114" width="90" height="7" fill="#25343b"/><polygon points="336,69 393,59 425,82 417,107 349,104" fill="#a78762"/><polygon points="390,65 395,30 418,17 451,26 461,43 429,47 426,80" fill="#a78762"/><polygon points="393,59 425,82 417,107 386,103" fill="#7e604e"/><polygon points="410,25 411,8 420,21" fill="#39434a"/><rect x="443" y="31" width="4" height="4" fill="#25343b"/><polygon points="344,96 358,98 355,157 343,159" fill="#25343b"/><polygon points="409,99 421,100 428,155 414,156" fill="#25343b"/><path d="M336 78L324 106L322 130" fill="none" stroke="#25343b" stroke-width="8" stroke-linecap="round" stroke-linejoin="round"/><rect x="348" y="56" width="45" height="25" fill="#64867b"/><rect x="367" y="56" width="5" height="26" fill="#e9d8b4"/><circle cx="65" cy="148" r="30" fill="#25343b"/><circle cx="225" cy="148" r="30" fill="#25343b"/><circle cx="65" cy="148" r="19" fill="#bba57e"/><circle cx="225" cy="148" r="19" fill="#bba57e"/><path d="M65 130L65 166 M47 148L83 148 M225 130L225 166 M207 148L243 148" fill="none" stroke="#25343b" stroke-width="4" stroke-linecap="round" stroke-linejoin="round"/></svg>