<svg xmlns="http://www.w3.org/2000/svg" width="1024" height="360" viewBox="0 0 1024 360"><g transform="translate(0 0)"><polygon points="38,10 86,10 106,32 115,80 103,107 98,132 29,132 24,104 13,82 20,33" fill="#af594a"/><polygon points="38,10 52,24 45,106 29,132 24,104 20,33" fill="#ffffff19"/><polygon points="86,10 106,32 115,80 103,107 98,132 76,126 82,33" fill="#00000025"/><polygon points="48,10 64,22 80,10 73,34 56,34" fill="#e9d8b4"/><path d="M64 24L64 98" fill="none" stroke="#00000020" stroke-width="2" stroke-linecap="round" stroke-linejoin="round"/><path d="M36 63L31 99 M94 63L98 99" fill="none" stroke="#00000025" stroke-width="3" stroke-linecap="round" stroke-linejoin="round"/><rect x="28" y="105" width="72" height="9" fill="#544338"/><rect x="58" y="104" width="13" height="12" fill="#d8b768"/><rect x="61" y="107" width="7" height="6" fill="#665342"/><polygon points="30,130 57,130 54,166 28,166" fill="#424b51"/><polygon points="72,130 97,130 102,165 76,165" fill="#343c45"/><polygon points="28,157 52,158 55,174 17,174 17,166" fill="#584839"/><polygon points="76,157 102,158 111,172 75,174" fill="#493a32"/><path d="M21 171L52 171 M78 171L107 170" fill="none" stroke="#bc9562" stroke-width="2" stroke-linecap="round" stroke-linejoin="round"/><polygon points="15,78 31,80 32,98 23,106 13,99" fill="#dca875"/><polygon points="99,80 113,77 116,97 107,105 98,99" fill="#dca875"/><polygon points="46,42 78,42 83,101 42,101" fill="#c9bba0"/><path d="M49 71L76 71 M50 76L74 76" fill="none" stroke="#9f9079" stroke-width="2" stroke-linecap="round" stroke-linejoin="round"/></g><g transform="translate(128 0)"><polygon points="38,10 86,10 106,32 115,80 103,107 98,132 29,132 24,104 13,82 20,33" fill="#54877d"/><polygon points="38,10 52,24 45,106 29,132 24,104 20,33" fill="#ffffff19"/><polygon points="86,10 106,32 115,80 103,107 98,132 76,126 82,33" fill="#00000025"/><polygon points="48,10 64,22 80,10 73,34 56,34" fill="#e9d8b4"/><path d="M64 24L64 98" fill="none" stroke="#00000020" stroke-width="2" stroke-linecap="round" stroke-linejoin="round"/><path d="M36 63L31 99 M94 63L98 99" fill="none" stroke="#00000025" stroke-width="3" stroke-linecap="round" stroke-linejoin="round"/><rect x="28" y="105" width="72" height="9" fill="#544338"/><rect x="58" y="104" width="13" height="12" fill="#d8b768"/><rect x="61" y="107" width="7" height="6" fill="#665342"/><polygon points="30,130 57,130 54,166 28,166" fill="#424b51"/><polygon points="72,130 97,130 102,165 76,165" fill="#343c45"/><polygon points="28,157 52,158 55,174 17,174 17,166" fill="#584839"/><polygon points="76,157 102,158 111,172 75,174" fill="#493a32"/><path d="M21 171L52 171 M78 171L107 170" fill="none" stroke="#bc9562" stroke-width="2" stroke-linecap="round" stroke-linejoin="round"/><polygon points="15,78 31,80 32,98 23,106 13,99" fill="#edc69c"/><polygon points="99,80 113,77 116,97 107,105 98,99" fill="#edc69c"/><rect x="45" y="46" width="8" height="6" fill="#ddb967"/><rect x="45" y="66" width="8" height="6" fill="#ddb967"/></g><g transform="translate(256 0)"><polygon points="38,10 86,10 106,32 115,80 103,107 98,132 29,132 24,104 13,82 20,33" fill="#d2a44e"/><polygon points="38,10 52,24 45,106 29,132 24,104 20,33" fill="#ffffff19"/><polygon points="86,10 106,32 115,80 103,107 98,132 76,126 82,33" fill="#00000025"/><polygon points="48,10 64,22 80,10 73,34 56,34" fill="#e9d8b4"/><path d="M64 24L64 98" fill="none" stroke="#00000020" stroke-width="2" stroke-linecap="round" stroke-linejoin="round"/><path d="M36 63L31 99 M94 63L98 99" fill="none" stroke="#00000025" stroke-width="3" stroke-linecap="round" stroke-linejoin="round"/><rect x="28" y="105" width="72" height="9" fill="#544338"/><rect x="58" y="104" width="13" height="12" fill="#d8b768"/><rect x="61" y="107" width="7" height="6" fill="#665342"/><polygon points="30,130 57,130 54,166 28,166" fill="#424b51"/><polygon points="72,130 97,130 102,165 76,165" fill="#343c45"/><polygon points="28,157 52,158 55,174 17,174 17,166" fill="#584839"/><polygon points="76,157 102,158 111,172 75,174" fill="#493a32"/><path d="M21 171L52 171 M78 171L107 170" fill="none" stroke="#bc9562" stroke-width="2" stroke-linecap="round" stroke-linejoin="round"/><polygon points="15,78 31,80 32,98 23,106 13,99" fill="#ab775b"/><polygon points="99,80 113,77 116,97 107,105 98,99" fill="#ab775b"/></g><g transform="translate(384 0)"><polygon points="38,10 86,10 106,32 115,80 103,107 98,132 29,132 24,104 13,82 20,33" fill="#596a90"/><polygon points="38,10 52,24 45,106 29,132 24,104 20,33" fill="#ffffff19"/><polygon points="86,10 106,32 115,80 103,107 98,132 76,126 82,33" fill="#00000025"/><polygon points="48,10 64,22 80,10 73,34 56,34" fill="#e9d8b4"/><path d="M64 24L64 98" fill="none" stroke="#00000020" stroke-width="2" stroke-linecap="round" stroke-linejoin="round"/><path d="M36 63L31 99 M94 63L98 99" fill="none" stroke="#00000025" stroke-width="3" stroke-linecap="round" stroke-linejoin="round"/><rect x="28" y="105" width="72" height="9" fill="#544338"/><rect x="58" y="104" width="13" height="12" fill="#d8b768"/><rect x="61" y="107" width="7" height="6" fill="#665342"/><polygon points="30,130 57,130 54,166 28,166" fill="#424b51"/><polygon points="72,130 97,130 102,165 76,165" fill="#343c45"/><polygon points="28,157 52,158 55,174 17,174 17,166" fill="#584839"/><polygon points="76,157 102,158 111,172 75,174" fill="#493a32"/><path d="M21 171L52 171 M78 171L107 170" fill="none" stroke="#bc9562" stroke-width="2" stroke-linecap="round" stroke-linejoin="round"/><polygon points="15,78 31,80 32,98 23,106 13,99" fill="#875744"/><polygon points="99,80 113,77 116,97 107,105 98,99" fill="#875744"/><polygon points="46,42 78,42 83,101 42,101" fill="#c9bba0"/><path d="M49 71L76 71 M50 76L74 76" fill="none" stroke="#9f9079" stroke-width="2" stroke-linecap="round" stroke-linejoin="round"/></g><g transform="translate(512 0)"><polygon points="38,10 86,10 106,32 115,80 103,107 98,132 29,132 24,104 13,82 20,33" fill="#ba815c"/><polygon points="38,10 52,24 45,106 29,132 24,104 20,33" fill="#ffffff19"/><polygon points="86,10 106,32 115,80 103,107 98,132 76,126 82,33" fill="#00000025"/><polygon points="48,10 64,22 80,10 73,34 56,34" fill="#e9d8b4"/><path d="M64 24L64 98" fill="none" stroke="#00000020" stroke-width="2" stroke-linecap="round" stroke-linejoin="round"/><path d="M36 63L31 99 M94 63L98 99" fill="none" stroke="#00000025" stroke-width="3" stroke-linecap="round" stroke-linejoin="round"/><rect x="28" y="105" width="72" height="9" fill="#544338"/><rect x="58" y="104" width="13" height="12" fill="#d8b768"/><rect x="61" y="107" width="7" height="6" fill="#665342"/><polygon points="30,130 57,130 54,166 28,166" fill="#424b51"/><polygon points="72,130 97,130 102,165 76,165" fill="#343c45"/><polygon points="28,157 52,158 55,174 17,174 17,166" fill="#584839"/><polygon points="76,157 102,158 111,172 75,174" fill="#493a32"/><path d="M21 171L52 171 M78 171L107 170" fill="none" stroke="#bc9562" stroke-width="2" stroke-linecap="round" stroke-linejoin="round"/><polygon points="15,78 31,80 32,98 23,106 13,99" fill="#c68d65"/><polygon points="99,80 113,77 116,97 107,105 98,99" fill="#c68d65"/><rect x="45" y="46" width="8" height="6" fill="#ddb967"/><rect x="45" y="66" width="8" height="6" fill="#ddb967"/></g><g transform="translate(640 0)"><polygon points="38,10 86,10 106,32 115,80 103,107 98,132 29,132 24,104 13,82 20,33" fill="#829262"/><polygon points="38,10 52,24 45,106 29,132 24,104 20,33" fill="#ffffff19"/><polygon points="86,10 106,32 115,80 103,107 98,132 76,126 82,33" fill="#00000025"/><polygon points="48,10 64,22 80,10 73,34 56,34" fill="#e9d8b4"/><path d="M64 24L64 98" fill="none" stroke="#00000020" stroke-width="2" stroke-linecap="round" stroke-linejoin="round"/><path d="M36 63L31 99 M94 63L98 99" fill="none" stroke="#00000025" stroke-width="3" stroke-linecap="round" stroke-linejoin="round"/><rect x="28" y="105" width="72" height="9" fill="#544338"/><rect x="58" y="104" width="13" height="12" fill="#d8b768"/><rect x="61" y="107" width="7" height="6" fill="#665342"/><polygon points="30,130 57,130 54,166 28,166" fill="#424b51"/><polygon points="72,130 97,130 102,165 76,165" fill="#343c45"/><polygon points="28,157 52,158 55,174 17,174 17,166" fill="#584839"/><polygon points="76,157 102,158 111,172 75,174" fill="#493a32"/><path d="M21 171L52 171 M78 171L107 170" fill="none" stroke="#bc9562" stroke-width="2" stroke-linecap="round" stroke-linejoin="round"/><polygon points="15,78 31,80 32,98 23,106 13,99" fill="#e0b18b"/><polygon points="99,80 113,77 116,97 107,105 98,99" fill="#e0b18b"/></g><g transform="translate(768 0)"><polygon points="38,10 86,10 106,32 115,80 103,107 98,132 29,132 24,104 13,82 20,33" fill="#956b8d"/><polygon points="38,10 52,24 45,106 29,132 24,104 20,33" fill="#ffffff19"/><polygon points="86,10 106,32 115,80 103,107 98,132 76,126 82,33" fill="#00000025"/><polygon points="48,10 64,22 80,10 73,34 56,34" fill="#e9d8b4"/><path d="M64 24L64 98" fill="none" stroke="#00000020" stroke-width="2" stroke-linecap="round" stroke-linejoin="round"/><path d="M36 63L31 99 M94 63L98 99" fill="none" stroke="#00000025" stroke-width="3" stroke-linecap="round" stroke-linejoin="round"/><rect x="28" y="105" width="72" height="9" fill="#544338"/><rect x="58" y="104" width="13" height="12" fill="#d8b768"/><rect x="61" y="107" width="7" height="6" fill="#665342"/><polygon points="30,130 57,130 54,166 28,166" fill="#424b51"/><polygon points="72,130 97,130 102,165 76,165" fill="#343c45"/><polygon points="28,157 52,158 55,174 17,174 17,166" fill="#584839"/><polygon points="76,157 102,158 111,172 75,174" fill="#493a32"/><path d="M21 171L52 171 M78 171L107 170" fill="none" stroke="#bc9562" stroke-width="2" stroke-linecap="round" stroke-linejoin="round"/><polygon points="15,78 31,80 32,98 23,106 13,99" fill="#dca875"/><polygon points="99,80 113,77 116,97 107,105 98,99" fill="#dca875"/><polygon points="46,42 78,42 83,101 42,101" fill="#c9bba0"/><path d="M49 71L76 71 M50 76L74 76" fill="none" stroke="#9f9079" stroke-width="2" stroke-linecap="round" stroke-linejoin="round"/></g><g transform="translate(896 0)"><polygon points="38,10 86,10 106,32 115,80 103,107 98,132 29,132 24,104 13,82 20,33" fill="#de9870"/><polygon points="38,10 52,24 45,106 29,132 24,104 20,33" fill="#ffffff19"/><polygon points="86,10 106,32 115,80 103,107 98,132 76,126 82,33" fill="#00000025"/><polygon points="48,10 64,22 80,10 73,34 56,34" fill="#e9d8b4"/><path d="M64 24L64 98" fill="none" stroke="#00000020" stroke-width="2" stroke-linecap="round" stroke-linejoin="round"/><path d="M36 63L31 99 M94 63L98 99" fill="none" stroke="#00000025" stroke-width="3" stroke-linecap="round" stroke-linejoin="round"/><rect x="28" y="105" width="72" height="9" fill="#544338"/><rect x="58" y="104" width="13" height="12" fill="#d8b768"/><rect x="61" y="107" width="7" height="6" fill="#665342"/><polygon points="30,130 57,130 54,166 28,166" fill="#424b51"/><polygon points="72,130 97,130 102,165 76,165" fill="#343c45"/><polygon points="28,157 52,158 55,174 17,174 17,166" fill="#584839"/><polygon points="76,157 102,158 111,172 75,174" fill="#493a32"/><path d="M21 171L52 171 M78 171L107 170" fill="none" stroke="#bc9562" stroke-width="2" stroke-linecap="round" stroke-linejoin="round"/><polygon points="15,78 31,80 32,98 23,106 13,99" fill="#edc69c"/><polygon points="99,80 113,77 116,97 107,105 98,99" fill="#edc69c"/><rect x="45" y="46" width="8" height="6" fill="#ddb967"/><rect x="45" y="66" width="8" height="6" fill="#ddb967"/></g><g transform="translate(0 180)"><polygon points="38,10 86,10 106,32 115,80 103,107 98,132 29,132 24,104 13,82 20,33" fill="#af594a"/><polygon points="38,10 52,24 45,106 29,132 24,104 20,33" fill="#ffffff19"/><polygon points="86,10 106,32 115,80 103,107 98,132 76,126 82,33" fill="#00000025"/><polygon points="48,10 64,22 80,10 73,34 56,34" fill="#e9d8b4"/><path d="M64 24L64 98" fill="none" stroke="#00000020" stroke-width="2" stroke-linecap="round" stroke-linejoin="round"/><path d="M36 63L31 99 M94 63L98 99" fill="none" stroke="#00000025" stroke-width="3" stroke-linecap="round" stroke-linejoin="round"/><rect x="28" y="105" width="72" height="9" fill="#544338"/><rect x="58" y="104" width="13" height="12" fill="#d8b768"/><rect x="61" y="107" width="7" height="6" fill="#665342"/><polygon points="30,130 57,130 54,166 28,166" fill="#424b51"/><polygon points="72,130 97,130 102,165 76,165" fill="#343c45"/><polygon points="28,157 52,158 55,174 17,174 17,166" fill="#584839"/><polygon points="76,157 102,158 111,172 75,174" fill="#493a32"/><path d="M21 171L52 171 M78 171L107 170" fill="none" stroke="#bc9562" stroke-width="2" stroke-linecap="round" stroke-linejoin="round"/><polygon points="15,78 31,80 32,98 23,106 13,99" fill="#ab775b"/><polygon points="99,80 113,77 116,97 107,105 98,99" fill="#ab775b"/></g><g transform="translate(128 180)"><polygon points="38,10 86,10 106,32 115,80 103,107 98,132 29,132 24,104 13,82 20,33" fill="#54877d"/><polygon points="38,10 52,24 45,106 29,132 24,104 20,33" fill="#ffffff19"/><polygon points="86,10 106,32 115,80 103,107 98,132 76,126 82,33" fill="#00000025"/><polygon points="48,10 64,22 80,10 73,34 56,34" fill="#e9d8b4"/><path d="M64 24L64 98" fill="none" stroke="#00000020" stroke-width="2" stroke-linecap="round" stroke-linejoin="round"/><path d="M36 63L31 99 M94 63L98 99" fill="none" stroke="#00000025" stroke-width="3" stroke-linecap="round" stroke-linejoin="round"/><rect x="28" y="105" width="72" height="9" fill="#544338"/><rect x="58" y="104" width="13" height="12" fill="#d8b768"/><rect x="61" y="107" width="7" height="6" fill="#665342"/><polygon points="30,130 57,130 54,166 28,166" fill="#424b51"/><polygon points="72,130 97,130 102,165 76,165" fill="#343c45"/><polygon points="28,157 52,158 55,174 17,174 17,166" fill="#584839"/><polygon points="76,157 102,158 111,172 75,174" fill="#493a32"/><path d="M21 171L52 171 M78 171L107 170" fill="none" stroke="#bc9562" stroke-width="2" stroke-linecap="round" stroke-linejoin="round"/><polygon points="15,78 31,80 32,98 23,106 13,99" fill="#875744"/><polygon points="99,80 113,77 116,97 107,105 98,99" fill="#875744"/><polygon points="46,42 78,42 83,101 42,101" fill="#c9bba0"/><path d="M49 71L76 71 M50 76L74 76" fill="none" stroke="#9f9079" stroke-width="2" stroke-linecap="round" stroke-linejoin="round"/><polygon points="40,25 63,39 90,23 80,73 64,84 45,70" fill="#d6b45f"/><path d="M47 38L64 50L83 37" fill="none" stroke="#f0d99b" stroke-width="4" stroke-linecap="round" stroke-linejoin="round"/></g><g transform="translate(256 180)"><polygon points="38,10 86,10 106,32 115,80 103,107 98,132 29,132 24,104 13,82 20,33" fill="#d2a44e"/><polygon points="38,10 52,24 45,106 29,132 24,104 20,33" fill="#ffffff19"/><polygon points="86,10 106,32 115,80 103,107 98,132 76,126 82,33" fill="#00000025"/><polygon points="48,10 64,22 80,10 73,34 56,34" fill="#e9d8b4"/><path d="M64 24L64 98" fill="none" stroke="#00000020" stroke-width="2" stroke-linecap="round" stroke-linejoin="round"/><path d="M36 63L31 99 M94 63L98 99" fill="none" stroke="#00000025" stroke-width="3" stroke-linecap="round" stroke-linejoin="round"/><rect x="28" y="105" width="72" height="9" fill="#544338"/><rect x="58" y="104" width="13" height="12" fill="#d8b768"/><rect x="61" y="107" width="7" height="6" fill="#665342"/><polygon points="30,130 57,130 54,166 28,166" fill="#424b51"/><polygon points="72,130 97,130 102,165 76,165" fill="#343c45"/><polygon points="28,157 52,158 55,174 17,174 17,166" fill="#584839"/><polygon points="76,157 102,158 111,172 75,174" fill="#493a32"/><path d="M21 171L52 171 M78 171L107 170" fill="none" stroke="#bc9562" stroke-width="2" stroke-linecap="round" stroke-linejoin="round"/><polygon points="15,78 31,80 32,98 23,106 13,99" fill="#c68d65"/><polygon points="99,80 113,77 116,97 107,105 98,99" fill="#c68d65"/><rect x="45" y="46" width="8" height="6" fill="#ddb967"/><rect x="45" y="66" width="8" height="6" fill="#ddb967"/><polygon points="33,20 61,36 88,21 80,99 51,98" fill="#ded4b7"/><path d="M64 39L64 63 M55 49L73 49" fill="none" stroke="#aa8757" stroke-width="4" stroke-linecap="round" stroke-linejoin="round"/></g><g transform="translate(384 180)"><polygon points="38,10 86,10 106,32 115,80 103,107 98,132 29,132 24,104 13,82 20,33" fill="#596a90"/><polygon points="38,10 52,24 45,106 29,132 24,104 20,33" fill="#ffffff19"/><polygon points="86,10 106,32 115,80 103,107 98,132 76,126 82,33" fill="#00000025"/><polygon points="48,10 64,22 80,10 73,34 56,34" fill="#e9d8b4"/><path d="M64 24L64 98" fill="none" stroke="#00000020" stroke-width="2" stroke-linecap="round" stroke-linejoin="round"/><path d="M36 63L31 99 M94 63L98 99" fill="none" stroke="#00000025" stroke-width="3" stroke-linecap="round" stroke-linejoin="round"/><rect x="28" y="105" width="72" height="9" fill="#544338"/><rect x="58" y="104" width="13" height="12" fill="#d8b768"/><rect x="61" y="107" width="7" height="6" fill="#665342"/><polygon points="30,130 57,130 54,166 28,166" fill="#424b51"/><polygon points="72,130 97,130 102,165 76,165" fill="#343c45"/><polygon points="28,157 52,158 55,174 17,174 17,166" fill="#584839"/><polygon points="76,157 102,158 111,172 75,174" fill="#493a32"/><path d="M21 171L52 171 M78 171L107 170" fill="none" stroke="#bc9562" stroke-width="2" stroke-linecap="round" stroke-linejoin="round"/><polygon points="15,78 31,80 32,98 23,106 13,99" fill="#e0b18b"/><polygon points="99,80 113,77 116,97 107,105 98,99" fill="#e0b18b"/><polygon points="37,28 64,22 92,28 88,87 63,101 38,86" fill="#91a8aa"/><polygon points="64,22 92,28 88,87 63,101" fill="#607a87"/><path d="M45 38L81 38 M45 52L81 52 M44 68L82 68" fill="none" stroke="#c3d2cd" stroke-width="3" stroke-linecap="round" stroke-linejoin="round"/></g></svg>