<svg xmlns="http://www.w3.org/2000/svg" width="800" height="1600" viewBox="0 0 800 1600"><polygon points="0,870 90,755 220,830 370,700 520,830 680,730 800,820 800,1080 0,1080" fill="#9bafa0"/><rect x="-40" y="820" width="74" height="270" fill="#cba28b"/><polygon points="11.799999999999997,820 34,820 34,1090 11.799999999999997,1090" fill="#00000020"/><polygon points="-48,820 -3,755 42,820" fill="#526778"/><polygon points="-3,755 42,820 0.7000000000000028,820" fill="#00000025"/><rect x="-30" y="835" width="7" height="255" fill="#695647"/><rect x="-17" y="845" width="17" height="30" fill="#475c5b"/><rect x="-15" y="847" width="5" height="24" fill="#d2b477"/><rect x="-12" y="835" width="7" height="255" fill="#695647"/><rect x="14.82" y="845" width="17" height="30" fill="#475c5b"/><rect x="16.82" y="847" width="5" height="24" fill="#d2b477"/><rect x="6" y="835" width="7" height="255" fill="#695647"/><rect x="-40" y="885" width="74" height="7" fill="#695647"/><path d="M-30 885L-6.699999999999996 1085M24 885L0.7000000000000028 1085" fill="none" stroke="#89705b" stroke-width="5" stroke-linecap="round" stroke-linejoin="round"/><rect x="38" y="773" width="74" height="317" fill="#b4c7ba"/><polygon points="89.8,773 112,773 112,1090 89.8,1090" fill="#00000020"/><polygon points="30,773 75,708 120,773" fill="#77625f"/><polygon points="75,708 120,773 78.7,773" fill="#00000025"/><rect x="48" y="788" width="7" height="302" fill="#695647"/><rect x="61" y="798" width="17" height="30" fill="#475c5b"/><rect x="63" y="800" width="5" height="24" fill="#d2b477"/><rect x="66" y="788" width="7" height="302" fill="#695647"/><rect x="92.82" y="798" width="17" height="30" fill="#475c5b"/><rect x="94.82" y="800" width="5" height="24" fill="#d2b477"/><rect x="84" y="788" width="7" height="302" fill="#695647"/><rect x="38" y="838" width="74" height="7" fill="#695647"/><path d="M48 838L71.30000000000001 1085M102 838L78.7 1085" fill="none" stroke="#89705b" stroke-width="5" stroke-linecap="round" stroke-linejoin="round"/><rect x="116" y="846" width="74" height="244" fill="#d4aa7d"/><polygon points="167.8,846 190,846 190,1090 167.8,1090" fill="#00000020"/><polygon points="108,846 153,781 198,846" fill="#8a5960"/><polygon points="153,781 198,846 156.7,846" fill="#00000025"/><rect x="126" y="861" width="7" height="229" fill="#695647"/><rect x="139" y="871" width="17" height="30" fill="#475c5b"/><rect x="141" y="873" width="5" height="24" fill="#d2b477"/><rect x="144" y="861" width="7" height="229" fill="#695647"/><rect x="170.82" y="871" width="17" height="30" fill="#475c5b"/><rect x="172.82" y="873" width="5" height="24" fill="#d2b477"/><rect x="162" y="861" width="7" height="229" fill="#695647"/><rect x="116" y="911" width="74" height="7" fill="#695647"/><path d="M126 911L149.3 1085M180 911L156.7 1085" fill="none" stroke="#89705b" stroke-width="5" stroke-linecap="round" stroke-linejoin="round"/><rect x="194" y="799" width="74" height="291" fill="#b9bea1"/><polygon points="245.8,799 268,799 268,1090 245.8,1090" fill="#00000020"/><polygon points="186,799 231,734 276,799" fill="#526778"/><polygon points="231,734 276,799 234.7,799" fill="#00000025"/><rect x="204" y="814" width="7" height="276" fill="#695647"/><rect x="217" y="824" width="17" height="30" fill="#475c5b"/><rect x="219" y="826" width="5" height="24" fill="#d2b477"/><rect x="222" y="814" width="7" height="276" fill="#695647"/><rect x="248.82" y="824" width="17" height="30" fill="#475c5b"/><rect x="250.82" y="826" width="5" height="24" fill="#d2b477"/><rect x="240" y="814" width="7" height="276" fill="#695647"/><rect x="194" y="864" width="74" height="7" fill="#695647"/><path d="M204 864L227.3 1085M258 864L234.7 1085" fill="none" stroke="#89705b" stroke-width="5" stroke-linecap="round" stroke-linejoin="round"/><rect x="272" y="872" width="74" height="218" fill="#cba28b"/><polygon points="323.8,872 346,872 346,1090 323.8,1090" fill="#00000020"/><polygon points="264,872 309,807 354,872" fill="#77625f"/><polygon points="309,807 354,872 312.7,872" fill="#00000025"/><rect x="282" y="887" width="7" height="203" fill="#695647"/><rect x="295" y="897" width="17" height="30" fill="#475c5b"/><rect x="297" y="899" width="5" height="24" fill="#d2b477"/><rect x="300" y="887" width="7" height="203" fill="#695647"/><rect x="326.82" y="897" width="17" height="30" fill="#475c5b"/><rect x="328.82" y="899" width="5" height="24" fill="#d2b477"/><rect x="318" y="887" width="7" height="203" fill="#695647"/><rect x="272" y="937" width="74" height="7" fill="#695647"/><path d="M282 937L305.3 1085M336 937L312.7 1085" fill="none" stroke="#89705b" stroke-width="5" stroke-linecap="round" stroke-linejoin="round"/><rect x="350" y="825" width="74" height="265" fill="#b4c7ba"/><polygon points="401.8,825 424,825 424,1090 401.8,1090" fill="#00000020"/><polygon points="342,825 387,760 432,825" fill="#8a5960"/><polygon points="387,760 432,825 390.7,825" fill="#00000025"/><rect x="360" y="840" width="7" height="250" fill="#695647"/><rect x="373" y="850" width="17" height="30" fill="#475c5b"/><rect x="375" y="852" width="5" height="24" fill="#d2b477"/><rect x="378" y="840" width="7" height="250" fill="#695647"/><rect x="404.82" y="850" width="17" height="30" fill="#475c5b"/><rect x="406.82" y="852" width="5" height="24" fill="#d2b477"/><rect x="396" y="840" width="7" height="250" fill="#695647"/><rect x="350" y="890" width="74" height="7" fill="#695647"/><path d="M360 890L383.3 1085M414 890L390.7 1085" fill="none" stroke="#89705b" stroke-width="5" stroke-linecap="round" stroke-linejoin="round"/><rect x="428" y="778" width="74" height="312" fill="#d4aa7d"/><polygon points="479.8,778 502,778 502,1090 479.8,1090" fill="#00000020"/><polygon points="420,778 465,713 510,778" fill="#526778"/><polygon points="465,713 510,778 468.7,778" fill="#00000025"/><rect x="438" y="793" width="7" height="297" fill="#695647"/><rect x="451" y="803" width="17" height="30" fill="#475c5b"/><rect x="453" y="805" width="5" height="24" fill="#d2b477"/><rect x="456" y="793" width="7" height="297" fill="#695647"/><rect x="482.82" y="803" width="17" height="30" fill="#475c5b"/><rect x="484.82" y="805" width="5" height="24" fill="#d2b477"/><rect x="474" y="793" width="7" height="297" fill="#695647"/><rect x="428" y="843" width="74" height="7" fill="#695647"/><path d="M438 843L461.3 1085M492 843L468.7 1085" fill="none" stroke="#89705b" stroke-width="5" stroke-linecap="round" stroke-linejoin="round"/><rect x="506" y="851" width="74" height="239" fill="#b9bea1"/><polygon points="557.8,851 580,851 580,1090 557.8,1090" fill="#00000020"/><polygon points="498,851 543,786 588,851" fill="#77625f"/><polygon points="543,786 588,851 546.7,851" fill="#00000025"/><rect x="516" y="866" width="7" height="224" fill="#695647"/><rect x="529" y="876" width="17" height="30" fill="#475c5b"/><rect x="531" y="878" width="5" height="24" fill="#d2b477"/><rect x="534" y="866" width="7" height="224" fill="#695647"/><rect x="560.82" y="876" width="17" height="30" fill="#475c5b"/><rect x="562.82" y="878" width="5" height="24" fill="#d2b477"/><rect x="552" y="866" width="7" height="224" fill="#695647"/><rect x="506" y="916" width="74" height="7" fill="#695647"/><path d="M516 916L539.3 1085M570 916L546.7 1085" fill="none" stroke="#89705b" stroke-width="5" stroke-linecap="round" stroke-linejoin="round"/><rect x="584" y="804" width="74" height="286" fill="#cba28b"/><polygon points="635.8,804 658,804 658,1090 635.8,1090" fill="#00000020"/><polygon points="576,804 621,739 666,804" fill="#8a5960"/><polygon points="621,739 666,804 624.7,804" fill="#00000025"/><rect x="594" y="819" width="7" height="271" fill="#695647"/><rect x="607" y="829" width="17" height="30" fill="#475c5b"/><rect x="609" y="831" width="5" height="24" fill="#d2b477"/><rect x="612" y="819" width="7" height="271" fill="#695647"/><rect x="638.82" y="829" width="17" height="30" fill="#475c5b"/><rect x="640.82" y="831" width="5" height="24" fill="#d2b477"/><rect x="630" y="819" width="7" height="271" fill="#695647"/><rect x="584" y="869" width="74" height="7" fill="#695647"/><path d="M594 869L617.3 1085M648 869L624.7 1085" fill="none" stroke="#89705b" stroke-width="5" stroke-linecap="round" stroke-linejoin="round"/><rect x="662" y="877" width="74" height="213" fill="#b4c7ba"/><polygon points="713.8,877 736,877 736,1090 713.8,1090" fill="#00000020"/><polygon points="654,877 699,812 744,877" fill="#526778"/><polygon points="699,812 744,877 702.7,877" fill="#00000025"/><rect x="672" y="892" width="7" height="198" fill="#695647"/><rect x="685" y="902" width="17" height="30" fill="#475c5b"/><rect x="687" y="904" width="5" height="24" fill="#d2b477"/><rect x="690" y="892" width="7" height="198" fill="#695647"/><rect x="716.82" y="902" width="17" height="30" fill="#475c5b"/><rect x="718.82" y="904" width="5" height="24" fill="#d2b477"/><rect x="708" y="892" width="7" height="198" fill="#695647"/><rect x="662" y="942" width="74" height="7" fill="#695647"/><path d="M672 942L695.3 1085M726 942L702.7 1085" fill="none" stroke="#89705b" stroke-width="5" stroke-linecap="round" stroke-linejoin="round"/><rect x="740" y="830" width="74" height="260" fill="#d4aa7d"/><polygon points="791.8,830 814,830 814,1090 791.8,1090" fill="#00000020"/><polygon points="732,830 777,765 822,830" fill="#77625f"/><polygon points="777,765 822,830 780.7,830" fill="#00000025"/><rect x="750" y="845" width="7" height="245" fill="#695647"/><rect x="763" y="855" width="17" height="30" fill="#475c5b"/><rect x="765" y="857" width="5" height="24" fill="#d2b477"/><rect x="768" y="845" width="7" height="245" fill="#695647"/><rect x="794.82" y="855" width="17" height="30" fill="#475c5b"/><rect x="796.82" y="857" width="5" height="24" fill="#d2b477"/><rect x="786" y="845" width="7" height="245" fill="#695647"/><rect x="740" y="895" width="74" height="7" fill="#695647"/><path d="M750 895L773.3 1085M804 895L780.7 1085" fill="none" stroke="#89705b" stroke-width="5" stroke-linecap="round" stroke-linejoin="round"/><rect x="818" y="783" width="74" height="307" fill="#b9bea1"/><polygon points="869.8,783 892,783 892,1090 869.8,1090" fill="#00000020"/><polygon points="810,783 855,718 900,783" fill="#8a5960"/><polygon points="855,718 900,783 858.7,783" fill="#00000025"/><rect x="828" y="798" width="7" height="292" fill="#695647"/><rect x="841" y="808" width="17" height="30" fill="#475c5b"/><rect x="843" y="810" width="5" height="24" fill="#d2b477"/><rect x="846" y="798" width="7" height="292" fill="#695647"/><rect x="872.82" y="808" width="17" height="30" fill="#475c5b"/><rect x="874.82" y="810" width="5" height="24" fill="#d2b477"/><rect x="864" y="798" width="7" height="292" fill="#695647"/><rect x="818" y="848" width="74" height="7" fill="#695647"/><path d="M828 848L851.3 1085M882 848L858.7 1085" fill="none" stroke="#89705b" stroke-width="5" stroke-linecap="round" stroke-linejoin="round"/><rect x="225" y="720" width="310" height="360" fill="#aebfc0"/><rect x="220" y="691" width="320" height="36" fill="#aebfc0"/><rect x="225" y="668" width="26" height="37" fill="#aebfc0"/><rect x="266" y="668" width="26" height="37" fill="#aebfc0"/><rect x="307" y="668" width="26" height="37" fill="#aebfc0"/><rect x="348" y="668" width="26" height="37" fill="#aebfc0"/><rect x="389" y="668" width="26" height="37" fill="#aebfc0"/><rect x="430" y="668" width="26" height="37" fill="#aebfc0"/><rect x="471" y="668" width="26" height="37" fill="#aebfc0"/><rect x="512" y="668" width="26" height="37" fill="#aebfc0"/><rect x="215" y="630" width="85" height="450" fill="#aebfc0"/><polygon points="269,630 300,630 300,1080 269,1080" fill="#00000020"/><rect x="248" y="680" width="15" height="45" fill="#42535a"/><rect x="248" y="780" width="15" height="45" fill="#42535a"/><rect x="248" y="880" width="15" height="45" fill="#42535a"/><rect x="490" y="630" width="85" height="450" fill="#aebfc0"/><polygon points="544,630 575,630 575,1080 544,1080" fill="#00000020"/><rect x="523" y="680" width="15" height="45" fill="#42535a"/><rect x="523" y="780" width="15" height="45" fill="#42535a"/><rect x="523" y="880" width="15" height="45" fill="#42535a"/><polygon points="340,1080 340,926 362,901 396,897 419,925 419,1080" fill="#42535a"/><rect x="-75" y="760" width="225" height="320" fill="#cba28b"/><polygon points="82.5,760 150,760 150,1080 82.5,1080" fill="#00000020"/><polygon points="-83,760 37.5,695 158,760" fill="#526778"/><polygon points="37.5,695 158,760 48.750000000000014,760" fill="#00000025"/><rect x="-65" y="775" width="7" height="305" fill="#695647"/><rect x="-52" y="785" width="17" height="30" fill="#475c5b"/><rect x="-50" y="787" width="5" height="24" fill="#d2b477"/><rect x="3.3333333333333286" y="775" width="7" height="305" fill="#695647"/><rect x="44.75" y="785" width="17" height="30" fill="#475c5b"/><rect x="46.75" y="787" width="5" height="24" fill="#d2b477"/><rect x="71.66666666666666" y="775" width="7" height="305" fill="#695647"/><rect x="-75" y="825" width="225" height="7" fill="#695647"/><path d="M-65 825L26.25 1075M140 825L48.750000000000014 1075" fill="none" stroke="#89705b" stroke-width="5" stroke-linecap="round" stroke-linejoin="round"/><rect x="650" y="740" width="240" height="340" fill="#d4aa7d"/><polygon points="818,740 890,740 890,1080 818,1080" fill="#00000020"/><polygon points="642,740 770,675 898,740" fill="#8a5960"/><polygon points="770,675 898,740 782,740" fill="#00000025"/><rect x="660" y="755" width="7" height="325" fill="#695647"/><rect x="673" y="765" width="17" height="30" fill="#475c5b"/><rect x="675" y="767" width="5" height="24" fill="#d2b477"/><rect x="733.3333333333334" y="755" width="7" height="325" fill="#695647"/><rect x="776.2" y="765" width="17" height="30" fill="#475c5b"/><rect x="778.2" y="767" width="5" height="24" fill="#d2b477"/><rect x="806.6666666666666" y="755" width="7" height="325" fill="#695647"/><rect x="650" y="805" width="240" height="7" fill="#695647"/><path d="M660 805L758 1075M880 805L782 1075" fill="none" stroke="#89705b" stroke-width="5" stroke-linecap="round" stroke-linejoin="round"/><rect x="0" y="1080" width="800" height="22" fill="#ddbb85"/><rect x="0" y="1102" width="800" height="26" fill="#98735a"/><rect x="0" y="1128" width="800" height="72" fill="#665248"/><rect x="0" y="1110" width="3" height="84" fill="#423d39"/><polygon points="0,1110 64,1110 59,1115 4,1115" fill="#aa8865"/><rect x="72" y="1110" width="3" height="84" fill="#423d39"/><polygon points="72,1110 136,1110 131,1115 76,1115" fill="#aa8865"/><rect x="144" y="1110" width="3" height="84" fill="#423d39"/><polygon points="144,1110 208,1110 203,1115 148,1115" fill="#aa8865"/><rect x="216" y="1110" width="3" height="84" fill="#423d39"/><polygon points="216,1110 280,1110 275,1115 220,1115" fill="#aa8865"/><rect x="288" y="1110" width="3" height="84" fill="#423d39"/><polygon points="288,1110 352,1110 347,1115 292,1115" fill="#aa8865"/><rect x="360" y="1110" width="3" height="84" fill="#423d39"/><polygon points="360,1110 424,1110 419,1115 364,1115" fill="#aa8865"/><rect x="432" y="1110" width="3" height="84" fill="#423d39"/><polygon points="432,1110 496,1110 491,1115 436,1115" fill="#aa8865"/><rect x="504" y="1110" width="3" height="84" fill="#423d39"/><polygon points="504,1110 568,1110 563,1115 508,1115" fill="#aa8865"/><rect x="576" y="1110" width="3" height="84" fill="#423d39"/><polygon points="576,1110 640,1110 635,1115 580,1115" fill="#aa8865"/><rect x="648" y="1110" width="3" height="84" fill="#423d39"/><polygon points="648,1110 712,1110 707,1115 652,1115" fill="#aa8865"/><rect x="720" y="1110" width="3" height="84" fill="#423d39"/><polygon points="720,1110 784,1110 779,1115 724,1115" fill="#aa8865"/><rect x="792" y="1110" width="3" height="84" fill="#423d39"/><polygon points="792,1110 856,1110 851,1115 796,1115" fill="#aa8865"/><rect x="0" y="1200" width="800" height="400" fill="#697b72"/><polygon points="110,1210 168,1207 178,1226 117,1230" fill="#7e8d80"/><path d="M117 1230L173 1226" fill="none" stroke="#536c65" stroke-width="2" stroke-linecap="round" stroke-linejoin="round"/><polygon points="237,1210 295,1207 305,1226 244,1230" fill="#7e8d80"/><path d="M244 1230L300 1226" fill="none" stroke="#536c65" stroke-width="2" stroke-linecap="round" stroke-linejoin="round"/><polygon points="364,1210 422,1207 432,1226 371,1230" fill="#7e8d80"/><path d="M371 1230L427 1226" fill="none" stroke="#536c65" stroke-width="2" stroke-linecap="round" stroke-linejoin="round"/><polygon points="491,1210 549,1207 559,1226 498,1230" fill="#7e8d80"/><path d="M498 1230L554 1226" fill="none" stroke="#536c65" stroke-width="2" stroke-linecap="round" stroke-linejoin="round"/><polygon points="618,1210 676,1207 686,1226 625,1230" fill="#7e8d80"/><path d="M625 1230L681 1226" fill="none" stroke="#536c65" stroke-width="2" stroke-linecap="round" stroke-linejoin="round"/><polygon points="745,1210 803,1207 813,1226 752,1230" fill="#7e8d80"/><path d="M752 1230L808 1226" fill="none" stroke="#536c65" stroke-width="2" stroke-linecap="round" stroke-linejoin="round"/><polygon points="72,1210 130,1207 140,1226 79,1230" fill="#7e8d80"/><path d="M79 1230L135 1226" fill="none" stroke="#536c65" stroke-width="2" stroke-linecap="round" stroke-linejoin="round"/><polygon points="199,1210 257,1207 267,1226 206,1230" fill="#7e8d80"/><path d="M206 1230L262 1226" fill="none" stroke="#536c65" stroke-width="2" stroke-linecap="round" stroke-linejoin="round"/><polygon points="326,1210 384,1207 394,1226 333,1230" fill="#7e8d80"/><path d="M333 1230L389 1226" fill="none" stroke="#536c65" stroke-width="2" stroke-linecap="round" stroke-linejoin="round"/><polygon points="453,1210 511,1207 521,1226 460,1230" fill="#7e8d80"/><path d="M460 1230L516 1226" fill="none" stroke="#536c65" stroke-width="2" stroke-linecap="round" stroke-linejoin="round"/><polygon points="580,1273 638,1270 648,1289 587,1293" fill="#7e8d80"/><path d="M587 1293L643 1289" fill="none" stroke="#536c65" stroke-width="2" stroke-linecap="round" stroke-linejoin="round"/><polygon points="707,1273 765,1270 775,1289 714,1293" fill="#7e8d80"/><path d="M714 1293L770 1289" fill="none" stroke="#536c65" stroke-width="2" stroke-linecap="round" stroke-linejoin="round"/><polygon points="34,1273 92,1270 102,1289 41,1293" fill="#7e8d80"/><path d="M41 1293L97 1289" fill="none" stroke="#536c65" stroke-width="2" stroke-linecap="round" stroke-linejoin="round"/><polygon points="161,1273 219,1270 229,1289 168,1293" fill="#7e8d80"/><path d="M168 1293L224 1289" fill="none" stroke="#536c65" stroke-width="2" stroke-linecap="round" stroke-linejoin="round"/><polygon points="288,1273 346,1270 356,1289 295,1293" fill="#7e8d80"/><path d="M295 1293L351 1289" fill="none" stroke="#536c65" stroke-width="2" stroke-linecap="round" stroke-linejoin="round"/><polygon points="415,1273 473,1270 483,1289 422,1293" fill="#7e8d80"/><path d="M422 1293L478 1289" fill="none" stroke="#536c65" stroke-width="2" stroke-linecap="round" stroke-linejoin="round"/><polygon points="542,1273 600,1270 610,1289 549,1293" fill="#7e8d80"/><path d="M549 1293L605 1289" fill="none" stroke="#536c65" stroke-width="2" stroke-linecap="round" stroke-linejoin="round"/><polygon points="669,1273 727,1270 737,1289 676,1293" fill="#7e8d80"/><path d="M676 1293L732 1289" fill="none" stroke="#536c65" stroke-width="2" stroke-linecap="round" stroke-linejoin="round"/><polygon points="796,1273 854,1270 864,1289 803,1293" fill="#7e8d80"/><path d="M803 1293L859 1289" fill="none" stroke="#536c65" stroke-width="2" stroke-linecap="round" stroke-linejoin="round"/><polygon points="123,1273 181,1270 191,1289 130,1293" fill="#7e8d80"/><path d="M130 1293L186 1289" fill="none" stroke="#536c65" stroke-width="2" stroke-linecap="round" stroke-linejoin="round"/><polygon points="250,1336 308,1333 318,1352 257,1356" fill="#7e8d80"/><path d="M257 1356L313 1352" fill="none" stroke="#536c65" stroke-width="2" stroke-linecap="round" stroke-linejoin="round"/><polygon points="377,1336 435,1333 445,1352 384,1356" fill="#7e8d80"/><path d="M384 1356L440 1352" fill="none" stroke="#536c65" stroke-width="2" stroke-linecap="round" stroke-linejoin="round"/><polygon points="504,1336 562,1333 572,1352 511,1356" fill="#7e8d80"/><path d="M511 1356L567 1352" fill="none" stroke="#536c65" stroke-width="2" stroke-linecap="round" stroke-linejoin="round"/><polygon points="631,1336 689,1333 699,1352 638,1356" fill="#7e8d80"/><path d="M638 1356L694 1352" fill="none" stroke="#536c65" stroke-width="2" stroke-linecap="round" stroke-linejoin="round"/><polygon points="758,1336 816,1333 826,1352 765,1356" fill="#7e8d80"/><path d="M765 1356L821 1352" fill="none" stroke="#536c65" stroke-width="2" stroke-linecap="round" stroke-linejoin="round"/><polygon points="85,1336 143,1333 153,1352 92,1356" fill="#7e8d80"/><path d="M92 1356L148 1352" fill="none" stroke="#536c65" stroke-width="2" stroke-linecap="round" stroke-linejoin="round"/><polygon points="212,1336 270,1333 280,1352 219,1356" fill="#7e8d80"/><path d="M219 1356L275 1352" fill="none" stroke="#536c65" stroke-width="2" stroke-linecap="round" stroke-linejoin="round"/><polygon points="339,1336 397,1333 407,1352 346,1356" fill="#7e8d80"/><path d="M346 1356L402 1352" fill="none" stroke="#536c65" stroke-width="2" stroke-linecap="round" stroke-linejoin="round"/><polygon points="466,1336 524,1333 534,1352 473,1356" fill="#7e8d80"/><path d="M473 1356L529 1352" fill="none" stroke="#536c65" stroke-width="2" stroke-linecap="round" stroke-linejoin="round"/><polygon points="593,1336 651,1333 661,1352 600,1356" fill="#7e8d80"/><path d="M600 1356L656 1352" fill="none" stroke="#536c65" stroke-width="2" stroke-linecap="round" stroke-linejoin="round"/><polygon points="720,1399 778,1396 788,1415 727,1419" fill="#7e8d80"/><path d="M727 1419L783 1415" fill="none" stroke="#536c65" stroke-width="2" stroke-linecap="round" stroke-linejoin="round"/><polygon points="47,1399 105,1396 115,1415 54,1419" fill="#7e8d80"/><path d="M54 1419L110 1415" fill="none" stroke="#536c65" stroke-width="2" stroke-linecap="round" stroke-linejoin="round"/><polygon points="174,1399 232,1396 242,1415 181,1419" fill="#7e8d80"/><path d="M181 1419L237 1415" fill="none" stroke="#536c65" stroke-width="2" stroke-linecap="round" stroke-linejoin="round"/><polygon points="301,1399 359,1396 369,1415 308,1419" fill="#7e8d80"/><path d="M308 1419L364 1415" fill="none" stroke="#536c65" stroke-width="2" stroke-linecap="round" stroke-linejoin="round"/><polygon points="428,1399 486,1396 496,1415 435,1419" fill="#7e8d80"/><path d="M435 1419L491 1415" fill="none" stroke="#536c65" stroke-width="2" stroke-linecap="round" stroke-linejoin="round"/><polygon points="555,1399 613,1396 623,1415 562,1419" fill="#7e8d80"/><path d="M562 1419L618 1415" fill="none" stroke="#536c65" stroke-width="2" stroke-linecap="round" stroke-linejoin="round"/><polygon points="682,1399 740,1396 750,1415 689,1419" fill="#7e8d80"/><path d="M689 1419L745 1415" fill="none" stroke="#536c65" stroke-width="2" stroke-linecap="round" stroke-linejoin="round"/><polygon points="9,1399 67,1396 77,1415 16,1419" fill="#7e8d80"/><path d="M16 1419L72 1415" fill="none" stroke="#536c65" stroke-width="2" stroke-linecap="round" stroke-linejoin="round"/><polygon points="136,1399 194,1396 204,1415 143,1419" fill="#7e8d80"/><path d="M143 1419L199 1415" fill="none" stroke="#536c65" stroke-width="2" stroke-linecap="round" stroke-linejoin="round"/><polygon points="263,1399 321,1396 331,1415 270,1419" fill="#7e8d80"/><path d="M270 1419L326 1415" fill="none" stroke="#536c65" stroke-width="2" stroke-linecap="round" stroke-linejoin="round"/><polygon points="390,1462 448,1459 458,1478 397,1482" fill="#7e8d80"/><path d="M397 1482L453 1478" fill="none" stroke="#536c65" stroke-width="2" stroke-linecap="round" stroke-linejoin="round"/><polygon points="517,1462 575,1459 585,1478 524,1482" fill="#7e8d80"/><path d="M524 1482L580 1478" fill="none" stroke="#536c65" stroke-width="2" stroke-linecap="round" stroke-linejoin="round"/><polygon points="644,1462 702,1459 712,1478 651,1482" fill="#7e8d80"/><path d="M651 1482L707 1478" fill="none" stroke="#536c65" stroke-width="2" stroke-linecap="round" stroke-linejoin="round"/><polygon points="771,1462 829,1459 839,1478 778,1482" fill="#7e8d80"/><path d="M778 1482L834 1478" fill="none" stroke="#536c65" stroke-width="2" stroke-linecap="round" stroke-linejoin="round"/><polygon points="98,1462 156,1459 166,1478 105,1482" fill="#7e8d80"/><path d="M105 1482L161 1478" fill="none" stroke="#536c65" stroke-width="2" stroke-linecap="round" stroke-linejoin="round"/><polygon points="225,1462 283,1459 293,1478 232,1482" fill="#7e8d80"/><path d="M232 1482L288 1478" fill="none" stroke="#536c65" stroke-width="2" stroke-linecap="round" stroke-linejoin="round"/><polygon points="352,1462 410,1459 420,1478 359,1482" fill="#7e8d80"/><path d="M359 1482L415 1478" fill="none" stroke="#536c65" stroke-width="2" stroke-linecap="round" stroke-linejoin="round"/><polygon points="479,1462 537,1459 547,1478 486,1482" fill="#7e8d80"/><path d="M486 1482L542 1478" fill="none" stroke="#536c65" stroke-width="2" stroke-linecap="round" stroke-linejoin="round"/><polygon points="606,1462 664,1459 674,1478 613,1482" fill="#7e8d80"/><path d="M613 1482L669 1478" fill="none" stroke="#536c65" stroke-width="2" stroke-linecap="round" stroke-linejoin="round"/><polygon points="733,1462 791,1459 801,1478 740,1482" fill="#7e8d80"/><path d="M740 1482L796 1478" fill="none" stroke="#536c65" stroke-width="2" stroke-linecap="round" stroke-linejoin="round"/><polygon points="60,1525 118,1522 128,1541 67,1545" fill="#7e8d80"/><path d="M67 1545L123 1541" fill="none" stroke="#536c65" stroke-width="2" stroke-linecap="round" stroke-linejoin="round"/><polygon points="187,1525 245,1522 255,1541 194,1545" fill="#7e8d80"/><path d="M194 1545L250 1541" fill="none" stroke="#536c65" stroke-width="2" stroke-linecap="round" stroke-linejoin="round"/><polygon points="314,1525 372,1522 382,1541 321,1545" fill="#7e8d80"/><path d="M321 1545L377 1541" fill="none" stroke="#536c65" stroke-width="2" stroke-linecap="round" stroke-linejoin="round"/><polygon points="441,1525 499,1522 509,1541 448,1545" fill="#7e8d80"/><path d="M448 1545L504 1541" fill="none" stroke="#536c65" stroke-width="2" stroke-linecap="round" stroke-linejoin="round"/><polygon points="568,1525 626,1522 636,1541 575,1545" fill="#7e8d80"/><path d="M575 1545L631 1541" fill="none" stroke="#536c65" stroke-width="2" stroke-linecap="round" stroke-linejoin="round"/><polygon points="695,1525 753,1522 763,1541 702,1545" fill="#7e8d80"/><path d="M702 1545L758 1541" fill="none" stroke="#536c65" stroke-width="2" stroke-linecap="round" stroke-linejoin="round"/><polygon points="22,1525 80,1522 90,1541 29,1545" fill="#7e8d80"/><path d="M29 1545L85 1541" fill="none" stroke="#536c65" stroke-width="2" stroke-linecap="round" stroke-linejoin="round"/><polygon points="149,1525 207,1522 217,1541 156,1545" fill="#7e8d80"/><path d="M156 1545L212 1541" fill="none" stroke="#536c65" stroke-width="2" stroke-linecap="round" stroke-linejoin="round"/><polygon points="276,1525 334,1522 344,1541 283,1545" fill="#7e8d80"/><path d="M283 1545L339 1541" fill="none" stroke="#536c65" stroke-width="2" stroke-linecap="round" stroke-linejoin="round"/><polygon points="403,1525 461,1522 471,1541 410,1545" fill="#7e8d80"/><path d="M410 1545L466 1541" fill="none" stroke="#536c65" stroke-width="2" stroke-linecap="round" stroke-linejoin="round"/></svg>