<svg xmlns="http://www.w3.org/2000/svg" width="800" height="1600" viewBox="0 0 800 1600"><polygon points="0,850 120,740 230,810 400,720 570,810 710,760 800,830 800,1080 0,1080" fill="#9bafa0"/><rect x="195" y="740" width="410" height="230" fill="#b9b69c"/><polygon points="175,740 400,650 625,740" fill="#657a78"/><rect x="355" y="480" width="90" height="490" fill="#b9b69c"/><polygon points="416.2,480 445,480 445,970 416.2,970" fill="#00000022"/><rect x="351" y="468" width="98" height="14" fill="#b9b69c"/><rect x="355" y="455" width="12.857142857142858" height="20" fill="#b9b69c"/><rect x="377.5" y="455" width="12.857142857142858" height="20" fill="#b9b69c"/><rect x="400" y="455" width="12.857142857142858" height="20" fill="#b9b69c"/><rect x="422.5" y="455" width="12.857142857142858" height="20" fill="#b9b69c"/><rect x="374.8" y="502" width="16.2" height="30" fill="#455c60"/><rect x="408.1" y="502" width="11.700000000000001" height="30" fill="#455c60"/><rect x="374.8" y="567" width="16.2" height="30" fill="#455c60"/><rect x="408.1" y="567" width="11.700000000000001" height="30" fill="#455c60"/><rect x="374.8" y="632" width="16.2" height="30" fill="#455c60"/><rect x="408.1" y="632" width="11.700000000000001" height="30" fill="#455c60"/><rect x="374.8" y="697" width="16.2" height="30" fill="#455c60"/><rect x="408.1" y="697" width="11.700000000000001" height="30" fill="#455c60"/><rect x="374.8" y="762" width="16.2" height="30" fill="#455c60"/><rect x="408.1" y="762" width="11.700000000000001" height="30" fill="#455c60"/><rect x="374.8" y="827" width="16.2" height="30" fill="#455c60"/><rect x="408.1" y="827" width="11.700000000000001" height="30" fill="#455c60"/><rect x="374.8" y="892" width="16.2" height="30" fill="#455c60"/><rect x="408.1" y="892" width="11.700000000000001" height="30" fill="#455c60"/><rect x="215" y="545" width="67" height="425" fill="#b9b69c"/><polygon points="260.56,545 282,545 282,970 260.56,970" fill="#00000022"/><rect x="211" y="533" width="75" height="14" fill="#b9b69c"/><rect x="215" y="520" width="9.571428571428571" height="20" fill="#b9b69c"/><rect x="231.75" y="520" width="9.571428571428571" height="20" fill="#b9b69c"/><rect x="248.5" y="520" width="9.571428571428571" height="20" fill="#b9b69c"/><rect x="265.25" y="520" width="9.571428571428571" height="20" fill="#b9b69c"/><rect x="229.74" y="567" width="12.059999999999999" height="30" fill="#455c60"/><rect x="254.53" y="567" width="8.71" height="30" fill="#455c60"/><rect x="229.74" y="632" width="12.059999999999999" height="30" fill="#455c60"/><rect x="254.53" y="632" width="8.71" height="30" fill="#455c60"/><rect x="229.74" y="697" width="12.059999999999999" height="30" fill="#455c60"/><rect x="254.53" y="697" width="8.71" height="30" fill="#455c60"/><rect x="229.74" y="762" width="12.059999999999999" height="30" fill="#455c60"/><rect x="254.53" y="762" width="8.71" height="30" fill="#455c60"/><rect x="229.74" y="827" width="12.059999999999999" height="30" fill="#455c60"/><rect x="254.53" y="827" width="8.71" height="30" fill="#455c60"/><rect x="229.74" y="892" width="12.059999999999999" height="30" fill="#455c60"/><rect x="254.53" y="892" width="8.71" height="30" fill="#455c60"/><rect x="515" y="545" width="67" height="425" fill="#b9b69c"/><polygon points="560.56,545 582,545 582,970 560.56,970" fill="#00000022"/><rect x="511" y="533" width="75" height="14" fill="#b9b69c"/><rect x="515" y="520" width="9.571428571428571" height="20" fill="#b9b69c"/><rect x="531.75" y="520" width="9.571428571428571" height="20" fill="#b9b69c"/><rect x="548.5" y="520" width="9.571428571428571" height="20" fill="#b9b69c"/><rect x="565.25" y="520" width="9.571428571428571" height="20" fill="#b9b69c"/><rect x="529.74" y="567" width="12.059999999999999" height="30" fill="#455c60"/><rect x="554.53" y="567" width="8.71" height="30" fill="#455c60"/><rect x="529.74" y="632" width="12.059999999999999" height="30" fill="#455c60"/><rect x="554.53" y="632" width="8.71" height="30" fill="#455c60"/><rect x="529.74" y="697" width="12.059999999999999" height="30" fill="#455c60"/><rect x="554.53" y="697" width="8.71" height="30" fill="#455c60"/><rect x="529.74" y="762" width="12.059999999999999" height="30" fill="#455c60"/><rect x="554.53" y="762" width="8.71" height="30" fill="#455c60"/><rect x="529.74" y="827" width="12.059999999999999" height="30" fill="#455c60"/><rect x="554.53" y="827" width="8.71" height="30" fill="#455c60"/><rect x="529.74" y="892" width="12.059999999999999" height="30" fill="#455c60"/><rect x="554.53" y="892" width="8.71" height="30" fill="#455c60"/><polygon points="225,830 235,808 247,830 247,905 225,905" fill="#566965"/><polygon points="277,830 287,808 299,830 299,905 277,905" fill="#566965"/><polygon points="329,830 339,808 351,830 351,905 329,905" fill="#566965"/><polygon points="381,830 391,808 403,830 403,905 381,905" fill="#566965"/><polygon points="433,830 443,808 455,830 455,905 433,905" fill="#566965"/><polygon points="485,830 495,808 507,830 507,905 485,905" fill="#566965"/><polygon points="537,830 547,808 559,830 559,905 537,905" fill="#566965"/><polygon points="589,830 599,808 611,830 611,905 589,905" fill="#566965"/><polygon points="365,970 365,894 400,862 435,894 435,970" fill="#455c60"/><rect x="-40" y="916" width="74" height="84" fill="#d4aa7d"/><polygon points="11.799999999999997,916 34,916 34,1000 11.799999999999997,1000" fill="#00000020"/><polygon points="-48,916 -3,851 42,916" fill="#526778"/><polygon points="-3,851 42,916 0.7000000000000028,916" fill="#00000025"/><rect x="-30" y="931" width="7" height="69" fill="#695647"/><rect x="-17" y="941" width="17" height="30" fill="#475c5b"/><rect x="-15" y="943" width="5" height="24" fill="#d2b477"/><rect x="-12" y="931" width="7" height="69" fill="#695647"/><rect x="14.82" y="941" width="17" height="30" fill="#475c5b"/><rect x="16.82" y="943" width="5" height="24" fill="#d2b477"/><rect x="6" y="931" width="7" height="69" fill="#695647"/><rect x="-40" y="981" width="74" height="7" fill="#695647"/><path d="M-30 981L-6.699999999999996 995M24 981L0.7000000000000028 995" fill="none" stroke="#89705b" stroke-width="5" stroke-linecap="round" stroke-linejoin="round"/><rect x="38" y="869" width="74" height="131" fill="#b9bea1"/><polygon points="89.8,869 112,869 112,1000 89.8,1000" fill="#00000020"/><polygon points="30,869 75,804 120,869" fill="#77625f"/><polygon points="75,804 120,869 78.7,869" fill="#00000025"/><rect x="48" y="884" width="7" height="116" fill="#695647"/><rect x="61" y="894" width="17" height="30" fill="#475c5b"/><rect x="63" y="896" width="5" height="24" fill="#d2b477"/><rect x="66" y="884" width="7" height="116" fill="#695647"/><rect x="92.82" y="894" width="17" height="30" fill="#475c5b"/><rect x="94.82" y="896" width="5" height="24" fill="#d2b477"/><rect x="84" y="884" width="7" height="116" fill="#695647"/><rect x="38" y="934" width="74" height="7" fill="#695647"/><path d="M48 934L71.30000000000001 995M102 934L78.7 995" fill="none" stroke="#89705b" stroke-width="5" stroke-linecap="round" stroke-linejoin="round"/><rect x="116" y="927" width="74" height="73" fill="#cba28b"/><polygon points="167.8,927 190,927 190,1000 167.8,1000" fill="#00000020"/><polygon points="108,927 153,862 198,927" fill="#8a5960"/><polygon points="153,862 198,927 156.7,927" fill="#00000025"/><rect x="126" y="942" width="7" height="58" fill="#695647"/><rect x="139" y="952" width="17" height="30" fill="#475c5b"/><rect x="141" y="954" width="5" height="24" fill="#d2b477"/><rect x="144" y="942" width="7" height="58" fill="#695647"/><rect x="170.82" y="952" width="17" height="30" fill="#475c5b"/><rect x="172.82" y="954" width="5" height="24" fill="#d2b477"/><rect x="162" y="942" width="7" height="58" fill="#695647"/><rect x="116" y="992" width="74" height="7" fill="#695647"/><path d="M126 992L149.3 995M180 992L156.7 995" fill="none" stroke="#89705b" stroke-width="5" stroke-linecap="round" stroke-linejoin="round"/><rect x="194" y="880" width="74" height="120" fill="#b4c7ba"/><polygon points="245.8,880 268,880 268,1000 245.8,1000" fill="#00000020"/><polygon points="186,880 231,815 276,880" fill="#526778"/><polygon points="231,815 276,880 234.7,880" fill="#00000025"/><rect x="204" y="895" width="7" height="105" fill="#695647"/><rect x="217" y="905" width="17" height="30" fill="#475c5b"/><rect x="219" y="907" width="5" height="24" fill="#d2b477"/><rect x="222" y="895" width="7" height="105" fill="#695647"/><rect x="248.82" y="905" width="17" height="30" fill="#475c5b"/><rect x="250.82" y="907" width="5" height="24" fill="#d2b477"/><rect x="240" y="895" width="7" height="105" fill="#695647"/><rect x="194" y="945" width="74" height="7" fill="#695647"/><path d="M204 945L227.3 995M258 945L234.7 995" fill="none" stroke="#89705b" stroke-width="5" stroke-linecap="round" stroke-linejoin="round"/><rect x="272" y="833" width="74" height="167" fill="#d4aa7d"/><polygon points="323.8,833 346,833 346,1000 323.8,1000" fill="#00000020"/><polygon points="264,833 309,768 354,833" fill="#77625f"/><polygon points="309,768 354,833 312.7,833" fill="#00000025"/><rect x="282" y="848" width="7" height="152" fill="#695647"/><rect x="295" y="858" width="17" height="30" fill="#475c5b"/><rect x="297" y="860" width="5" height="24" fill="#d2b477"/><rect x="300" y="848" width="7" height="152" fill="#695647"/><rect x="326.82" y="858" width="17" height="30" fill="#475c5b"/><rect x="328.82" y="860" width="5" height="24" fill="#d2b477"/><rect x="318" y="848" width="7" height="152" fill="#695647"/><rect x="272" y="898" width="74" height="7" fill="#695647"/><path d="M282 898L305.3 995M336 898L312.7 995" fill="none" stroke="#89705b" stroke-width="5" stroke-linecap="round" stroke-linejoin="round"/><rect x="350" y="891" width="74" height="109" fill="#b9bea1"/><polygon points="401.8,891 424,891 424,1000 401.8,1000" fill="#00000020"/><polygon points="342,891 387,826 432,891" fill="#8a5960"/><polygon points="387,826 432,891 390.7,891" fill="#00000025"/><rect x="360" y="906" width="7" height="94" fill="#695647"/><rect x="373" y="916" width="17" height="30" fill="#475c5b"/><rect x="375" y="918" width="5" height="24" fill="#d2b477"/><rect x="378" y="906" width="7" height="94" fill="#695647"/><rect x="404.82" y="916" width="17" height="30" fill="#475c5b"/><rect x="406.82" y="918" width="5" height="24" fill="#d2b477"/><rect x="396" y="906" width="7" height="94" fill="#695647"/><rect x="350" y="956" width="74" height="7" fill="#695647"/><path d="M360 956L383.3 995M414 956L390.7 995" fill="none" stroke="#89705b" stroke-width="5" stroke-linecap="round" stroke-linejoin="round"/><rect x="428" y="844" width="74" height="156" fill="#cba28b"/><polygon points="479.8,844 502,844 502,1000 479.8,1000" fill="#00000020"/><polygon points="420,844 465,779 510,844" fill="#526778"/><polygon points="465,779 510,844 468.7,844" fill="#00000025"/><rect x="438" y="859" width="7" height="141" fill="#695647"/><rect x="451" y="869" width="17" height="30" fill="#475c5b"/><rect x="453" y="871" width="5" height="24" fill="#d2b477"/><rect x="456" y="859" width="7" height="141" fill="#695647"/><rect x="482.82" y="869" width="17" height="30" fill="#475c5b"/><rect x="484.82" y="871" width="5" height="24" fill="#d2b477"/><rect x="474" y="859" width="7" height="141" fill="#695647"/><rect x="428" y="909" width="74" height="7" fill="#695647"/><path d="M438 909L461.3 995M492 909L468.7 995" fill="none" stroke="#89705b" stroke-width="5" stroke-linecap="round" stroke-linejoin="round"/><rect x="506" y="902" width="74" height="98" fill="#b4c7ba"/><polygon points="557.8,902 580,902 580,1000 557.8,1000" fill="#00000020"/><polygon points="498,902 543,837 588,902" fill="#77625f"/><polygon points="543,837 588,902 546.7,902" fill="#00000025"/><rect x="516" y="917" width="7" height="83" fill="#695647"/><rect x="529" y="927" width="17" height="30" fill="#475c5b"/><rect x="531" y="929" width="5" height="24" fill="#d2b477"/><rect x="534" y="917" width="7" height="83" fill="#695647"/><rect x="560.82" y="927" width="17" height="30" fill="#475c5b"/><rect x="562.82" y="929" width="5" height="24" fill="#d2b477"/><rect x="552" y="917" width="7" height="83" fill="#695647"/><rect x="506" y="967" width="74" height="7" fill="#695647"/><path d="M516 967L539.3 995M570 967L546.7 995" fill="none" stroke="#89705b" stroke-width="5" stroke-linecap="round" stroke-linejoin="round"/><rect x="584" y="855" width="74" height="145" fill="#d4aa7d"/><polygon points="635.8,855 658,855 658,1000 635.8,1000" fill="#00000020"/><polygon points="576,855 621,790 666,855" fill="#8a5960"/><polygon points="621,790 666,855 624.7,855" fill="#00000025"/><rect x="594" y="870" width="7" height="130" fill="#695647"/><rect x="607" y="880" width="17" height="30" fill="#475c5b"/><rect x="609" y="882" width="5" height="24" fill="#d2b477"/><rect x="612" y="870" width="7" height="130" fill="#695647"/><rect x="638.82" y="880" width="17" height="30" fill="#475c5b"/><rect x="640.82" y="882" width="5" height="24" fill="#d2b477"/><rect x="630" y="870" width="7" height="130" fill="#695647"/><rect x="584" y="920" width="74" height="7" fill="#695647"/><path d="M594 920L617.3 995M648 920L624.7 995" fill="none" stroke="#89705b" stroke-width="5" stroke-linecap="round" stroke-linejoin="round"/><rect x="662" y="913" width="74" height="87" fill="#b9bea1"/><polygon points="713.8,913 736,913 736,1000 713.8,1000" fill="#00000020"/><polygon points="654,913 699,848 744,913" fill="#526778"/><polygon points="699,848 744,913 702.7,913" fill="#00000025"/><rect x="672" y="928" width="7" height="72" fill="#695647"/><rect x="685" y="938" width="17" height="30" fill="#475c5b"/><rect x="687" y="940" width="5" height="24" fill="#d2b477"/><rect x="690" y="928" width="7" height="72" fill="#695647"/><rect x="716.82" y="938" width="17" height="30" fill="#475c5b"/><rect x="718.82" y="940" width="5" height="24" fill="#d2b477"/><rect x="708" y="928" width="7" height="72" fill="#695647"/><rect x="662" y="978" width="74" height="7" fill="#695647"/><path d="M672 978L695.3 995M726 978L702.7 995" fill="none" stroke="#89705b" stroke-width="5" stroke-linecap="round" stroke-linejoin="round"/><rect x="740" y="866" width="74" height="134" fill="#cba28b"/><polygon points="791.8,866 814,866 814,1000 791.8,1000" fill="#00000020"/><polygon points="732,866 777,801 822,866" fill="#77625f"/><polygon points="777,801 822,866 780.7,866" fill="#00000025"/><rect x="750" y="881" width="7" height="119" fill="#695647"/><rect x="763" y="891" width="17" height="30" fill="#475c5b"/><rect x="765" y="893" width="5" height="24" fill="#d2b477"/><rect x="768" y="881" width="7" height="119" fill="#695647"/><rect x="794.82" y="891" width="17" height="30" fill="#475c5b"/><rect x="796.82" y="893" width="5" height="24" fill="#d2b477"/><rect x="786" y="881" width="7" height="119" fill="#695647"/><rect x="740" y="931" width="74" height="7" fill="#695647"/><path d="M750 931L773.3 995M804 931L780.7 995" fill="none" stroke="#89705b" stroke-width="5" stroke-linecap="round" stroke-linejoin="round"/><rect x="818" y="924" width="74" height="76" fill="#b4c7ba"/><polygon points="869.8,924 892,924 892,1000 869.8,1000" fill="#00000020"/><polygon points="810,924 855,859 900,924" fill="#8a5960"/><polygon points="855,859 900,924 858.7,924" fill="#00000025"/><rect x="828" y="939" width="7" height="61" fill="#695647"/><rect x="841" y="949" width="17" height="30" fill="#475c5b"/><rect x="843" y="951" width="5" height="24" fill="#d2b477"/><rect x="846" y="939" width="7" height="61" fill="#695647"/><rect x="872.82" y="949" width="17" height="30" fill="#475c5b"/><rect x="874.82" y="951" width="5" height="24" fill="#d2b477"/><rect x="864" y="939" width="7" height="61" fill="#695647"/><rect x="818" y="989" width="74" height="7" fill="#695647"/><path d="M828 989L851.3 995M882 989L858.7 995" fill="none" stroke="#89705b" stroke-width="5" stroke-linecap="round" stroke-linejoin="round"/><rect x="-75" y="795" width="225" height="205" fill="#d4aa7d"/><polygon points="82.5,795 150,795 150,1000 82.5,1000" fill="#00000020"/><polygon points="-83,795 37.5,730 158,795" fill="#526778"/><polygon points="37.5,730 158,795 48.750000000000014,795" fill="#00000025"/><rect x="-65" y="810" width="7" height="190" fill="#695647"/><rect x="-52" y="820" width="17" height="30" fill="#475c5b"/><rect x="-50" y="822" width="5" height="24" fill="#d2b477"/><rect x="3.3333333333333286" y="810" width="7" height="190" fill="#695647"/><rect x="44.75" y="820" width="17" height="30" fill="#475c5b"/><rect x="46.75" y="822" width="5" height="24" fill="#d2b477"/><rect x="71.66666666666666" y="810" width="7" height="190" fill="#695647"/><rect x="-75" y="860" width="225" height="7" fill="#695647"/><path d="M-65 860L26.25 995M140 860L48.750000000000014 995" fill="none" stroke="#89705b" stroke-width="5" stroke-linecap="round" stroke-linejoin="round"/><rect x="650" y="795" width="240" height="205" fill="#cba28b"/><polygon points="818,795 890,795 890,1000 818,1000" fill="#00000020"/><polygon points="642,795 770,730 898,795" fill="#8a5960"/><polygon points="770,730 898,795 782,795" fill="#00000025"/><rect x="660" y="810" width="7" height="190" fill="#695647"/><rect x="673" y="820" width="17" height="30" fill="#475c5b"/><rect x="675" y="822" width="5" height="24" fill="#d2b477"/><rect x="733.3333333333334" y="810" width="7" height="190" fill="#695647"/><rect x="776.2" y="820" width="17" height="30" fill="#475c5b"/><rect x="778.2" y="822" width="5" height="24" fill="#d2b477"/><rect x="806.6666666666666" y="810" width="7" height="190" fill="#695647"/><rect x="650" y="860" width="240" height="7" fill="#695647"/><path d="M660 860L758 995M880 860L782 995" fill="none" stroke="#89705b" stroke-width="5" stroke-linecap="round" stroke-linejoin="round"/><rect x="0" y="1000" width="800" height="80" fill="#a9a591"/><path d="M0 1020l27 -2 M14 1052l28 -1" fill="none" stroke="#868f7e" stroke-width="2" stroke-linecap="round" stroke-linejoin="round"/><path d="M41 1020l27 -2 M55 1052l28 -1" fill="none" stroke="#868f7e" stroke-width="2" stroke-linecap="round" stroke-linejoin="round"/><path d="M82 1020l27 -2 M96 1052l28 -1" fill="none" stroke="#868f7e" stroke-width="2" stroke-linecap="round" stroke-linejoin="round"/><path d="M123 1020l27 -2 M137 1052l28 -1" fill="none" stroke="#868f7e" stroke-width="2" stroke-linecap="round" stroke-linejoin="round"/><path d="M164 1020l27 -2 M178 1052l28 -1" fill="none" stroke="#868f7e" stroke-width="2" stroke-linecap="round" stroke-linejoin="round"/><path d="M205 1020l27 -2 M219 1052l28 -1" fill="none" stroke="#868f7e" stroke-width="2" stroke-linecap="round" stroke-linejoin="round"/><path d="M246 1020l27 -2 M260 1052l28 -1" fill="none" stroke="#868f7e" stroke-width="2" stroke-linecap="round" stroke-linejoin="round"/><path d="M287 1020l27 -2 M301 1052l28 -1" fill="none" stroke="#868f7e" stroke-width="2" stroke-linecap="round" stroke-linejoin="round"/><path d="M328 1020l27 -2 M342 1052l28 -1" fill="none" stroke="#868f7e" stroke-width="2" stroke-linecap="round" stroke-linejoin="round"/><path d="M369 1020l27 -2 M383 1052l28 -1" fill="none" stroke="#868f7e" stroke-width="2" stroke-linecap="round" stroke-linejoin="round"/><path d="M410 1020l27 -2 M424 1052l28 -1" fill="none" stroke="#868f7e" stroke-width="2" stroke-linecap="round" stroke-linejoin="round"/><path d="M451 1020l27 -2 M465 1052l28 -1" fill="none" stroke="#868f7e" stroke-width="2" stroke-linecap="round" stroke-linejoin="round"/><path d="M492 1020l27 -2 M506 1052l28 -1" fill="none" stroke="#868f7e" stroke-width="2" stroke-linecap="round" stroke-linejoin="round"/><path d="M533 1020l27 -2 M547 1052l28 -1" fill="none" stroke="#868f7e" stroke-width="2" stroke-linecap="round" stroke-linejoin="round"/><path d="M574 1020l27 -2 M588 1052l28 -1" fill="none" stroke="#868f7e" stroke-width="2" stroke-linecap="round" stroke-linejoin="round"/><path d="M615 1020l27 -2 M629 1052l28 -1" fill="none" stroke="#868f7e" stroke-width="2" stroke-linecap="round" stroke-linejoin="round"/><path d="M656 1020l27 -2 M670 1052l28 -1" fill="none" stroke="#868f7e" stroke-width="2" stroke-linecap="round" stroke-linejoin="round"/><path d="M697 1020l27 -2 M711 1052l28 -1" fill="none" stroke="#868f7e" stroke-width="2" stroke-linecap="round" stroke-linejoin="round"/><path d="M738 1020l27 -2 M752 1052l28 -1" fill="none" stroke="#868f7e" stroke-width="2" stroke-linecap="round" stroke-linejoin="round"/><path d="M779 1020l27 -2 M793 1052l28 -1" fill="none" stroke="#868f7e" stroke-width="2" stroke-linecap="round" stroke-linejoin="round"/><path d="M820 1020l27 -2 M834 1052l28 -1" fill="none" stroke="#868f7e" stroke-width="2" stroke-linecap="round" stroke-linejoin="round"/><path d="M861 1020l27 -2 M875 1052l28 -1" fill="none" stroke="#868f7e" stroke-width="2" stroke-linecap="round" stroke-linejoin="round"/><rect x="0" y="1080" width="800" height="22" fill="#ddbb85"/><rect x="0" y="1102" width="800" height="26" fill="#98735a"/><rect x="0" y="1128" width="800" height="72" fill="#665248"/><rect x="0" y="1110" width="3" height="84" fill="#423d39"/><polygon points="0,1110 64,1110 59,1115 4,1115" fill="#aa8865"/><rect x="72" y="1110" width="3" height="84" fill="#423d39"/><polygon points="72,1110 136,1110 131,1115 76,1115" fill="#aa8865"/><rect x="144" y="1110" width="3" height="84" fill="#423d39"/><polygon points="144,1110 208,1110 203,1115 148,1115" fill="#aa8865"/><rect x="216" y="1110" width="3" height="84" fill="#423d39"/><polygon points="216,1110 280,1110 275,1115 220,1115" fill="#aa8865"/><rect x="288" y="1110" width="3" height="84" fill="#423d39"/><polygon points="288,1110 352,1110 347,1115 292,1115" fill="#aa8865"/><rect x="360" y="1110" width="3" height="84" fill="#423d39"/><polygon points="360,1110 424,1110 419,1115 364,1115" fill="#aa8865"/><rect x="432" y="1110" width="3" height="84" fill="#423d39"/><polygon points="432,1110 496,1110 491,1115 436,1115" fill="#aa8865"/><rect x="504" y="1110" width="3" height="84" fill="#423d39"/><polygon points="504,1110 568,1110 563,1115 508,1115" fill="#aa8865"/><rect x="576" y="1110" width="3" height="84" fill="#423d39"/><polygon points="576,1110 640,1110 635,1115 580,1115" fill="#aa8865"/><rect x="648" y="1110" width="3" height="84" fill="#423d39"/><polygon points="648,1110 712,1110 707,1115 652,1115" fill="#aa8865"/><rect x="720" y="1110" width="3" height="84" fill="#423d39"/><polygon points="720,1110 784,1110 779,1115 724,1115" fill="#aa8865"/><rect x="792" y="1110" width="3" height="84" fill="#423d39"/><polygon points="792,1110 856,1110 851,1115 796,1115" fill="#aa8865"/><rect x="0" y="1200" width="800" height="400" fill="#697b72"/><polygon points="44,1210 102,1207 112,1226 51,1230" fill="#7e8d80"/><polygon points="171,1210 229,1207 239,1226 178,1230" fill="#7e8d80"/><polygon points="298,1210 356,1207 366,1226 305,1230" fill="#7e8d80"/><polygon points="425,1210 483,1207 493,1226 432,1230" fill="#7e8d80"/><polygon points="552,1210 610,1207 620,1226 559,1230" fill="#7e8d80"/><polygon points="679,1210 737,1207 747,1226 686,1230" fill="#7e8d80"/><polygon points="6,1210 64,1207 74,1226 13,1230" fill="#7e8d80"/><polygon points="133,1210 191,1207 201,1226 140,1230" fill="#7e8d80"/><polygon points="260,1210 318,1207 328,1226 267,1230" fill="#7e8d80"/><polygon points="387,1210 445,1207 455,1226 394,1230" fill="#7e8d80"/><polygon points="514,1273 572,1270 582,1289 521,1293" fill="#7e8d80"/><polygon points="641,1273 699,1270 709,1289 648,1293" fill="#7e8d80"/><polygon points="768,1273 826,1270 836,1289 775,1293" fill="#7e8d80"/><polygon points="95,1273 153,1270 163,1289 102,1293" fill="#7e8d80"/><polygon points="222,1273 280,1270 290,1289 229,1293" fill="#7e8d80"/><polygon points="349,1273 407,1270 417,1289 356,1293" fill="#7e8d80"/><polygon points="476,1273 534,1270 544,1289 483,1293" fill="#7e8d80"/><polygon points="603,1273 661,1270 671,1289 610,1293" fill="#7e8d80"/><polygon points="730,1273 788,1270 798,1289 737,1293" fill="#7e8d80"/><polygon points="57,1273 115,1270 125,1289 64,1293" fill="#7e8d80"/><polygon points="184,1336 242,1333 252,1352 191,1356" fill="#7e8d80"/><polygon points="311,1336 369,1333 379,1352 318,1356" fill="#7e8d80"/><polygon points="438,1336 496,1333 506,1352 445,1356" fill="#7e8d80"/><polygon points="565,1336 623,1333 633,1352 572,1356" fill="#7e8d80"/><polygon points="692,1336 750,1333 760,1352 699,1356" fill="#7e8d80"/><polygon points="19,1336 77,1333 87,1352 26,1356" fill="#7e8d80"/><polygon points="146,1336 204,1333 214,1352 153,1356" fill="#7e8d80"/><polygon points="273,1336 331,1333 341,1352 280,1356" fill="#7e8d80"/><polygon points="400,1336 458,1333 468,1352 407,1356" fill="#7e8d80"/><polygon points="527,1336 585,1333 595,1352 534,1356" fill="#7e8d80"/><polygon points="654,1399 712,1396 722,1415 661,1419" fill="#7e8d80"/><polygon points="781,1399 839,1396 849,1415 788,1419" fill="#7e8d80"/><polygon points="108,1399 166,1396 176,1415 115,1419" fill="#7e8d80"/><polygon points="235,1399 293,1396 303,1415 242,1419" fill="#7e8d80"/><polygon points="362,1399 420,1396 430,1415 369,1419" fill="#7e8d80"/><polygon points="489,1399 547,1396 557,1415 496,1419" fill="#7e8d80"/><polygon points="616,1399 674,1396 684,1415 623,1419" fill="#7e8d80"/><polygon points="743,1399 801,1396 811,1415 750,1419" fill="#7e8d80"/><polygon points="70,1399 128,1396 138,1415 77,1419" fill="#7e8d80"/><polygon points="197,1399 255,1396 265,1415 204,1419" fill="#7e8d80"/><polygon points="324,1462 382,1459 392,1478 331,1482" fill="#7e8d80"/><polygon points="451,1462 509,1459 519,1478 458,1482" fill="#7e8d80"/><polygon points="578,1462 636,1459 646,1478 585,1482" fill="#7e8d80"/><polygon points="705,1462 763,1459 773,1478 712,1482" fill="#7e8d80"/><polygon points="32,1462 90,1459 100,1478 39,1482" fill="#7e8d80"/><polygon points="159,1462 217,1459 227,1478 166,1482" fill="#7e8d80"/><polygon points="286,1462 344,1459 354,1478 293,1482" fill="#7e8d80"/><polygon points="413,1462 471,1459 481,1478 420,1482" fill="#7e8d80"/><polygon points="540,1462 598,1459 608,1478 547,1482" fill="#7e8d80"/><polygon points="667,1462 725,1459 735,1478 674,1482" fill="#7e8d80"/><polygon points="794,1525 852,1522 862,1541 801,1545" fill="#7e8d80"/><polygon points="121,1525 179,1522 189,1541 128,1545" fill="#7e8d80"/><polygon points="248,1525 306,1522 316,1541 255,1545" fill="#7e8d80"/><polygon points="375,1525 433,1522 443,1541 382,1545" fill="#7e8d80"/><polygon points="502,1525 560,1522 570,1541 509,1545" fill="#7e8d80"/><polygon points="629,1525 687,1522 697,1541 636,1545" fill="#7e8d80"/><polygon points="756,1525 814,1522 824,1541 763,1545" fill="#7e8d80"/><polygon points="83,1525 141,1522 151,1541 90,1545" fill="#7e8d80"/><polygon points="210,1525 268,1522 278,1541 217,1545" fill="#7e8d80"/><polygon points="337,1525 395,1522 405,1541 344,1545" fill="#7e8d80"/></svg>