<svg xmlns="http://www.w3.org/2000/svg" width="800" height="1600" viewBox="0 0 800 1600"><polygon points="0,870 90,755 220,830 370,700 520,830 680,730 800,820 800,1080 0,1080" fill="#9bafa0"/><rect x="-40" y="816" width="74" height="274" fill="#cba28b"/><polygon points="11.799999999999997,816 34,816 34,1090 11.799999999999997,1090" fill="#00000020"/><polygon points="-48,816 -3,751 42,816" fill="#77625f"/><polygon points="-3,751 42,816 0.7000000000000028,816" fill="#00000025"/><rect x="-30" y="831" width="7" height="259" fill="#695647"/><rect x="-17" y="841" width="17" height="30" fill="#475c5b"/><rect x="-15" y="843" width="5" height="24" fill="#d2b477"/><rect x="-12" y="831" width="7" height="259" fill="#695647"/><rect x="14.82" y="841" width="17" height="30" fill="#475c5b"/><rect x="16.82" y="843" width="5" height="24" fill="#d2b477"/><rect x="6" y="831" width="7" height="259" fill="#695647"/><rect x="-40" y="881" width="74" height="7" fill="#695647"/><path d="M-30 881L-6.699999999999996 1085M24 881L0.7000000000000028 1085" fill="none" stroke="#89705b" stroke-width="5" stroke-linecap="round" stroke-linejoin="round"/><rect x="38" y="889" width="74" height="201" fill="#b4c7ba"/><polygon points="89.8,889 112,889 112,1090 89.8,1090" fill="#00000020"/><polygon points="30,889 75,824 120,889" fill="#8a5960"/><polygon points="75,824 120,889 78.7,889" fill="#00000025"/><rect x="48" y="904" width="7" height="186" fill="#695647"/><rect x="61" y="914" width="17" height="30" fill="#475c5b"/><rect x="63" y="916" width="5" height="24" fill="#d2b477"/><rect x="66" y="904" width="7" height="186" fill="#695647"/><rect x="92.82" y="914" width="17" height="30" fill="#475c5b"/><rect x="94.82" y="916" width="5" height="24" fill="#d2b477"/><rect x="84" y="904" width="7" height="186" fill="#695647"/><rect x="38" y="954" width="74" height="7" fill="#695647"/><path d="M48 954L71.30000000000001 1085M102 954L78.7 1085" fill="none" stroke="#89705b" stroke-width="5" stroke-linecap="round" stroke-linejoin="round"/><rect x="116" y="842" width="74" height="248" fill="#d4aa7d"/><polygon points="167.8,842 190,842 190,1090 167.8,1090" fill="#00000020"/><polygon points="108,842 153,777 198,842" fill="#526778"/><polygon points="153,777 198,842 156.7,842" fill="#00000025"/><rect x="126" y="857" width="7" height="233" fill="#695647"/><rect x="139" y="867" width="17" height="30" fill="#475c5b"/><rect x="141" y="869" width="5" height="24" fill="#d2b477"/><rect x="144" y="857" width="7" height="233" fill="#695647"/><rect x="170.82" y="867" width="17" height="30" fill="#475c5b"/><rect x="172.82" y="869" width="5" height="24" fill="#d2b477"/><rect x="162" y="857" width="7" height="233" fill="#695647"/><rect x="116" y="907" width="74" height="7" fill="#695647"/><path d="M126 907L149.3 1085M180 907L156.7 1085" fill="none" stroke="#89705b" stroke-width="5" stroke-linecap="round" stroke-linejoin="round"/><rect x="194" y="795" width="74" height="295" fill="#b9bea1"/><polygon points="245.8,795 268,795 268,1090 245.8,1090" fill="#00000020"/><polygon points="186,795 231,730 276,795" fill="#77625f"/><polygon points="231,730 276,795 234.7,795" fill="#00000025"/><rect x="204" y="810" width="7" height="280" fill="#695647"/><rect x="217" y="820" width="17" height="30" fill="#475c5b"/><rect x="219" y="822" width="5" height="24" fill="#d2b477"/><rect x="222" y="810" width="7" height="280" fill="#695647"/><rect x="248.82" y="820" width="17" height="30" fill="#475c5b"/><rect x="250.82" y="822" width="5" height="24" fill="#d2b477"/><rect x="240" y="810" width="7" height="280" fill="#695647"/><rect x="194" y="860" width="74" height="7" fill="#695647"/><path d="M204 860L227.3 1085M258 860L234.7 1085" fill="none" stroke="#89705b" stroke-width="5" stroke-linecap="round" stroke-linejoin="round"/><rect x="272" y="868" width="74" height="222" fill="#cba28b"/><polygon points="323.8,868 346,868 346,1090 323.8,1090" fill="#00000020"/><polygon points="264,868 309,803 354,868" fill="#8a5960"/><polygon points="309,803 354,868 312.7,868" fill="#00000025"/><rect x="282" y="883" width="7" height="207" fill="#695647"/><rect x="295" y="893" width="17" height="30" fill="#475c5b"/><rect x="297" y="895" width="5" height="24" fill="#d2b477"/><rect x="300" y="883" width="7" height="207" fill="#695647"/><rect x="326.82" y="893" width="17" height="30" fill="#475c5b"/><rect x="328.82" y="895" width="5" height="24" fill="#d2b477"/><rect x="318" y="883" width="7" height="207" fill="#695647"/><rect x="272" y="933" width="74" height="7" fill="#695647"/><path d="M282 933L305.3 1085M336 933L312.7 1085" fill="none" stroke="#89705b" stroke-width="5" stroke-linecap="round" stroke-linejoin="round"/><rect x="350" y="821" width="74" height="269" fill="#b4c7ba"/><polygon points="401.8,821 424,821 424,1090 401.8,1090" fill="#00000020"/><polygon points="342,821 387,756 432,821" fill="#526778"/><polygon points="387,756 432,821 390.7,821" fill="#00000025"/><rect x="360" y="836" width="7" height="254" fill="#695647"/><rect x="373" y="846" width="17" height="30" fill="#475c5b"/><rect x="375" y="848" width="5" height="24" fill="#d2b477"/><rect x="378" y="836" width="7" height="254" fill="#695647"/><rect x="404.82" y="846" width="17" height="30" fill="#475c5b"/><rect x="406.82" y="848" width="5" height="24" fill="#d2b477"/><rect x="396" y="836" width="7" height="254" fill="#695647"/><rect x="350" y="886" width="74" height="7" fill="#695647"/><path d="M360 886L383.3 1085M414 886L390.7 1085" fill="none" stroke="#89705b" stroke-width="5" stroke-linecap="round" stroke-linejoin="round"/><rect x="428" y="774" width="74" height="316" fill="#d4aa7d"/><polygon points="479.8,774 502,774 502,1090 479.8,1090" fill="#00000020"/><polygon points="420,774 465,709 510,774" fill="#77625f"/><polygon points="465,709 510,774 468.7,774" fill="#00000025"/><rect x="438" y="789" width="7" height="301" fill="#695647"/><rect x="451" y="799" width="17" height="30" fill="#475c5b"/><rect x="453" y="801" width="5" height="24" fill="#d2b477"/><rect x="456" y="789" width="7" height="301" fill="#695647"/><rect x="482.82" y="799" width="17" height="30" fill="#475c5b"/><rect x="484.82" y="801" width="5" height="24" fill="#d2b477"/><rect x="474" y="789" width="7" height="301" fill="#695647"/><rect x="428" y="839" width="74" height="7" fill="#695647"/><path d="M438 839L461.3 1085M492 839L468.7 1085" fill="none" stroke="#89705b" stroke-width="5" stroke-linecap="round" stroke-linejoin="round"/><rect x="506" y="847" width="74" height="243" fill="#b9bea1"/><polygon points="557.8,847 580,847 580,1090 557.8,1090" fill="#00000020"/><polygon points="498,847 543,782 588,847" fill="#8a5960"/><polygon points="543,782 588,847 546.7,847" fill="#00000025"/><rect x="516" y="862" width="7" height="228" fill="#695647"/><rect x="529" y="872" width="17" height="30" fill="#475c5b"/><rect x="531" y="874" width="5" height="24" fill="#d2b477"/><rect x="534" y="862" width="7" height="228" fill="#695647"/><rect x="560.82" y="872" width="17" height="30" fill="#475c5b"/><rect x="562.82" y="874" width="5" height="24" fill="#d2b477"/><rect x="552" y="862" width="7" height="228" fill="#695647"/><rect x="506" y="912" width="74" height="7" fill="#695647"/><path d="M516 912L539.3 1085M570 912L546.7 1085" fill="none" stroke="#89705b" stroke-width="5" stroke-linecap="round" stroke-linejoin="round"/><rect x="584" y="800" width="74" height="290" fill="#cba28b"/><polygon points="635.8,800 658,800 658,1090 635.8,1090" fill="#00000020"/><polygon points="576,800 621,735 666,800" fill="#526778"/><polygon points="621,735 666,800 624.7,800" fill="#00000025"/><rect x="594" y="815" width="7" height="275" fill="#695647"/><rect x="607" y="825" width="17" height="30" fill="#475c5b"/><rect x="609" y="827" width="5" height="24" fill="#d2b477"/><rect x="612" y="815" width="7" height="275" fill="#695647"/><rect x="638.82" y="825" width="17" height="30" fill="#475c5b"/><rect x="640.82" y="827" width="5" height="24" fill="#d2b477"/><rect x="630" y="815" width="7" height="275" fill="#695647"/><rect x="584" y="865" width="74" height="7" fill="#695647"/><path d="M594 865L617.3 1085M648 865L624.7 1085" fill="none" stroke="#89705b" stroke-width="5" stroke-linecap="round" stroke-linejoin="round"/><rect x="662" y="873" width="74" height="217" fill="#b4c7ba"/><polygon points="713.8,873 736,873 736,1090 713.8,1090" fill="#00000020"/><polygon points="654,873 699,808 744,873" fill="#77625f"/><polygon points="699,808 744,873 702.7,873" fill="#00000025"/><rect x="672" y="888" width="7" height="202" fill="#695647"/><rect x="685" y="898" width="17" height="30" fill="#475c5b"/><rect x="687" y="900" width="5" height="24" fill="#d2b477"/><rect x="690" y="888" width="7" height="202" fill="#695647"/><rect x="716.82" y="898" width="17" height="30" fill="#475c5b"/><rect x="718.82" y="900" width="5" height="24" fill="#d2b477"/><rect x="708" y="888" width="7" height="202" fill="#695647"/><rect x="662" y="938" width="74" height="7" fill="#695647"/><path d="M672 938L695.3 1085M726 938L702.7 1085" fill="none" stroke="#89705b" stroke-width="5" stroke-linecap="round" stroke-linejoin="round"/><rect x="740" y="826" width="74" height="264" fill="#d4aa7d"/><polygon points="791.8,826 814,826 814,1090 791.8,1090" fill="#00000020"/><polygon points="732,826 777,761 822,826" fill="#8a5960"/><polygon points="777,761 822,826 780.7,826" fill="#00000025"/><rect x="750" y="841" width="7" height="249" fill="#695647"/><rect x="763" y="851" width="17" height="30" fill="#475c5b"/><rect x="765" y="853" width="5" height="24" fill="#d2b477"/><rect x="768" y="841" width="7" height="249" fill="#695647"/><rect x="794.82" y="851" width="17" height="30" fill="#475c5b"/><rect x="796.82" y="853" width="5" height="24" fill="#d2b477"/><rect x="786" y="841" width="7" height="249" fill="#695647"/><rect x="740" y="891" width="74" height="7" fill="#695647"/><path d="M750 891L773.3 1085M804 891L780.7 1085" fill="none" stroke="#89705b" stroke-width="5" stroke-linecap="round" stroke-linejoin="round"/><rect x="818" y="779" width="74" height="311" fill="#b9bea1"/><polygon points="869.8,779 892,779 892,1090 869.8,1090" fill="#00000020"/><polygon points="810,779 855,714 900,779" fill="#526778"/><polygon points="855,714 900,779 858.7,779" fill="#00000025"/><rect x="828" y="794" width="7" height="296" fill="#695647"/><rect x="841" y="804" width="17" height="30" fill="#475c5b"/><rect x="843" y="806" width="5" height="24" fill="#d2b477"/><rect x="846" y="794" width="7" height="296" fill="#695647"/><rect x="872.82" y="804" width="17" height="30" fill="#475c5b"/><rect x="874.82" y="806" width="5" height="24" fill="#d2b477"/><rect x="864" y="794" width="7" height="296" fill="#695647"/><rect x="818" y="844" width="74" height="7" fill="#695647"/><path d="M828 844L851.3 1085M882 844L858.7 1085" fill="none" stroke="#89705b" stroke-width="5" stroke-linecap="round" stroke-linejoin="round"/><rect x="370" y="590" width="125" height="540" fill="#c8b58f"/><polygon points="458,590 495,590 495,1080 458,1080" fill="#00000022"/><polygon points="358,590 430,480 507,590" fill="#526778"/><polygon points="430,480 507,590 458,590" fill="#394e60"/><rect x="394" y="625" width="18" height="48" fill="#4e6464"/><rect x="397" y="628" width="5" height="40" fill="#e1c48f"/><rect x="449" y="625" width="18" height="48" fill="#4e6464"/><rect x="452" y="628" width="5" height="40" fill="#e1c48f"/><rect x="394" y="720" width="18" height="48" fill="#4e6464"/><rect x="397" y="723" width="5" height="40" fill="#e1c48f"/><rect x="449" y="720" width="18" height="48" fill="#4e6464"/><rect x="452" y="723" width="5" height="40" fill="#e1c48f"/><rect x="394" y="815" width="18" height="48" fill="#4e6464"/><rect x="397" y="818" width="5" height="40" fill="#e1c48f"/><rect x="449" y="815" width="18" height="48" fill="#4e6464"/><rect x="452" y="818" width="5" height="40" fill="#e1c48f"/><path d="M378 670L487 670M378 765L487 765" fill="none" stroke="#ffffff20" stroke-width="3" stroke-linecap="round" stroke-linejoin="round"/><rect x="418" y="860" width="30" height="115" fill="#d6b6a1"/><path d="M433 869L433 935M419 890L447 890" fill="none" stroke="#7d6158" stroke-width="6" stroke-linecap="round" stroke-linejoin="round"/><rect x="-75" y="760" width="225" height="320" fill="#cba28b"/><polygon points="82.5,760 150,760 150,1080 82.5,1080" fill="#00000020"/><polygon points="-83,760 37.5,695 158,760" fill="#77625f"/><polygon points="37.5,695 158,760 48.750000000000014,760" fill="#00000025"/><rect x="-65" y="775" width="7" height="305" fill="#695647"/><rect x="-52" y="785" width="17" height="30" fill="#475c5b"/><rect x="-50" y="787" width="5" height="24" fill="#d2b477"/><rect x="3.3333333333333286" y="775" width="7" height="305" fill="#695647"/><rect x="44.75" y="785" width="17" height="30" fill="#475c5b"/><rect x="46.75" y="787" width="5" height="24" fill="#d2b477"/><rect x="71.66666666666666" y="775" width="7" height="305" fill="#695647"/><rect x="-75" y="825" width="225" height="7" fill="#695647"/><path d="M-65 825L26.25 1075M140 825L48.750000000000014 1075" fill="none" stroke="#89705b" stroke-width="5" stroke-linecap="round" stroke-linejoin="round"/><rect x="650" y="740" width="240" height="340" fill="#d4aa7d"/><polygon points="818,740 890,740 890,1080 818,1080" fill="#00000020"/><polygon points="642,740 770,675 898,740" fill="#526778"/><polygon points="770,675 898,740 782,740" fill="#00000025"/><rect x="660" y="755" width="7" height="325" fill="#695647"/><rect x="673" y="765" width="17" height="30" fill="#475c5b"/><rect x="675" y="767" width="5" height="24" fill="#d2b477"/><rect x="733.3333333333334" y="755" width="7" height="325" fill="#695647"/><rect x="776.2" y="765" width="17" height="30" fill="#475c5b"/><rect x="778.2" y="767" width="5" height="24" fill="#d2b477"/><rect x="806.6666666666666" y="755" width="7" height="325" fill="#695647"/><rect x="650" y="805" width="240" height="7" fill="#695647"/><path d="M660 805L758 1075M880 805L782 1075" fill="none" stroke="#89705b" stroke-width="5" stroke-linecap="round" stroke-linejoin="round"/><rect x="0" y="1080" width="800" height="22" fill="#ddbb85"/><rect x="0" y="1102" width="800" height="26" fill="#98735a"/><rect x="0" y="1128" width="800" height="72" fill="#665248"/><rect x="0" y="1110" width="3" height="84" fill="#423d39"/><polygon points="0,1110 64,1110 59,1115 4,1115" fill="#aa8865"/><rect x="72" y="1110" width="3" height="84" fill="#423d39"/><polygon points="72,1110 136,1110 131,1115 76,1115" fill="#aa8865"/><rect x="144" y="1110" width="3" height="84" fill="#423d39"/><polygon points="144,1110 208,1110 203,1115 148,1115" fill="#aa8865"/><rect x="216" y="1110" width="3" height="84" fill="#423d39"/><polygon points="216,1110 280,1110 275,1115 220,1115" fill="#aa8865"/><rect x="288" y="1110" width="3" height="84" fill="#423d39"/><polygon points="288,1110 352,1110 347,1115 292,1115" fill="#aa8865"/><rect x="360" y="1110" width="3" height="84" fill="#423d39"/><polygon points="360,1110 424,1110 419,1115 364,1115" fill="#aa8865"/><rect x="432" y="1110" width="3" height="84" fill="#423d39"/><polygon points="432,1110 496,1110 491,1115 436,1115" fill="#aa8865"/><rect x="504" y="1110" width="3" height="84" fill="#423d39"/><polygon points="504,1110 568,1110 563,1115 508,1115" fill="#aa8865"/><rect x="576" y="1110" width="3" height="84" fill="#423d39"/><polygon points="576,1110 640,1110 635,1115 580,1115" fill="#aa8865"/><rect x="648" y="1110" width="3" height="84" fill="#423d39"/><polygon points="648,1110 712,1110 707,1115 652,1115" fill="#aa8865"/><rect x="720" y="1110" width="3" height="84" fill="#423d39"/><polygon points="720,1110 784,1110 779,1115 724,1115" fill="#aa8865"/><rect x="792" y="1110" width="3" height="84" fill="#423d39"/><polygon points="792,1110 856,1110 851,1115 796,1115" fill="#aa8865"/><rect x="0" y="1200" width="800" height="400" fill="#697b72"/><polygon points="154,1210 212,1207 222,1226 161,1230" fill="#7e8d80"/><path d="M161 1230L217 1226" fill="none" stroke="#536c65" stroke-width="2" stroke-linecap="round" stroke-linejoin="round"/><polygon points="281,1210 339,1207 349,1226 288,1230" fill="#7e8d80"/><path d="M288 1230L344 1226" fill="none" stroke="#536c65" stroke-width="2" stroke-linecap="round" stroke-linejoin="round"/><polygon points="408,1210 466,1207 476,1226 415,1230" fill="#7e8d80"/><path d="M415 1230L471 1226" fill="none" stroke="#536c65" stroke-width="2" stroke-linecap="round" stroke-linejoin="round"/><polygon points="535,1210 593,1207 603,1226 542,1230" fill="#7e8d80"/><path d="M542 1230L598 1226" fill="none" stroke="#536c65" stroke-width="2" stroke-linecap="round" stroke-linejoin="round"/><polygon points="662,1210 720,1207 730,1226 669,1230" fill="#7e8d80"/><path d="M669 1230L725 1226" fill="none" stroke="#536c65" stroke-width="2" stroke-linecap="round" stroke-linejoin="round"/><polygon points="789,1210 847,1207 857,1226 796,1230" fill="#7e8d80"/><path d="M796 1230L852 1226" fill="none" stroke="#536c65" stroke-width="2" stroke-linecap="round" stroke-linejoin="round"/><polygon points="116,1210 174,1207 184,1226 123,1230" fill="#7e8d80"/><path d="M123 1230L179 1226" fill="none" stroke="#536c65" stroke-width="2" stroke-linecap="round" stroke-linejoin="round"/><polygon points="243,1210 301,1207 311,1226 250,1230" fill="#7e8d80"/><path d="M250 1230L306 1226" fill="none" stroke="#536c65" stroke-width="2" stroke-linecap="round" stroke-linejoin="round"/><polygon points="370,1210 428,1207 438,1226 377,1230" fill="#7e8d80"/><path d="M377 1230L433 1226" fill="none" stroke="#536c65" stroke-width="2" stroke-linecap="round" stroke-linejoin="round"/><polygon points="497,1210 555,1207 565,1226 504,1230" fill="#7e8d80"/><path d="M504 1230L560 1226" fill="none" stroke="#536c65" stroke-width="2" stroke-linecap="round" stroke-linejoin="round"/><polygon points="624,1273 682,1270 692,1289 631,1293" fill="#7e8d80"/><path d="M631 1293L687 1289" fill="none" stroke="#536c65" stroke-width="2" stroke-linecap="round" stroke-linejoin="round"/><polygon points="751,1273 809,1270 819,1289 758,1293" fill="#7e8d80"/><path d="M758 1293L814 1289" fill="none" stroke="#536c65" stroke-width="2" stroke-linecap="round" stroke-linejoin="round"/><polygon points="78,1273 136,1270 146,1289 85,1293" fill="#7e8d80"/><path d="M85 1293L141 1289" fill="none" stroke="#536c65" stroke-width="2" stroke-linecap="round" stroke-linejoin="round"/><polygon points="205,1273 263,1270 273,1289 212,1293" fill="#7e8d80"/><path d="M212 1293L268 1289" fill="none" stroke="#536c65" stroke-width="2" stroke-linecap="round" stroke-linejoin="round"/><polygon points="332,1273 390,1270 400,1289 339,1293" fill="#7e8d80"/><path d="M339 1293L395 1289" fill="none" stroke="#536c65" stroke-width="2" stroke-linecap="round" stroke-linejoin="round"/><polygon points="459,1273 517,1270 527,1289 466,1293" fill="#7e8d80"/><path d="M466 1293L522 1289" fill="none" stroke="#536c65" stroke-width="2" stroke-linecap="round" stroke-linejoin="round"/><polygon points="586,1273 644,1270 654,1289 593,1293" fill="#7e8d80"/><path d="M593 1293L649 1289" fill="none" stroke="#536c65" stroke-width="2" stroke-linecap="round" stroke-linejoin="round"/><polygon points="713,1273 771,1270 781,1289 720,1293" fill="#7e8d80"/><path d="M720 1293L776 1289" fill="none" stroke="#536c65" stroke-width="2" stroke-linecap="round" stroke-linejoin="round"/><polygon points="40,1273 98,1270 108,1289 47,1293" fill="#7e8d80"/><path d="M47 1293L103 1289" fill="none" stroke="#536c65" stroke-width="2" stroke-linecap="round" stroke-linejoin="round"/><polygon points="167,1273 225,1270 235,1289 174,1293" fill="#7e8d80"/><path d="M174 1293L230 1289" fill="none" stroke="#536c65" stroke-width="2" stroke-linecap="round" stroke-linejoin="round"/><polygon points="294,1336 352,1333 362,1352 301,1356" fill="#7e8d80"/><path d="M301 1356L357 1352" fill="none" stroke="#536c65" stroke-width="2" stroke-linecap="round" stroke-linejoin="round"/><polygon points="421,1336 479,1333 489,1352 428,1356" fill="#7e8d80"/><path d="M428 1356L484 1352" fill="none" stroke="#536c65" stroke-width="2" stroke-linecap="round" stroke-linejoin="round"/><polygon points="548,1336 606,1333 616,1352 555,1356" fill="#7e8d80"/><path d="M555 1356L611 1352" fill="none" stroke="#536c65" stroke-width="2" stroke-linecap="round" stroke-linejoin="round"/><polygon points="675,1336 733,1333 743,1352 682,1356" fill="#7e8d80"/><path d="M682 1356L738 1352" fill="none" stroke="#536c65" stroke-width="2" stroke-linecap="round" stroke-linejoin="round"/><polygon points="2,1336 60,1333 70,1352 9,1356" fill="#7e8d80"/><path d="M9 1356L65 1352" fill="none" stroke="#536c65" stroke-width="2" stroke-linecap="round" stroke-linejoin="round"/><polygon points="129,1336 187,1333 197,1352 136,1356" fill="#7e8d80"/><path d="M136 1356L192 1352" fill="none" stroke="#536c65" stroke-width="2" stroke-linecap="round" stroke-linejoin="round"/><polygon points="256,1336 314,1333 324,1352 263,1356" fill="#7e8d80"/><path d="M263 1356L319 1352" fill="none" stroke="#536c65" stroke-width="2" stroke-linecap="round" stroke-linejoin="round"/><polygon points="383,1336 441,1333 451,1352 390,1356" fill="#7e8d80"/><path d="M390 1356L446 1352" fill="none" stroke="#536c65" stroke-width="2" stroke-linecap="round" stroke-linejoin="round"/><polygon points="510,1336 568,1333 578,1352 517,1356" fill="#7e8d80"/><path d="M517 1356L573 1352" fill="none" stroke="#536c65" stroke-width="2" stroke-linecap="round" stroke-linejoin="round"/><polygon points="637,1336 695,1333 705,1352 644,1356" fill="#7e8d80"/><path d="M644 1356L700 1352" fill="none" stroke="#536c65" stroke-width="2" stroke-linecap="round" stroke-linejoin="round"/><polygon points="764,1399 822,1396 832,1415 771,1419" fill="#7e8d80"/><path d="M771 1419L827 1415" fill="none" stroke="#536c65" stroke-width="2" stroke-linecap="round" stroke-linejoin="round"/><polygon points="91,1399 149,1396 159,1415 98,1419" fill="#7e8d80"/><path d="M98 1419L154 1415" fill="none" stroke="#536c65" stroke-width="2" stroke-linecap="round" stroke-linejoin="round"/><polygon points="218,1399 276,1396 286,1415 225,1419" fill="#7e8d80"/><path d="M225 1419L281 1415" fill="none" stroke="#536c65" stroke-width="2" stroke-linecap="round" stroke-linejoin="round"/><polygon points="345,1399 403,1396 413,1415 352,1419" fill="#7e8d80"/><path d="M352 1419L408 1415" fill="none" stroke="#536c65" stroke-width="2" stroke-linecap="round" stroke-linejoin="round"/><polygon points="472,1399 530,1396 540,1415 479,1419" fill="#7e8d80"/><path d="M479 1419L535 1415" fill="none" stroke="#536c65" stroke-width="2" stroke-linecap="round" stroke-linejoin="round"/><polygon points="599,1399 657,1396 667,1415 606,1419" fill="#7e8d80"/><path d="M606 1419L662 1415" fill="none" stroke="#536c65" stroke-width="2" stroke-linecap="round" stroke-linejoin="round"/><polygon points="726,1399 784,1396 794,1415 733,1419" fill="#7e8d80"/><path d="M733 1419L789 1415" fill="none" stroke="#536c65" stroke-width="2" stroke-linecap="round" stroke-linejoin="round"/><polygon points="53,1399 111,1396 121,1415 60,1419" fill="#7e8d80"/><path d="M60 1419L116 1415" fill="none" stroke="#536c65" stroke-width="2" stroke-linecap="round" stroke-linejoin="round"/><polygon points="180,1399 238,1396 248,1415 187,1419" fill="#7e8d80"/><path d="M187 1419L243 1415" fill="none" stroke="#536c65" stroke-width="2" stroke-linecap="round" stroke-linejoin="round"/><polygon points="307,1399 365,1396 375,1415 314,1419" fill="#7e8d80"/><path d="M314 1419L370 1415" fill="none" stroke="#536c65" stroke-width="2" stroke-linecap="round" stroke-linejoin="round"/><polygon points="434,1462 492,1459 502,1478 441,1482" fill="#7e8d80"/><path d="M441 1482L497 1478" fill="none" stroke="#536c65" stroke-width="2" stroke-linecap="round" stroke-linejoin="round"/><polygon points="561,1462 619,1459 629,1478 568,1482" fill="#7e8d80"/><path d="M568 1482L624 1478" fill="none" stroke="#536c65" stroke-width="2" stroke-linecap="round" stroke-linejoin="round"/><polygon points="688,1462 746,1459 756,1478 695,1482" fill="#7e8d80"/><path d="M695 1482L751 1478" fill="none" stroke="#536c65" stroke-width="2" stroke-linecap="round" stroke-linejoin="round"/><polygon points="15,1462 73,1459 83,1478 22,1482" fill="#7e8d80"/><path d="M22 1482L78 1478" fill="none" stroke="#536c65" stroke-width="2" stroke-linecap="round" stroke-linejoin="round"/><polygon points="142,1462 200,1459 210,1478 149,1482" fill="#7e8d80"/><path d="M149 1482L205 1478" fill="none" stroke="#536c65" stroke-width="2" stroke-linecap="round" stroke-linejoin="round"/><polygon points="269,1462 327,1459 337,1478 276,1482" fill="#7e8d80"/><path d="M276 1482L332 1478" fill="none" stroke="#536c65" stroke-width="2" stroke-linecap="round" stroke-linejoin="round"/><polygon points="396,1462 454,1459 464,1478 403,1482" fill="#7e8d80"/><path d="M403 1482L459 1478" fill="none" stroke="#536c65" stroke-width="2" stroke-linecap="round" stroke-linejoin="round"/><polygon points="523,1462 581,1459 591,1478 530,1482" fill="#7e8d80"/><path d="M530 1482L586 1478" fill="none" stroke="#536c65" stroke-width="2" stroke-linecap="round" stroke-linejoin="round"/><polygon points="650,1462 708,1459 718,1478 657,1482" fill="#7e8d80"/><path d="M657 1482L713 1478" fill="none" stroke="#536c65" stroke-width="2" stroke-linecap="round" stroke-linejoin="round"/><polygon points="777,1462 835,1459 845,1478 784,1482" fill="#7e8d80"/><path d="M784 1482L840 1478" fill="none" stroke="#536c65" stroke-width="2" stroke-linecap="round" stroke-linejoin="round"/><polygon points="104,1525 162,1522 172,1541 111,1545" fill="#7e8d80"/><path d="M111 1545L167 1541" fill="none" stroke="#536c65" stroke-width="2" stroke-linecap="round" stroke-linejoin="round"/><polygon points="231,1525 289,1522 299,1541 238,1545" fill="#7e8d80"/><path d="M238 1545L294 1541" fill="none" stroke="#536c65" stroke-width="2" stroke-linecap="round" stroke-linejoin="round"/><polygon points="358,1525 416,1522 426,1541 365,1545" fill="#7e8d80"/><path d="M365 1545L421 1541" fill="none" stroke="#536c65" stroke-width="2" stroke-linecap="round" stroke-linejoin="round"/><polygon points="485,1525 543,1522 553,1541 492,1545" fill="#7e8d80"/><path d="M492 1545L548 1541" fill="none" stroke="#536c65" stroke-width="2" stroke-linecap="round" stroke-linejoin="round"/><polygon points="612,1525 670,1522 680,1541 619,1545" fill="#7e8d80"/><path d="M619 1545L675 1541" fill="none" stroke="#536c65" stroke-width="2" stroke-linecap="round" stroke-linejoin="round"/><polygon points="739,1525 797,1522 807,1541 746,1545" fill="#7e8d80"/><path d="M746 1545L802 1541" fill="none" stroke="#536c65" stroke-width="2" stroke-linecap="round" stroke-linejoin="round"/><polygon points="66,1525 124,1522 134,1541 73,1545" fill="#7e8d80"/><path d="M73 1545L129 1541" fill="none" stroke="#536c65" stroke-width="2" stroke-linecap="round" stroke-linejoin="round"/><polygon points="193,1525 251,1522 261,1541 200,1545" fill="#7e8d80"/><path d="M200 1545L256 1541" fill="none" stroke="#536c65" stroke-width="2" stroke-linecap="round" stroke-linejoin="round"/><polygon points="320,1525 378,1522 388,1541 327,1545" fill="#7e8d80"/><path d="M327 1545L383 1541" fill="none" stroke="#536c65" stroke-width="2" stroke-linecap="round" stroke-linejoin="round"/><polygon points="447,1525 505,1522 515,1541 454,1545" fill="#7e8d80"/><path d="M454 1545L510 1541" fill="none" stroke="#536c65" stroke-width="2" stroke-linecap="round" stroke-linejoin="round"/></svg>