<svg xmlns="http://www.w3.org/2000/svg" width="800" height="1600" viewBox="0 0 800 1600"><polygon points="0,870 90,755 220,830 370,700 520,830 680,730 800,820 800,1080 0,1080" fill="#9bafa0"/><rect x="-40" y="882" width="74" height="208" fill="#d4aa7d"/><polygon points="11.799999999999997,882 34,882 34,1090 11.799999999999997,1090" fill="#00000020"/><polygon points="-48,882 -3,817 42,882" fill="#77625f"/><polygon points="-3,817 42,882 0.7000000000000028,882" fill="#00000025"/><rect x="-30" y="897" width="7" height="193" fill="#695647"/><rect x="-17" y="907" width="17" height="30" fill="#475c5b"/><rect x="-15" y="909" width="5" height="24" fill="#d2b477"/><rect x="-12" y="897" width="7" height="193" fill="#695647"/><rect x="14.82" y="907" width="17" height="30" fill="#475c5b"/><rect x="16.82" y="909" width="5" height="24" fill="#d2b477"/><rect x="6" y="897" width="7" height="193" fill="#695647"/><rect x="-40" y="947" width="74" height="7" fill="#695647"/><path d="M-30 947L-6.699999999999996 1085M24 947L0.7000000000000028 1085" fill="none" stroke="#89705b" stroke-width="5" stroke-linecap="round" stroke-linejoin="round"/><rect x="38" y="835" width="74" height="255" fill="#b9bea1"/><polygon points="89.8,835 112,835 112,1090 89.8,1090" fill="#00000020"/><polygon points="30,835 75,770 120,835" fill="#8a5960"/><polygon points="75,770 120,835 78.7,835" fill="#00000025"/><rect x="48" y="850" width="7" height="240" fill="#695647"/><rect x="61" y="860" width="17" height="30" fill="#475c5b"/><rect x="63" y="862" width="5" height="24" fill="#d2b477"/><rect x="66" y="850" width="7" height="240" fill="#695647"/><rect x="92.82" y="860" width="17" height="30" fill="#475c5b"/><rect x="94.82" y="862" width="5" height="24" fill="#d2b477"/><rect x="84" y="850" width="7" height="240" fill="#695647"/><rect x="38" y="900" width="74" height="7" fill="#695647"/><path d="M48 900L71.30000000000001 1085M102 900L78.7 1085" fill="none" stroke="#89705b" stroke-width="5" stroke-linecap="round" stroke-linejoin="round"/><rect x="116" y="788" width="74" height="302" fill="#cba28b"/><polygon points="167.8,788 190,788 190,1090 167.8,1090" fill="#00000020"/><polygon points="108,788 153,723 198,788" fill="#526778"/><polygon points="153,723 198,788 156.7,788" fill="#00000025"/><rect x="126" y="803" width="7" height="287" fill="#695647"/><rect x="139" y="813" width="17" height="30" fill="#475c5b"/><rect x="141" y="815" width="5" height="24" fill="#d2b477"/><rect x="144" y="803" width="7" height="287" fill="#695647"/><rect x="170.82" y="813" width="17" height="30" fill="#475c5b"/><rect x="172.82" y="815" width="5" height="24" fill="#d2b477"/><rect x="162" y="803" width="7" height="287" fill="#695647"/><rect x="116" y="853" width="74" height="7" fill="#695647"/><path d="M126 853L149.3 1085M180 853L156.7 1085" fill="none" stroke="#89705b" stroke-width="5" stroke-linecap="round" stroke-linejoin="round"/><rect x="194" y="861" width="74" height="229" fill="#b4c7ba"/><polygon points="245.8,861 268,861 268,1090 245.8,1090" fill="#00000020"/><polygon points="186,861 231,796 276,861" fill="#77625f"/><polygon points="231,796 276,861 234.7,861" fill="#00000025"/><rect x="204" y="876" width="7" height="214" fill="#695647"/><rect x="217" y="886" width="17" height="30" fill="#475c5b"/><rect x="219" y="888" width="5" height="24" fill="#d2b477"/><rect x="222" y="876" width="7" height="214" fill="#695647"/><rect x="248.82" y="886" width="17" height="30" fill="#475c5b"/><rect x="250.82" y="888" width="5" height="24" fill="#d2b477"/><rect x="240" y="876" width="7" height="214" fill="#695647"/><rect x="194" y="926" width="74" height="7" fill="#695647"/><path d="M204 926L227.3 1085M258 926L234.7 1085" fill="none" stroke="#89705b" stroke-width="5" stroke-linecap="round" stroke-linejoin="round"/><rect x="272" y="814" width="74" height="276" fill="#d4aa7d"/><polygon points="323.8,814 346,814 346,1090 323.8,1090" fill="#00000020"/><polygon points="264,814 309,749 354,814" fill="#8a5960"/><polygon points="309,749 354,814 312.7,814" fill="#00000025"/><rect x="282" y="829" width="7" height="261" fill="#695647"/><rect x="295" y="839" width="17" height="30" fill="#475c5b"/><rect x="297" y="841" width="5" height="24" fill="#d2b477"/><rect x="300" y="829" width="7" height="261" fill="#695647"/><rect x="326.82" y="839" width="17" height="30" fill="#475c5b"/><rect x="328.82" y="841" width="5" height="24" fill="#d2b477"/><rect x="318" y="829" width="7" height="261" fill="#695647"/><rect x="272" y="879" width="74" height="7" fill="#695647"/><path d="M282 879L305.3 1085M336 879L312.7 1085" fill="none" stroke="#89705b" stroke-width="5" stroke-linecap="round" stroke-linejoin="round"/><rect x="350" y="887" width="74" height="203" fill="#b9bea1"/><polygon points="401.8,887 424,887 424,1090 401.8,1090" fill="#00000020"/><polygon points="342,887 387,822 432,887" fill="#526778"/><polygon points="387,822 432,887 390.7,887" fill="#00000025"/><rect x="360" y="902" width="7" height="188" fill="#695647"/><rect x="373" y="912" width="17" height="30" fill="#475c5b"/><rect x="375" y="914" width="5" height="24" fill="#d2b477"/><rect x="378" y="902" width="7" height="188" fill="#695647"/><rect x="404.82" y="912" width="17" height="30" fill="#475c5b"/><rect x="406.82" y="914" width="5" height="24" fill="#d2b477"/><rect x="396" y="902" width="7" height="188" fill="#695647"/><rect x="350" y="952" width="74" height="7" fill="#695647"/><path d="M360 952L383.3 1085M414 952L390.7 1085" fill="none" stroke="#89705b" stroke-width="5" stroke-linecap="round" stroke-linejoin="round"/><rect x="428" y="840" width="74" height="250" fill="#cba28b"/><polygon points="479.8,840 502,840 502,1090 479.8,1090" fill="#00000020"/><polygon points="420,840 465,775 510,840" fill="#77625f"/><polygon points="465,775 510,840 468.7,840" fill="#00000025"/><rect x="438" y="855" width="7" height="235" fill="#695647"/><rect x="451" y="865" width="17" height="30" fill="#475c5b"/><rect x="453" y="867" width="5" height="24" fill="#d2b477"/><rect x="456" y="855" width="7" height="235" fill="#695647"/><rect x="482.82" y="865" width="17" height="30" fill="#475c5b"/><rect x="484.82" y="867" width="5" height="24" fill="#d2b477"/><rect x="474" y="855" width="7" height="235" fill="#695647"/><rect x="428" y="905" width="74" height="7" fill="#695647"/><path d="M438 905L461.3 1085M492 905L468.7 1085" fill="none" stroke="#89705b" stroke-width="5" stroke-linecap="round" stroke-linejoin="round"/><rect x="506" y="793" width="74" height="297" fill="#b4c7ba"/><polygon points="557.8,793 580,793 580,1090 557.8,1090" fill="#00000020"/><polygon points="498,793 543,728 588,793" fill="#8a5960"/><polygon points="543,728 588,793 546.7,793" fill="#00000025"/><rect x="516" y="808" width="7" height="282" fill="#695647"/><rect x="529" y="818" width="17" height="30" fill="#475c5b"/><rect x="531" y="820" width="5" height="24" fill="#d2b477"/><rect x="534" y="808" width="7" height="282" fill="#695647"/><rect x="560.82" y="818" width="17" height="30" fill="#475c5b"/><rect x="562.82" y="820" width="5" height="24" fill="#d2b477"/><rect x="552" y="808" width="7" height="282" fill="#695647"/><rect x="506" y="858" width="74" height="7" fill="#695647"/><path d="M516 858L539.3 1085M570 858L546.7 1085" fill="none" stroke="#89705b" stroke-width="5" stroke-linecap="round" stroke-linejoin="round"/><rect x="584" y="866" width="74" height="224" fill="#d4aa7d"/><polygon points="635.8,866 658,866 658,1090 635.8,1090" fill="#00000020"/><polygon points="576,866 621,801 666,866" fill="#526778"/><polygon points="621,801 666,866 624.7,866" fill="#00000025"/><rect x="594" y="881" width="7" height="209" fill="#695647"/><rect x="607" y="891" width="17" height="30" fill="#475c5b"/><rect x="609" y="893" width="5" height="24" fill="#d2b477"/><rect x="612" y="881" width="7" height="209" fill="#695647"/><rect x="638.82" y="891" width="17" height="30" fill="#475c5b"/><rect x="640.82" y="893" width="5" height="24" fill="#d2b477"/><rect x="630" y="881" width="7" height="209" fill="#695647"/><rect x="584" y="931" width="74" height="7" fill="#695647"/><path d="M594 931L617.3 1085M648 931L624.7 1085" fill="none" stroke="#89705b" stroke-width="5" stroke-linecap="round" stroke-linejoin="round"/><rect x="662" y="819" width="74" height="271" fill="#b9bea1"/><polygon points="713.8,819 736,819 736,1090 713.8,1090" fill="#00000020"/><polygon points="654,819 699,754 744,819" fill="#77625f"/><polygon points="699,754 744,819 702.7,819" fill="#00000025"/><rect x="672" y="834" width="7" height="256" fill="#695647"/><rect x="685" y="844" width="17" height="30" fill="#475c5b"/><rect x="687" y="846" width="5" height="24" fill="#d2b477"/><rect x="690" y="834" width="7" height="256" fill="#695647"/><rect x="716.82" y="844" width="17" height="30" fill="#475c5b"/><rect x="718.82" y="846" width="5" height="24" fill="#d2b477"/><rect x="708" y="834" width="7" height="256" fill="#695647"/><rect x="662" y="884" width="74" height="7" fill="#695647"/><path d="M672 884L695.3 1085M726 884L702.7 1085" fill="none" stroke="#89705b" stroke-width="5" stroke-linecap="round" stroke-linejoin="round"/><rect x="740" y="772" width="74" height="318" fill="#cba28b"/><polygon points="791.8,772 814,772 814,1090 791.8,1090" fill="#00000020"/><polygon points="732,772 777,707 822,772" fill="#8a5960"/><polygon points="777,707 822,772 780.7,772" fill="#00000025"/><rect x="750" y="787" width="7" height="303" fill="#695647"/><rect x="763" y="797" width="17" height="30" fill="#475c5b"/><rect x="765" y="799" width="5" height="24" fill="#d2b477"/><rect x="768" y="787" width="7" height="303" fill="#695647"/><rect x="794.82" y="797" width="17" height="30" fill="#475c5b"/><rect x="796.82" y="799" width="5" height="24" fill="#d2b477"/><rect x="786" y="787" width="7" height="303" fill="#695647"/><rect x="740" y="837" width="74" height="7" fill="#695647"/><path d="M750 837L773.3 1085M804 837L780.7 1085" fill="none" stroke="#89705b" stroke-width="5" stroke-linecap="round" stroke-linejoin="round"/><rect x="818" y="845" width="74" height="245" fill="#b4c7ba"/><polygon points="869.8,845 892,845 892,1090 869.8,1090" fill="#00000020"/><polygon points="810,845 855,780 900,845" fill="#526778"/><polygon points="855,780 900,845 858.7,845" fill="#00000025"/><rect x="828" y="860" width="7" height="230" fill="#695647"/><rect x="841" y="870" width="17" height="30" fill="#475c5b"/><rect x="843" y="872" width="5" height="24" fill="#d2b477"/><rect x="846" y="860" width="7" height="230" fill="#695647"/><rect x="872.82" y="870" width="17" height="30" fill="#475c5b"/><rect x="874.82" y="872" width="5" height="24" fill="#d2b477"/><rect x="864" y="860" width="7" height="230" fill="#695647"/><rect x="818" y="910" width="74" height="7" fill="#695647"/><path d="M828 910L851.3 1085M882 910L858.7 1085" fill="none" stroke="#89705b" stroke-width="5" stroke-linecap="round" stroke-linejoin="round"/><polygon points="0,965 800,915 800,1080 0,1080" fill="#5b929a"/><path d="M0 982l65 -4" fill="none" stroke="#b0c9bd" stroke-width="3" stroke-linecap="round" stroke-linejoin="round"/><path d="M105 1007l65 -4" fill="none" stroke="#b0c9bd" stroke-width="3" stroke-linecap="round" stroke-linejoin="round"/><path d="M210 1032l65 -4" fill="none" stroke="#b0c9bd" stroke-width="3" stroke-linecap="round" stroke-linejoin="round"/><path d="M315 982l65 -4" fill="none" stroke="#b0c9bd" stroke-width="3" stroke-linecap="round" stroke-linejoin="round"/><path d="M420 1007l65 -4" fill="none" stroke="#b0c9bd" stroke-width="3" stroke-linecap="round" stroke-linejoin="round"/><path d="M525 1032l65 -4" fill="none" stroke="#b0c9bd" stroke-width="3" stroke-linecap="round" stroke-linejoin="round"/><path d="M630 982l65 -4" fill="none" stroke="#b0c9bd" stroke-width="3" stroke-linecap="round" stroke-linejoin="round"/><path d="M735 1007l65 -4" fill="none" stroke="#b0c9bd" stroke-width="3" stroke-linecap="round" stroke-linejoin="round"/><path d="M840 1032l65 -4" fill="none" stroke="#b0c9bd" stroke-width="3" stroke-linecap="round" stroke-linejoin="round"/><rect x="180" y="615" width="7" height="390" fill="#72594b"/><polygon points="187,640 187,930 315,925" fill="#e9d8b4"/><polygon points="173,680 173,916 105,916" fill="#bc8872"/><polygon points="85,980 323,980 285,1027 125,1027" fill="#5f4d45"/><rect x="355" y="650" width="7" height="390" fill="#72594b"/><polygon points="362,675 362,930 490,925" fill="#e9d8b4"/><polygon points="348,715 348,916 280,916" fill="#bc8872"/><polygon points="260,980 498,980 460,1027 300,1027" fill="#5f4d45"/><rect x="530" y="685" width="7" height="390" fill="#72594b"/><polygon points="537,710 537,930 665,925" fill="#e9d8b4"/><polygon points="523,750 523,916 455,916" fill="#bc8872"/><polygon points="435,980 673,980 635,1027 475,1027" fill="#5f4d45"/><rect x="-75" y="760" width="225" height="320" fill="#d4aa7d"/><polygon points="82.5,760 150,760 150,1080 82.5,1080" fill="#00000020"/><polygon points="-83,760 37.5,695 158,760" fill="#77625f"/><polygon points="37.5,695 158,760 48.750000000000014,760" fill="#00000025"/><rect x="-65" y="775" width="7" height="305" fill="#695647"/><rect x="-52" y="785" width="17" height="30" fill="#475c5b"/><rect x="-50" y="787" width="5" height="24" fill="#d2b477"/><rect x="3.3333333333333286" y="775" width="7" height="305" fill="#695647"/><rect x="44.75" y="785" width="17" height="30" fill="#475c5b"/><rect x="46.75" y="787" width="5" height="24" fill="#d2b477"/><rect x="71.66666666666666" y="775" width="7" height="305" fill="#695647"/><rect x="-75" y="825" width="225" height="7" fill="#695647"/><path d="M-65 825L26.25 1075M140 825L48.750000000000014 1075" fill="none" stroke="#89705b" stroke-width="5" stroke-linecap="round" stroke-linejoin="round"/><rect x="650" y="740" width="240" height="340" fill="#cba28b"/><polygon points="818,740 890,740 890,1080 818,1080" fill="#00000020"/><polygon points="642,740 770,675 898,740" fill="#526778"/><polygon points="770,675 898,740 782,740" fill="#00000025"/><rect x="660" y="755" width="7" height="325" fill="#695647"/><rect x="673" y="765" width="17" height="30" fill="#475c5b"/><rect x="675" y="767" width="5" height="24" fill="#d2b477"/><rect x="733.3333333333334" y="755" width="7" height="325" fill="#695647"/><rect x="776.2" y="765" width="17" height="30" fill="#475c5b"/><rect x="778.2" y="767" width="5" height="24" fill="#d2b477"/><rect x="806.6666666666666" y="755" width="7" height="325" fill="#695647"/><rect x="650" y="805" width="240" height="7" fill="#695647"/><path d="M660 805L758 1075M880 805L782 1075" fill="none" stroke="#89705b" stroke-width="5" stroke-linecap="round" stroke-linejoin="round"/><rect x="0" y="1080" width="800" height="22" fill="#ddbb85"/><rect x="0" y="1102" width="800" height="26" fill="#98735a"/><rect x="0" y="1128" width="800" height="72" fill="#665248"/><rect x="0" y="1110" width="3" height="84" fill="#423d39"/><polygon points="0,1110 64,1110 59,1115 4,1115" fill="#aa8865"/><rect x="72" y="1110" width="3" height="84" fill="#423d39"/><polygon points="72,1110 136,1110 131,1115 76,1115" fill="#aa8865"/><rect x="144" y="1110" width="3" height="84" fill="#423d39"/><polygon points="144,1110 208,1110 203,1115 148,1115" fill="#aa8865"/><rect x="216" y="1110" width="3" height="84" fill="#423d39"/><polygon points="216,1110 280,1110 275,1115 220,1115" fill="#aa8865"/><rect x="288" y="1110" width="3" height="84" fill="#423d39"/><polygon points="288,1110 352,1110 347,1115 292,1115" fill="#aa8865"/><rect x="360" y="1110" width="3" height="84" fill="#423d39"/><polygon points="360,1110 424,1110 419,1115 364,1115" fill="#aa8865"/><rect x="432" y="1110" width="3" height="84" fill="#423d39"/><polygon points="432,1110 496,1110 491,1115 436,1115" fill="#aa8865"/><rect x="504" y="1110" width="3" height="84" fill="#423d39"/><polygon points="504,1110 568,1110 563,1115 508,1115" fill="#aa8865"/><rect x="576" y="1110" width="3" height="84" fill="#423d39"/><polygon points="576,1110 640,1110 635,1115 580,1115" fill="#aa8865"/><rect x="648" y="1110" width="3" height="84" fill="#423d39"/><polygon points="648,1110 712,1110 707,1115 652,1115" fill="#aa8865"/><rect x="720" y="1110" width="3" height="84" fill="#423d39"/><polygon points="720,1110 784,1110 779,1115 724,1115" fill="#aa8865"/><rect x="792" y="1110" width="3" height="84" fill="#423d39"/><polygon points="792,1110 856,1110 851,1115 796,1115" fill="#aa8865"/><rect x="0" y="1200" width="800" height="400" fill="#697b72"/><polygon points="88,1210 146,1207 156,1226 95,1230" fill="#7e8d80"/><path d="M95 1230L151 1226" fill="none" stroke="#536c65" stroke-width="2" stroke-linecap="round" stroke-linejoin="round"/><polygon points="215,1210 273,1207 283,1226 222,1230" fill="#7e8d80"/><path d="M222 1230L278 1226" fill="none" stroke="#536c65" stroke-width="2" stroke-linecap="round" stroke-linejoin="round"/><polygon points="342,1210 400,1207 410,1226 349,1230" fill="#7e8d80"/><path d="M349 1230L405 1226" fill="none" stroke="#536c65" stroke-width="2" stroke-linecap="round" stroke-linejoin="round"/><polygon points="469,1210 527,1207 537,1226 476,1230" fill="#7e8d80"/><path d="M476 1230L532 1226" fill="none" stroke="#536c65" stroke-width="2" stroke-linecap="round" stroke-linejoin="round"/><polygon points="596,1210 654,1207 664,1226 603,1230" fill="#7e8d80"/><path d="M603 1230L659 1226" fill="none" stroke="#536c65" stroke-width="2" stroke-linecap="round" stroke-linejoin="round"/><polygon points="723,1210 781,1207 791,1226 730,1230" fill="#7e8d80"/><path d="M730 1230L786 1226" fill="none" stroke="#536c65" stroke-width="2" stroke-linecap="round" stroke-linejoin="round"/><polygon points="50,1210 108,1207 118,1226 57,1230" fill="#7e8d80"/><path d="M57 1230L113 1226" fill="none" stroke="#536c65" stroke-width="2" stroke-linecap="round" stroke-linejoin="round"/><polygon points="177,1210 235,1207 245,1226 184,1230" fill="#7e8d80"/><path d="M184 1230L240 1226" fill="none" stroke="#536c65" stroke-width="2" stroke-linecap="round" stroke-linejoin="round"/><polygon points="304,1210 362,1207 372,1226 311,1230" fill="#7e8d80"/><path d="M311 1230L367 1226" fill="none" stroke="#536c65" stroke-width="2" stroke-linecap="round" stroke-linejoin="round"/><polygon points="431,1210 489,1207 499,1226 438,1230" fill="#7e8d80"/><path d="M438 1230L494 1226" fill="none" stroke="#536c65" stroke-width="2" stroke-linecap="round" stroke-linejoin="round"/><polygon points="558,1273 616,1270 626,1289 565,1293" fill="#7e8d80"/><path d="M565 1293L621 1289" fill="none" stroke="#536c65" stroke-width="2" stroke-linecap="round" stroke-linejoin="round"/><polygon points="685,1273 743,1270 753,1289 692,1293" fill="#7e8d80"/><path d="M692 1293L748 1289" fill="none" stroke="#536c65" stroke-width="2" stroke-linecap="round" stroke-linejoin="round"/><polygon points="12,1273 70,1270 80,1289 19,1293" fill="#7e8d80"/><path d="M19 1293L75 1289" fill="none" stroke="#536c65" stroke-width="2" stroke-linecap="round" stroke-linejoin="round"/><polygon points="139,1273 197,1270 207,1289 146,1293" fill="#7e8d80"/><path d="M146 1293L202 1289" fill="none" stroke="#536c65" stroke-width="2" stroke-linecap="round" stroke-linejoin="round"/><polygon points="266,1273 324,1270 334,1289 273,1293" fill="#7e8d80"/><path d="M273 1293L329 1289" fill="none" stroke="#536c65" stroke-width="2" stroke-linecap="round" stroke-linejoin="round"/><polygon points="393,1273 451,1270 461,1289 400,1293" fill="#7e8d80"/><path d="M400 1293L456 1289" fill="none" stroke="#536c65" stroke-width="2" stroke-linecap="round" stroke-linejoin="round"/><polygon points="520,1273 578,1270 588,1289 527,1293" fill="#7e8d80"/><path d="M527 1293L583 1289" fill="none" stroke="#536c65" stroke-width="2" stroke-linecap="round" stroke-linejoin="round"/><polygon points="647,1273 705,1270 715,1289 654,1293" fill="#7e8d80"/><path d="M654 1293L710 1289" fill="none" stroke="#536c65" stroke-width="2" stroke-linecap="round" stroke-linejoin="round"/><polygon points="774,1273 832,1270 842,1289 781,1293" fill="#7e8d80"/><path d="M781 1293L837 1289" fill="none" stroke="#536c65" stroke-width="2" stroke-linecap="round" stroke-linejoin="round"/><polygon points="101,1273 159,1270 169,1289 108,1293" fill="#7e8d80"/><path d="M108 1293L164 1289" fill="none" stroke="#536c65" stroke-width="2" stroke-linecap="round" stroke-linejoin="round"/><polygon points="228,1336 286,1333 296,1352 235,1356" fill="#7e8d80"/><path d="M235 1356L291 1352" fill="none" stroke="#536c65" stroke-width="2" stroke-linecap="round" stroke-linejoin="round"/><polygon points="355,1336 413,1333 423,1352 362,1356" fill="#7e8d80"/><path d="M362 1356L418 1352" fill="none" stroke="#536c65" stroke-width="2" stroke-linecap="round" stroke-linejoin="round"/><polygon points="482,1336 540,1333 550,1352 489,1356" fill="#7e8d80"/><path d="M489 1356L545 1352" fill="none" stroke="#536c65" stroke-width="2" stroke-linecap="round" stroke-linejoin="round"/><polygon points="609,1336 667,1333 677,1352 616,1356" fill="#7e8d80"/><path d="M616 1356L672 1352" fill="none" stroke="#536c65" stroke-width="2" stroke-linecap="round" stroke-linejoin="round"/><polygon points="736,1336 794,1333 804,1352 743,1356" fill="#7e8d80"/><path d="M743 1356L799 1352" fill="none" stroke="#536c65" stroke-width="2" stroke-linecap="round" stroke-linejoin="round"/><polygon points="63,1336 121,1333 131,1352 70,1356" fill="#7e8d80"/><path d="M70 1356L126 1352" fill="none" stroke="#536c65" stroke-width="2" stroke-linecap="round" stroke-linejoin="round"/><polygon points="190,1336 248,1333 258,1352 197,1356" fill="#7e8d80"/><path d="M197 1356L253 1352" fill="none" stroke="#536c65" stroke-width="2" stroke-linecap="round" stroke-linejoin="round"/><polygon points="317,1336 375,1333 385,1352 324,1356" fill="#7e8d80"/><path d="M324 1356L380 1352" fill="none" stroke="#536c65" stroke-width="2" stroke-linecap="round" stroke-linejoin="round"/><polygon points="444,1336 502,1333 512,1352 451,1356" fill="#7e8d80"/><path d="M451 1356L507 1352" fill="none" stroke="#536c65" stroke-width="2" stroke-linecap="round" stroke-linejoin="round"/><polygon points="571,1336 629,1333 639,1352 578,1356" fill="#7e8d80"/><path d="M578 1356L634 1352" fill="none" stroke="#536c65" stroke-width="2" stroke-linecap="round" stroke-linejoin="round"/><polygon points="698,1399 756,1396 766,1415 705,1419" fill="#7e8d80"/><path d="M705 1419L761 1415" fill="none" stroke="#536c65" stroke-width="2" stroke-linecap="round" stroke-linejoin="round"/><polygon points="25,1399 83,1396 93,1415 32,1419" fill="#7e8d80"/><path d="M32 1419L88 1415" fill="none" stroke="#536c65" stroke-width="2" stroke-linecap="round" stroke-linejoin="round"/><polygon points="152,1399 210,1396 220,1415 159,1419" fill="#7e8d80"/><path d="M159 1419L215 1415" fill="none" stroke="#536c65" stroke-width="2" stroke-linecap="round" stroke-linejoin="round"/><polygon points="279,1399 337,1396 347,1415 286,1419" fill="#7e8d80"/><path d="M286 1419L342 1415" fill="none" stroke="#536c65" stroke-width="2" stroke-linecap="round" stroke-linejoin="round"/><polygon points="406,1399 464,1396 474,1415 413,1419" fill="#7e8d80"/><path d="M413 1419L469 1415" fill="none" stroke="#536c65" stroke-width="2" stroke-linecap="round" stroke-linejoin="round"/><polygon points="533,1399 591,1396 601,1415 540,1419" fill="#7e8d80"/><path d="M540 1419L596 1415" fill="none" stroke="#536c65" stroke-width="2" stroke-linecap="round" stroke-linejoin="round"/><polygon points="660,1399 718,1396 728,1415 667,1419" fill="#7e8d80"/><path d="M667 1419L723 1415" fill="none" stroke="#536c65" stroke-width="2" stroke-linecap="round" stroke-linejoin="round"/><polygon points="787,1399 845,1396 855,1415 794,1419" fill="#7e8d80"/><path d="M794 1419L850 1415" fill="none" stroke="#536c65" stroke-width="2" stroke-linecap="round" stroke-linejoin="round"/><polygon points="114,1399 172,1396 182,1415 121,1419" fill="#7e8d80"/><path d="M121 1419L177 1415" fill="none" stroke="#536c65" stroke-width="2" stroke-linecap="round" stroke-linejoin="round"/><polygon points="241,1399 299,1396 309,1415 248,1419" fill="#7e8d80"/><path d="M248 1419L304 1415" fill="none" stroke="#536c65" stroke-width="2" stroke-linecap="round" stroke-linejoin="round"/><polygon points="368,1462 426,1459 436,1478 375,1482" fill="#7e8d80"/><path d="M375 1482L431 1478" fill="none" stroke="#536c65" stroke-width="2" stroke-linecap="round" stroke-linejoin="round"/><polygon points="495,1462 553,1459 563,1478 502,1482" fill="#7e8d80"/><path d="M502 1482L558 1478" fill="none" stroke="#536c65" stroke-width="2" stroke-linecap="round" stroke-linejoin="round"/><polygon points="622,1462 680,1459 690,1478 629,1482" fill="#7e8d80"/><path d="M629 1482L685 1478" fill="none" stroke="#536c65" stroke-width="2" stroke-linecap="round" stroke-linejoin="round"/><polygon points="749,1462 807,1459 817,1478 756,1482" fill="#7e8d80"/><path d="M756 1482L812 1478" fill="none" stroke="#536c65" stroke-width="2" stroke-linecap="round" stroke-linejoin="round"/><polygon points="76,1462 134,1459 144,1478 83,1482" fill="#7e8d80"/><path d="M83 1482L139 1478" fill="none" stroke="#536c65" stroke-width="2" stroke-linecap="round" stroke-linejoin="round"/><polygon points="203,1462 261,1459 271,1478 210,1482" fill="#7e8d80"/><path d="M210 1482L266 1478" fill="none" stroke="#536c65" stroke-width="2" stroke-linecap="round" stroke-linejoin="round"/><polygon points="330,1462 388,1459 398,1478 337,1482" fill="#7e8d80"/><path d="M337 1482L393 1478" fill="none" stroke="#536c65" stroke-width="2" stroke-linecap="round" stroke-linejoin="round"/><polygon points="457,1462 515,1459 525,1478 464,1482" fill="#7e8d80"/><path d="M464 1482L520 1478" fill="none" stroke="#536c65" stroke-width="2" stroke-linecap="round" stroke-linejoin="round"/><polygon points="584,1462 642,1459 652,1478 591,1482" fill="#7e8d80"/><path d="M591 1482L647 1478" fill="none" stroke="#536c65" stroke-width="2" stroke-linecap="round" stroke-linejoin="round"/><polygon points="711,1462 769,1459 779,1478 718,1482" fill="#7e8d80"/><path d="M718 1482L774 1478" fill="none" stroke="#536c65" stroke-width="2" stroke-linecap="round" stroke-linejoin="round"/><polygon points="38,1525 96,1522 106,1541 45,1545" fill="#7e8d80"/><path d="M45 1545L101 1541" fill="none" stroke="#536c65" stroke-width="2" stroke-linecap="round" stroke-linejoin="round"/><polygon points="165,1525 223,1522 233,1541 172,1545" fill="#7e8d80"/><path d="M172 1545L228 1541" fill="none" stroke="#536c65" stroke-width="2" stroke-linecap="round" stroke-linejoin="round"/><polygon points="292,1525 350,1522 360,1541 299,1545" fill="#7e8d80"/><path d="M299 1545L355 1541" fill="none" stroke="#536c65" stroke-width="2" stroke-linecap="round" stroke-linejoin="round"/><polygon points="419,1525 477,1522 487,1541 426,1545" fill="#7e8d80"/><path d="M426 1545L482 1541" fill="none" stroke="#536c65" stroke-width="2" stroke-linecap="round" stroke-linejoin="round"/><polygon points="546,1525 604,1522 614,1541 553,1545" fill="#7e8d80"/><path d="M553 1545L609 1541" fill="none" stroke="#536c65" stroke-width="2" stroke-linecap="round" stroke-linejoin="round"/><polygon points="673,1525 731,1522 741,1541 680,1545" fill="#7e8d80"/><path d="M680 1545L736 1541" fill="none" stroke="#536c65" stroke-width="2" stroke-linecap="round" stroke-linejoin="round"/><polygon points="0,1525 58,1522 68,1541 7,1545" fill="#7e8d80"/><path d="M7 1545L63 1541" fill="none" stroke="#536c65" stroke-width="2" stroke-linecap="round" stroke-linejoin="round"/><polygon points="127,1525 185,1522 195,1541 134,1545" fill="#7e8d80"/><path d="M134 1545L190 1541" fill="none" stroke="#536c65" stroke-width="2" stroke-linecap="round" stroke-linejoin="round"/><polygon points="254,1525 312,1522 322,1541 261,1545" fill="#7e8d80"/><path d="M261 1545L317 1541" fill="none" stroke="#536c65" stroke-width="2" stroke-linecap="round" stroke-linejoin="round"/><polygon points="381,1525 439,1522 449,1541 388,1545" fill="#7e8d80"/><path d="M388 1545L444 1541" fill="none" stroke="#536c65" stroke-width="2" stroke-linecap="round" stroke-linejoin="round"/></svg>