<svg xmlns="http://www.w3.org/2000/svg" width="800" height="1600" viewBox="0 0 800 1600"><rect x="-45" y="908" width="66" height="172" fill="#76938b"/><polygon points="-50,908 -12,868 26,908" fill="#4d706a"/><rect x="25" y="855" width="66" height="225" fill="#76938b"/><polygon points="20,855 58,815 96,855" fill="#4d706a"/><rect x="95" y="802" width="66" height="278" fill="#76938b"/><polygon points="90,802 128,762 166,802" fill="#4d706a"/><rect x="165" y="969" width="66" height="111" fill="#76938b"/><polygon points="160,969 198,929 236,969" fill="#4d706a"/><rect x="235" y="916" width="66" height="164" fill="#76938b"/><polygon points="230,916 268,876 306,916" fill="#4d706a"/><rect x="305" y="863" width="66" height="217" fill="#76938b"/><polygon points="300,863 338,823 376,863" fill="#4d706a"/><rect x="375" y="810" width="66" height="270" fill="#76938b"/><polygon points="370,810 408,770 446,810" fill="#4d706a"/><rect x="445" y="757" width="66" height="323" fill="#76938b"/><polygon points="440,757 478,717 516,757" fill="#4d706a"/><rect x="515" y="924" width="66" height="156" fill="#76938b"/><polygon points="510,924 548,884 586,924" fill="#4d706a"/><rect x="585" y="871" width="66" height="209" fill="#76938b"/><polygon points="580,871 618,831 656,871" fill="#4d706a"/><rect x="655" y="818" width="66" height="262" fill="#76938b"/><polygon points="650,818 688,778 726,818" fill="#4d706a"/><rect x="725" y="765" width="66" height="315" fill="#76938b"/><polygon points="720,765 758,725 796,765" fill="#4d706a"/><rect x="795" y="932" width="66" height="148" fill="#76938b"/><polygon points="790,932 828,892 866,932" fill="#4d706a"/><rect x="400" y="530" width="100" height="440" fill="#d5ad57"/><polygon points="390,530 450,440 510,530" fill="#25343b"/><rect x="420" y="570" width="18" height="55" fill="#d4ba80"/><rect x="460" y="570" width="18" height="55" fill="#d4ba80"/><rect x="420" y="670" width="18" height="55" fill="#d4ba80"/><rect x="460" y="670" width="18" height="55" fill="#d4ba80"/><rect x="-80" y="680" width="220" height="400" fill="#b68d61"/><polygon points="-100,680 20,560 160,680" fill="#25343b"/><rect x="-55" y="680" width="9" height="400" fill="#25343b"/><rect x="-70" y="820" width="210" height="12" fill="#25343b"/><rect x="10" y="680" width="9" height="400" fill="#25343b"/><rect x="-70" y="820" width="210" height="12" fill="#25343b"/><rect x="75" y="680" width="9" height="400" fill="#25343b"/><rect x="-70" y="820" width="210" height="12" fill="#25343b"/><rect x="640" y="680" width="220" height="400" fill="#b68d61"/><polygon points="620,680 740,560 880,680" fill="#25343b"/><rect x="665" y="680" width="9" height="400" fill="#25343b"/><rect x="650" y="820" width="210" height="12" fill="#25343b"/><rect x="730" y="680" width="9" height="400" fill="#25343b"/><rect x="650" y="820" width="210" height="12" fill="#25343b"/><rect x="795" y="680" width="9" height="400" fill="#25343b"/><rect x="650" y="820" width="210" height="12" fill="#25343b"/><rect x="0" y="1080" width="800" height="520" fill="#52605b"/><rect x="0" y="1080" width="800" height="20" fill="#c1a379"/><rect x="0" y="1100" width="800" height="100" fill="#554539"/><rect x="0" y="1110" width="12" height="90" fill="#332f2d"/><rect x="110" y="1110" width="12" height="90" fill="#332f2d"/><rect x="220" y="1110" width="12" height="90" fill="#332f2d"/><rect x="330" y="1110" width="12" height="90" fill="#332f2d"/><rect x="440" y="1110" width="12" height="90" fill="#332f2d"/><rect x="550" y="1110" width="12" height="90" fill="#332f2d"/><rect x="660" y="1110" width="12" height="90" fill="#332f2d"/><rect x="770" y="1110" width="12" height="90" fill="#332f2d"/><polygon points="0,1210 800,1205 800,1212 0,1217" fill="#68706a"/><polygon points="0,1254 800,1249 800,1256 0,1261" fill="#68706a"/><polygon points="0,1298 800,1293 800,1300 0,1305" fill="#68706a"/><polygon points="0,1342 800,1337 800,1344 0,1349" fill="#68706a"/><polygon points="0,1386 800,1381 800,1388 0,1393" fill="#68706a"/><polygon points="0,1430 800,1425 800,1432 0,1437" fill="#68706a"/><polygon points="0,1474 800,1469 800,1476 0,1481" fill="#68706a"/><polygon points="0,1518 800,1513 800,1520 0,1525" fill="#68706a"/><polygon points="0,1562 800,1557 800,1564 0,1569" fill="#68706a"/></svg>