<svg xmlns="http://www.w3.org/2000/svg" width="800" height="1600" viewBox="0 0 800 1600"><polygon points="0,850 120,740 230,810 400,720 570,810 710,760 800,830 800,1080 0,1080" fill="#9bafa0"/><rect x="205" y="760" width="108" height="210" fill="#b9b89c"/><polygon points="200,760 259,699 318,760" fill="#647579"/><rect x="320" y="795" width="108" height="175" fill="#b9b89c"/><polygon points="315,795 374,734 433,795" fill="#647579"/><rect x="435" y="760" width="108" height="210" fill="#b9b89c"/><polygon points="430,760 489,699 548,760" fill="#647579"/><rect x="525" y="620" width="70" height="350" fill="#b9b89c"/><polygon points="572.6,620 595,620 595,970 572.6,970" fill="#00000022"/><polygon points="519,620 560,490 601,620" fill="#526778"/><rect x="540.4" y="642" width="12.6" height="30" fill="#455c60"/><rect x="566.3" y="642" width="9.1" height="30" fill="#455c60"/><polygon points="540.4,642 546.7,633 553,642" fill="#455c60"/><path d="M539 675h16.1 M564.2 675h14" fill="none" stroke="#e4d5b9" stroke-width="2" stroke-linecap="round" stroke-linejoin="round"/><rect x="528" y="634" width="7" height="18" fill="#ffffff20"/><path d="M537 686h48" fill="none" stroke="#00000016" stroke-width="2" stroke-linecap="round" stroke-linejoin="round"/><rect x="540.4" y="707" width="12.6" height="30" fill="#455c60"/><rect x="566.3" y="707" width="9.1" height="30" fill="#455c60"/><polygon points="540.4,707 546.7,698 553,707" fill="#455c60"/><path d="M539 740h16.1 M564.2 740h14" fill="none" stroke="#e4d5b9" stroke-width="2" stroke-linecap="round" stroke-linejoin="round"/><rect x="528" y="699" width="7" height="18" fill="#ffffff20"/><path d="M537 751h48" fill="none" stroke="#00000016" stroke-width="2" stroke-linecap="round" stroke-linejoin="round"/><rect x="540.4" y="772" width="12.6" height="30" fill="#455c60"/><rect x="566.3" y="772" width="9.1" height="30" fill="#455c60"/><polygon points="540.4,772 546.7,763 553,772" fill="#455c60"/><path d="M539 805h16.1 M564.2 805h14" fill="none" stroke="#e4d5b9" stroke-width="2" stroke-linecap="round" stroke-linejoin="round"/><rect x="528" y="764" width="7" height="18" fill="#ffffff20"/><path d="M537 816h48" fill="none" stroke="#00000016" stroke-width="2" stroke-linecap="round" stroke-linejoin="round"/><rect x="540.4" y="837" width="12.6" height="30" fill="#455c60"/><rect x="566.3" y="837" width="9.1" height="30" fill="#455c60"/><polygon points="540.4,837 546.7,828 553,837" fill="#455c60"/><path d="M539 870h16.1 M564.2 870h14" fill="none" stroke="#e4d5b9" stroke-width="2" stroke-linecap="round" stroke-linejoin="round"/><rect x="528" y="829" width="7" height="18" fill="#ffffff20"/><path d="M537 881h48" fill="none" stroke="#00000016" stroke-width="2" stroke-linecap="round" stroke-linejoin="round"/><rect x="540.4" y="902" width="12.6" height="30" fill="#455c60"/><rect x="566.3" y="902" width="9.1" height="30" fill="#455c60"/><polygon points="540.4,902 546.7,893 553,902" fill="#455c60"/><path d="M539 935h16.1 M564.2 935h14" fill="none" stroke="#e4d5b9" stroke-width="2" stroke-linecap="round" stroke-linejoin="round"/><rect x="528" y="894" width="7" height="18" fill="#ffffff20"/><path d="M537 946h48" fill="none" stroke="#00000016" stroke-width="2" stroke-linecap="round" stroke-linejoin="round"/><rect x="-40" y="878" width="74" height="122" fill="#d4aa7d"/><polygon points="11.799999999999997,878 34,878 34,1000 11.799999999999997,1000" fill="#00000020"/><polygon points="-48,878 -3,813 42,878" fill="#8a5960"/><polygon points="-3,813 42,878 0.7000000000000028,878" fill="#00000025"/><path d="M-3 825L-3 870M-21.5 870L-3 840L15.5 870" fill="none" stroke="#5b524a" stroke-width="4" stroke-linecap="round" stroke-linejoin="round"/><rect x="-40.04" y="878" width="6" height="122" fill="#695647"/><rect x="-6" y="878" width="6" height="122" fill="#695647"/><rect x="28.039999999999992" y="878" width="6" height="122" fill="#695647"/><rect x="-40" y="878" width="74" height="6" fill="#695647"/><rect x="-40" y="941.44" width="74" height="6" fill="#695647"/><rect x="-40" y="994" width="74" height="6" fill="#695647"/><rect x="-31.9" y="886" width="22.28" height="42" fill="#765e49"/><rect x="-28.9" y="888" width="16.28" height="38" fill="#415955"/><rect x="-25.9" y="891" width="5.698" height="32" fill="#d2b477"/><rect x="-20.9228" y="888" width="2" height="38" fill="#765e49"/><rect x="-32.9" y="926" width="24.28" height="3" fill="#dac292"/><rect x="3.6199999999999974" y="886" width="22.28" height="42" fill="#765e49"/><rect x="6.619999999999997" y="888" width="16.28" height="38" fill="#415955"/><rect x="9.619999999999997" y="891" width="5.698" height="32" fill="#d2b477"/><rect x="14.597199999999997" y="888" width="2" height="38" fill="#765e49"/><rect x="2.6199999999999974" y="926" width="24.28" height="3" fill="#dac292"/><path d="M-34.08 953.44L-7.439999999999998 988" fill="none" stroke="#89705b" stroke-width="4" stroke-linecap="round" stroke-linejoin="round"/><rect x="8.840000000000003" y="951.44" width="12.58" height="42.559999999999945" fill="#725948"/><rect x="10.32" y="954.44" width="3" height="36.559999999999945" fill="#ad8860"/><rect x="38" y="831" width="74" height="169" fill="#b9bea1"/><polygon points="89.8,831 112,831 112,1000 89.8,1000" fill="#00000020"/><polygon points="30,831 75,766 120,831" fill="#526778"/><polygon points="75,766 120,831 78.7,831" fill="#00000025"/><path d="M75 778L75 823M56.5 823L75 793L93.5 823" fill="none" stroke="#5b524a" stroke-width="4" stroke-linecap="round" stroke-linejoin="round"/><rect x="37.96" y="831" width="6" height="169" fill="#695647"/><rect x="72" y="831" width="6" height="169" fill="#695647"/><rect x="106.03999999999999" y="831" width="6" height="169" fill="#695647"/><rect x="38" y="831" width="74" height="6" fill="#695647"/><rect x="38" y="918.88" width="74" height="6" fill="#695647"/><rect x="38" y="994" width="74" height="6" fill="#695647"/><rect x="46.1" y="839" width="22.28" height="42" fill="#765e49"/><rect x="49.1" y="841" width="16.28" height="38" fill="#415955"/><rect x="52.1" y="844" width="5.698" height="32" fill="#d2b477"/><rect x="57.077200000000005" y="841" width="2" height="38" fill="#765e49"/><rect x="45.1" y="879" width="24.28" height="3" fill="#dac292"/><rect x="81.61999999999999" y="839" width="22.28" height="42" fill="#765e49"/><rect x="84.61999999999999" y="841" width="16.28" height="38" fill="#415955"/><rect x="87.61999999999999" y="844" width="5.698" height="32" fill="#d2b477"/><rect x="92.59719999999999" y="841" width="2" height="38" fill="#765e49"/><rect x="80.61999999999999" y="879" width="24.28" height="3" fill="#dac292"/><path d="M43.92 930.88L70.56 988" fill="none" stroke="#89705b" stroke-width="4" stroke-linecap="round" stroke-linejoin="round"/><rect x="86.84" y="928.88" width="12.58" height="65.12" fill="#725948"/><rect x="88.32" y="931.88" width="3" height="59.120000000000005" fill="#ad8860"/><rect x="116" y="889" width="74" height="111" fill="#cba28b"/><polygon points="167.8,889 190,889 190,1000 167.8,1000" fill="#00000020"/><polygon points="108,889 153,824 198,889" fill="#77625f"/><polygon points="153,824 198,889 156.7,889" fill="#00000025"/><path d="M153 836L153 881M134.5 881L153 851L171.5 881" fill="none" stroke="#5b524a" stroke-width="4" stroke-linecap="round" stroke-linejoin="round"/><rect x="115.96" y="889" width="6" height="111" fill="#695647"/><rect x="150" y="889" width="6" height="111" fill="#695647"/><rect x="184.04" y="889" width="6" height="111" fill="#695647"/><rect x="116" y="889" width="74" height="6" fill="#695647"/><rect x="116" y="946.72" width="74" height="6" fill="#695647"/><rect x="116" y="994" width="74" height="6" fill="#695647"/><rect x="124.10000000000001" y="897" width="22.28" height="42" fill="#765e49"/><rect x="127.10000000000001" y="899" width="16.28" height="38" fill="#415955"/><rect x="130.10000000000002" y="902" width="5.698" height="32" fill="#d2b477"/><rect x="135.0772" y="899" width="2" height="38" fill="#765e49"/><rect x="123.10000000000001" y="937" width="24.28" height="3" fill="#dac292"/><rect x="159.62" y="897" width="22.28" height="42" fill="#765e49"/><rect x="162.62" y="899" width="16.28" height="38" fill="#415955"/><rect x="165.62" y="902" width="5.698" height="32" fill="#d2b477"/><rect x="170.59720000000002" y="899" width="2" height="38" fill="#765e49"/><rect x="158.62" y="937" width="24.28" height="3" fill="#dac292"/><path d="M121.92 958.72L148.56 988" fill="none" stroke="#89705b" stroke-width="4" stroke-linecap="round" stroke-linejoin="round"/><rect x="164.84" y="956.72" width="12.58" height="37.27999999999997" fill="#725948"/><rect x="166.32" y="959.72" width="3" height="31.279999999999973" fill="#ad8860"/><rect x="194" y="842" width="74" height="158" fill="#b4c7ba"/><polygon points="245.8,842 268,842 268,1000 245.8,1000" fill="#00000020"/><polygon points="186,842 231,777 276,842" fill="#8a5960"/><polygon points="231,777 276,842 234.7,842" fill="#00000025"/><path d="M231 789L231 834M212.5 834L231 804L249.5 834" fill="none" stroke="#5b524a" stroke-width="4" stroke-linecap="round" stroke-linejoin="round"/><rect x="193.96" y="842" width="6" height="158" fill="#695647"/><rect x="228" y="842" width="6" height="158" fill="#695647"/><rect x="262.03999999999996" y="842" width="6" height="158" fill="#695647"/><rect x="194" y="842" width="74" height="6" fill="#695647"/><rect x="194" y="924.16" width="74" height="6" fill="#695647"/><rect x="194" y="994" width="74" height="6" fill="#695647"/><rect x="202.10000000000002" y="850" width="22.28" height="42" fill="#765e49"/><rect x="205.10000000000002" y="852" width="16.28" height="38" fill="#415955"/><rect x="208.10000000000002" y="855" width="5.698" height="32" fill="#d2b477"/><rect x="213.07720000000003" y="852" width="2" height="38" fill="#765e49"/><rect x="201.10000000000002" y="890" width="24.28" height="3" fill="#dac292"/><rect x="237.62" y="850" width="22.28" height="42" fill="#765e49"/><rect x="240.62" y="852" width="16.28" height="38" fill="#415955"/><rect x="243.62" y="855" width="5.698" height="32" fill="#d2b477"/><rect x="248.59720000000002" y="852" width="2" height="38" fill="#765e49"/><rect x="236.62" y="890" width="24.28" height="3" fill="#dac292"/><path d="M199.92 936.16L226.56 988" fill="none" stroke="#89705b" stroke-width="4" stroke-linecap="round" stroke-linejoin="round"/><rect x="242.84" y="934.16" width="12.58" height="59.84000000000003" fill="#725948"/><rect x="244.32" y="937.16" width="3" height="53.84000000000003" fill="#ad8860"/><rect x="272" y="900" width="74" height="100" fill="#d4aa7d"/><polygon points="323.8,900 346,900 346,1000 323.8,1000" fill="#00000020"/><polygon points="264,900 309,835 354,900" fill="#526778"/><polygon points="309,835 354,900 312.7,900" fill="#00000025"/><path d="M309 847L309 892M290.5 892L309 862L327.5 892" fill="none" stroke="#5b524a" stroke-width="4" stroke-linecap="round" stroke-linejoin="round"/><rect x="271.96" y="900" width="6" height="100" fill="#695647"/><rect x="306" y="900" width="6" height="100" fill="#695647"/><rect x="340.03999999999996" y="900" width="6" height="100" fill="#695647"/><rect x="272" y="900" width="74" height="6" fill="#695647"/><rect x="272" y="952" width="74" height="6" fill="#695647"/><rect x="272" y="994" width="74" height="6" fill="#695647"/><rect x="280.1" y="908" width="22.28" height="38" fill="#765e49"/><rect x="283.1" y="910" width="16.28" height="34" fill="#415955"/><rect x="286.1" y="913" width="5.698" height="28" fill="#d2b477"/><rect x="291.0772" y="910" width="2" height="34" fill="#765e49"/><rect x="279.1" y="944" width="24.28" height="3" fill="#dac292"/><rect x="315.62" y="908" width="22.28" height="38" fill="#765e49"/><rect x="318.62" y="910" width="16.28" height="34" fill="#415955"/><rect x="321.62" y="913" width="5.698" height="28" fill="#d2b477"/><rect x="326.5972" y="910" width="2" height="34" fill="#765e49"/><rect x="314.62" y="944" width="24.28" height="3" fill="#dac292"/><path d="M277.92 964L304.56 988" fill="none" stroke="#89705b" stroke-width="4" stroke-linecap="round" stroke-linejoin="round"/><rect x="320.84000000000003" y="962" width="12.58" height="32" fill="#725948"/><rect x="322.32" y="965" width="3" height="26" fill="#ad8860"/><rect x="350" y="853" width="74" height="147" fill="#b9bea1"/><polygon points="401.8,853 424,853 424,1000 401.8,1000" fill="#00000020"/><polygon points="342,853 387,788 432,853" fill="#77625f"/><polygon points="387,788 432,853 390.7,853" fill="#00000025"/><path d="M387 800L387 845M368.5 845L387 815L405.5 845" fill="none" stroke="#5b524a" stroke-width="4" stroke-linecap="round" stroke-linejoin="round"/><rect x="349.96" y="853" width="6" height="147" fill="#695647"/><rect x="384" y="853" width="6" height="147" fill="#695647"/><rect x="418.03999999999996" y="853" width="6" height="147" fill="#695647"/><rect x="350" y="853" width="74" height="6" fill="#695647"/><rect x="350" y="929.44" width="74" height="6" fill="#695647"/><rect x="350" y="994" width="74" height="6" fill="#695647"/><rect x="358.1" y="861" width="22.28" height="42" fill="#765e49"/><rect x="361.1" y="863" width="16.28" height="38" fill="#415955"/><rect x="364.1" y="866" width="5.698" height="32" fill="#d2b477"/><rect x="369.0772" y="863" width="2" height="38" fill="#765e49"/><rect x="357.1" y="901" width="24.28" height="3" fill="#dac292"/><rect x="393.62" y="861" width="22.28" height="42" fill="#765e49"/><rect x="396.62" y="863" width="16.28" height="38" fill="#415955"/><rect x="399.62" y="866" width="5.698" height="32" fill="#d2b477"/><rect x="404.5972" y="863" width="2" height="38" fill="#765e49"/><rect x="392.62" y="901" width="24.28" height="3" fill="#dac292"/><path d="M355.92 941.44L382.56 988" fill="none" stroke="#89705b" stroke-width="4" stroke-linecap="round" stroke-linejoin="round"/><rect x="398.84000000000003" y="939.44" width="12.58" height="54.559999999999945" fill="#725948"/><rect x="400.32" y="942.44" width="3" height="48.559999999999945" fill="#ad8860"/><rect x="428" y="911" width="74" height="89" fill="#cba28b"/><polygon points="479.8,911 502,911 502,1000 479.8,1000" fill="#00000020"/><polygon points="420,911 465,846 510,911" fill="#8a5960"/><polygon points="465,846 510,911 468.7,911" fill="#00000025"/><path d="M465 858L465 903M446.5 903L465 873L483.5 903" fill="none" stroke="#5b524a" stroke-width="4" stroke-linecap="round" stroke-linejoin="round"/><rect x="427.96" y="911" width="6" height="89" fill="#695647"/><rect x="462" y="911" width="6" height="89" fill="#695647"/><rect x="496.03999999999996" y="911" width="6" height="89" fill="#695647"/><rect x="428" y="911" width="74" height="6" fill="#695647"/><rect x="428" y="957.28" width="74" height="6" fill="#695647"/><rect x="428" y="994" width="74" height="6" fill="#695647"/><rect x="436.1" y="919" width="22.28" height="32.28" fill="#765e49"/><rect x="439.1" y="921" width="16.28" height="28.28" fill="#415955"/><rect x="442.1" y="924" width="5.698" height="22.28" fill="#d2b477"/><rect x="447.0772" y="921" width="2" height="28.28" fill="#765e49"/><rect x="435.1" y="949.28" width="24.28" height="3" fill="#dac292"/><rect x="471.62" y="919" width="22.28" height="32.28" fill="#765e49"/><rect x="474.62" y="921" width="16.28" height="28.28" fill="#415955"/><rect x="477.62" y="924" width="5.698" height="22.28" fill="#d2b477"/><rect x="482.5972" y="921" width="2" height="28.28" fill="#765e49"/><rect x="470.62" y="949.28" width="24.28" height="3" fill="#dac292"/><path d="M433.92 969.28L460.56 988" fill="none" stroke="#89705b" stroke-width="4" stroke-linecap="round" stroke-linejoin="round"/><rect x="476.84000000000003" y="967.28" width="12.58" height="26.720000000000027" fill="#725948"/><rect x="478.32" y="970.28" width="3" height="20.720000000000027" fill="#ad8860"/><rect x="506" y="864" width="74" height="136" fill="#b4c7ba"/><polygon points="557.8,864 580,864 580,1000 557.8,1000" fill="#00000020"/><polygon points="498,864 543,799 588,864" fill="#526778"/><polygon points="543,799 588,864 546.7,864" fill="#00000025"/><path d="M543 811L543 856M524.5 856L543 826L561.5 856" fill="none" stroke="#5b524a" stroke-width="4" stroke-linecap="round" stroke-linejoin="round"/><rect x="505.96" y="864" width="6" height="136" fill="#695647"/><rect x="540" y="864" width="6" height="136" fill="#695647"/><rect x="574.04" y="864" width="6" height="136" fill="#695647"/><rect x="506" y="864" width="74" height="6" fill="#695647"/><rect x="506" y="934.72" width="74" height="6" fill="#695647"/><rect x="506" y="994" width="74" height="6" fill="#695647"/><rect x="514.1" y="872" width="22.28" height="42" fill="#765e49"/><rect x="517.1" y="874" width="16.28" height="38" fill="#415955"/><rect x="520.1" y="877" width="5.698" height="32" fill="#d2b477"/><rect x="525.0772000000001" y="874" width="2" height="38" fill="#765e49"/><rect x="513.1" y="912" width="24.28" height="3" fill="#dac292"/><rect x="549.62" y="872" width="22.28" height="42" fill="#765e49"/><rect x="552.62" y="874" width="16.28" height="38" fill="#415955"/><rect x="555.62" y="877" width="5.698" height="32" fill="#d2b477"/><rect x="560.5972" y="874" width="2" height="38" fill="#765e49"/><rect x="548.62" y="912" width="24.28" height="3" fill="#dac292"/><path d="M511.92 946.72L538.56 988" fill="none" stroke="#89705b" stroke-width="4" stroke-linecap="round" stroke-linejoin="round"/><rect x="554.84" y="944.72" width="12.58" height="49.27999999999997" fill="#725948"/><rect x="556.32" y="947.72" width="3" height="43.27999999999997" fill="#ad8860"/><rect x="584" y="922" width="74" height="78" fill="#d4aa7d"/><polygon points="635.8,922 658,922 658,1000 635.8,1000" fill="#00000020"/><polygon points="576,922 621,857 666,922" fill="#77625f"/><polygon points="621,857 666,922 624.7,922" fill="#00000025"/><path d="M621 869L621 914M602.5 914L621 884L639.5 914" fill="none" stroke="#5b524a" stroke-width="4" stroke-linecap="round" stroke-linejoin="round"/><rect x="583.96" y="922" width="6" height="78" fill="#695647"/><rect x="618" y="922" width="6" height="78" fill="#695647"/><rect x="652.04" y="922" width="6" height="78" fill="#695647"/><rect x="584" y="922" width="74" height="6" fill="#695647"/><rect x="584" y="962.56" width="74" height="6" fill="#695647"/><rect x="584" y="994" width="74" height="6" fill="#695647"/><rect x="592.1" y="930" width="22.28" height="26.560000000000002" fill="#765e49"/><rect x="595.1" y="932" width="16.28" height="22.560000000000002" fill="#415955"/><rect x="598.1" y="935" width="5.698" height="16.560000000000002" fill="#d2b477"/><rect x="603.0772000000001" y="932" width="2" height="22.560000000000002" fill="#765e49"/><rect x="591.1" y="954.56" width="24.28" height="3" fill="#dac292"/><rect x="627.62" y="930" width="22.28" height="26.560000000000002" fill="#765e49"/><rect x="630.62" y="932" width="16.28" height="22.560000000000002" fill="#415955"/><rect x="633.62" y="935" width="5.698" height="16.560000000000002" fill="#d2b477"/><rect x="638.5972" y="932" width="2" height="22.560000000000002" fill="#765e49"/><rect x="626.62" y="954.56" width="24.28" height="3" fill="#dac292"/><path d="M589.92 974.56L616.56 988" fill="none" stroke="#89705b" stroke-width="4" stroke-linecap="round" stroke-linejoin="round"/><rect x="632.84" y="972.56" width="12.58" height="21.440000000000055" fill="#725948"/><rect x="634.32" y="975.56" width="3" height="15.440000000000055" fill="#ad8860"/><rect x="662" y="875" width="74" height="125" fill="#b9bea1"/><polygon points="713.8,875 736,875 736,1000 713.8,1000" fill="#00000020"/><polygon points="654,875 699,810 744,875" fill="#8a5960"/><polygon points="699,810 744,875 702.7,875" fill="#00000025"/><path d="M699 822L699 867M680.5 867L699 837L717.5 867" fill="none" stroke="#5b524a" stroke-width="4" stroke-linecap="round" stroke-linejoin="round"/><rect x="661.96" y="875" width="6" height="125" fill="#695647"/><rect x="696" y="875" width="6" height="125" fill="#695647"/><rect x="730.04" y="875" width="6" height="125" fill="#695647"/><rect x="662" y="875" width="74" height="6" fill="#695647"/><rect x="662" y="940" width="74" height="6" fill="#695647"/><rect x="662" y="994" width="74" height="6" fill="#695647"/><rect x="670.1" y="883" width="22.28" height="42" fill="#765e49"/><rect x="673.1" y="885" width="16.28" height="38" fill="#415955"/><rect x="676.1" y="888" width="5.698" height="32" fill="#d2b477"/><rect x="681.0772000000001" y="885" width="2" height="38" fill="#765e49"/><rect x="669.1" y="923" width="24.28" height="3" fill="#dac292"/><rect x="705.62" y="883" width="22.28" height="42" fill="#765e49"/><rect x="708.62" y="885" width="16.28" height="38" fill="#415955"/><rect x="711.62" y="888" width="5.698" height="32" fill="#d2b477"/><rect x="716.5972" y="885" width="2" height="38" fill="#765e49"/><rect x="704.62" y="923" width="24.28" height="3" fill="#dac292"/><path d="M667.92 952L694.56 988" fill="none" stroke="#89705b" stroke-width="4" stroke-linecap="round" stroke-linejoin="round"/><rect x="710.84" y="950" width="12.58" height="44" fill="#725948"/><rect x="712.32" y="953" width="3" height="38" fill="#ad8860"/><rect x="740" y="933" width="74" height="67" fill="#cba28b"/><polygon points="791.8,933 814,933 814,1000 791.8,1000" fill="#00000020"/><polygon points="732,933 777,868 822,933" fill="#526778"/><polygon points="777,868 822,933 780.7,933" fill="#00000025"/><path d="M777 880L777 925M758.5 925L777 895L795.5 925" fill="none" stroke="#5b524a" stroke-width="4" stroke-linecap="round" stroke-linejoin="round"/><rect x="739.96" y="933" width="6" height="67" fill="#695647"/><rect x="774" y="933" width="6" height="67" fill="#695647"/><rect x="808.04" y="933" width="6" height="67" fill="#695647"/><rect x="740" y="933" width="74" height="6" fill="#695647"/><rect x="740" y="967.84" width="74" height="6" fill="#695647"/><rect x="740" y="994" width="74" height="6" fill="#695647"/><rect x="748.1" y="941" width="22.28" height="20.840000000000003" fill="#765e49"/><rect x="751.1" y="943" width="16.28" height="16.840000000000003" fill="#415955"/><rect x="754.1" y="946" width="5.698" height="10.840000000000003" fill="#d2b477"/><rect x="759.0772000000001" y="943" width="2" height="16.840000000000003" fill="#765e49"/><rect x="747.1" y="959.84" width="24.28" height="3" fill="#dac292"/><rect x="783.62" y="941" width="22.28" height="20.840000000000003" fill="#765e49"/><rect x="786.62" y="943" width="16.28" height="16.840000000000003" fill="#415955"/><rect x="789.62" y="946" width="5.698" height="10.840000000000003" fill="#d2b477"/><rect x="794.5972" y="943" width="2" height="16.840000000000003" fill="#765e49"/><rect x="782.62" y="959.84" width="24.28" height="3" fill="#dac292"/><path d="M745.92 979.84L772.56 988" fill="none" stroke="#89705b" stroke-width="4" stroke-linecap="round" stroke-linejoin="round"/><rect x="788.84" y="977.84" width="12.58" height="16.159999999999968" fill="#725948"/><rect x="790.32" y="980.84" width="3" height="10.159999999999968" fill="#ad8860"/><rect x="818" y="886" width="74" height="114" fill="#b4c7ba"/><polygon points="869.8,886 892,886 892,1000 869.8,1000" fill="#00000020"/><polygon points="810,886 855,821 900,886" fill="#77625f"/><polygon points="855,821 900,886 858.7,886" fill="#00000025"/><path d="M855 833L855 878M836.5 878L855 848L873.5 878" fill="none" stroke="#5b524a" stroke-width="4" stroke-linecap="round" stroke-linejoin="round"/><rect x="817.96" y="886" width="6" height="114" fill="#695647"/><rect x="852" y="886" width="6" height="114" fill="#695647"/><rect x="886.04" y="886" width="6" height="114" fill="#695647"/><rect x="818" y="886" width="74" height="6" fill="#695647"/><rect x="818" y="945.28" width="74" height="6" fill="#695647"/><rect x="818" y="994" width="74" height="6" fill="#695647"/><rect x="826.1" y="894" width="22.28" height="42" fill="#765e49"/><rect x="829.1" y="896" width="16.28" height="38" fill="#415955"/><rect x="832.1" y="899" width="5.698" height="32" fill="#d2b477"/><rect x="837.0772000000001" y="896" width="2" height="38" fill="#765e49"/><rect x="825.1" y="934" width="24.28" height="3" fill="#dac292"/><rect x="861.62" y="894" width="22.28" height="42" fill="#765e49"/><rect x="864.62" y="896" width="16.28" height="38" fill="#415955"/><rect x="867.62" y="899" width="5.698" height="32" fill="#d2b477"/><rect x="872.5972" y="896" width="2" height="38" fill="#765e49"/><rect x="860.62" y="934" width="24.28" height="3" fill="#dac292"/><path d="M823.92 957.28L850.56 988" fill="none" stroke="#89705b" stroke-width="4" stroke-linecap="round" stroke-linejoin="round"/><rect x="866.84" y="955.28" width="12.58" height="38.72000000000003" fill="#725948"/><rect x="868.32" y="958.28" width="3" height="32.72000000000003" fill="#ad8860"/><rect x="-75" y="760" width="225" height="240" fill="#d4aa7d"/><polygon points="82.5,760 150,760 150,1000 82.5,1000" fill="#00000020"/><polygon points="-83,760 37.5,695 158,760" fill="#8a5960"/><polygon points="37.5,695 158,760 48.750000000000014,760" fill="#00000025"/><path d="M37.5 707L37.5 752M-18.75 752L37.5 722L93.75 752" fill="none" stroke="#5b524a" stroke-width="4" stroke-linecap="round" stroke-linejoin="round"/><rect x="-69" y="760" width="6" height="240" fill="#695647"/><rect x="34.5" y="760" width="6" height="240" fill="#695647"/><rect x="138" y="760" width="6" height="240" fill="#695647"/><rect x="-75" y="760" width="225" height="6" fill="#695647"/><rect x="-75" y="884.8" width="225" height="6" fill="#695647"/><rect x="-75" y="994" width="225" height="6" fill="#695647"/><rect x="-36.5" y="768" width="40" height="42" fill="#765e49"/><rect x="-33.5" y="770" width="34" height="38" fill="#415955"/><rect x="-30.5" y="773" width="11.899999999999999" height="32" fill="#d2b477"/><rect x="-16.84" y="770" width="2" height="38" fill="#765e49"/><rect x="-37.5" y="808" width="42" height="3" fill="#dac292"/><rect x="71.5" y="768" width="40" height="42" fill="#765e49"/><rect x="74.5" y="770" width="34" height="38" fill="#415955"/><rect x="77.5" y="773" width="11.899999999999999" height="32" fill="#d2b477"/><rect x="91.16" y="770" width="2" height="38" fill="#765e49"/><rect x="70.5" y="808" width="42" height="3" fill="#dac292"/><path d="M-57 896.8L24 988" fill="none" stroke="#89705b" stroke-width="4" stroke-linecap="round" stroke-linejoin="round"/><rect x="73.5" y="894.8" width="38.25" height="99.20000000000005" fill="#725948"/><rect x="78" y="897.8" width="3" height="93.20000000000005" fill="#ad8860"/><rect x="650" y="795" width="240" height="205" fill="#cba28b"/><polygon points="818,795 890,795 890,1000 818,1000" fill="#00000020"/><polygon points="642,795 770,730 898,795" fill="#77625f"/><polygon points="770,730 898,795 782,795" fill="#00000025"/><path d="M770 742L770 787M710 787L770 757L830 787" fill="none" stroke="#5b524a" stroke-width="4" stroke-linecap="round" stroke-linejoin="round"/><rect x="656.6" y="795" width="6" height="205" fill="#695647"/><rect x="767" y="795" width="6" height="205" fill="#695647"/><rect x="877.4" y="795" width="6" height="205" fill="#695647"/><rect x="650" y="795" width="240" height="6" fill="#695647"/><rect x="650" y="901.6" width="240" height="6" fill="#695647"/><rect x="650" y="994" width="240" height="6" fill="#695647"/><rect x="692.4" y="803" width="40" height="42" fill="#765e49"/><rect x="695.4" y="805" width="34" height="38" fill="#415955"/><rect x="698.4" y="808" width="11.899999999999999" height="32" fill="#d2b477"/><rect x="712.06" y="805" width="2" height="38" fill="#765e49"/><rect x="691.4" y="843" width="42" height="3" fill="#dac292"/><rect x="807.6" y="803" width="40" height="42" fill="#765e49"/><rect x="810.6" y="805" width="34" height="38" fill="#415955"/><rect x="813.6" y="808" width="11.899999999999999" height="32" fill="#d2b477"/><rect x="827.26" y="805" width="2" height="38" fill="#765e49"/><rect x="806.6" y="843" width="42" height="3" fill="#dac292"/><path d="M669.2 913.6L755.6 988" fill="none" stroke="#89705b" stroke-width="4" stroke-linecap="round" stroke-linejoin="round"/><rect x="808.4" y="911.6" width="40.800000000000004" height="82.39999999999998" fill="#725948"/><rect x="813.2" y="914.6" width="3" height="76.39999999999998" fill="#ad8860"/><rect x="0" y="1000" width="800" height="80" fill="#a9a591"/><path d="M0 1020l27 -2 M14 1052l28 -1" fill="none" stroke="#868f7e" stroke-width="2" stroke-linecap="round" stroke-linejoin="round"/><path d="M41 1020l27 -2 M55 1052l28 -1" fill="none" stroke="#868f7e" stroke-width="2" stroke-linecap="round" stroke-linejoin="round"/><path d="M82 1020l27 -2 M96 1052l28 -1" fill="none" stroke="#868f7e" stroke-width="2" stroke-linecap="round" stroke-linejoin="round"/><path d="M123 1020l27 -2 M137 1052l28 -1" fill="none" stroke="#868f7e" stroke-width="2" stroke-linecap="round" stroke-linejoin="round"/><path d="M164 1020l27 -2 M178 1052l28 -1" fill="none" stroke="#868f7e" stroke-width="2" stroke-linecap="round" stroke-linejoin="round"/><path d="M205 1020l27 -2 M219 1052l28 -1" fill="none" stroke="#868f7e" stroke-width="2" stroke-linecap="round" stroke-linejoin="round"/><path d="M246 1020l27 -2 M260 1052l28 -1" fill="none" stroke="#868f7e" stroke-width="2" stroke-linecap="round" stroke-linejoin="round"/><path d="M287 1020l27 -2 M301 1052l28 -1" fill="none" stroke="#868f7e" stroke-width="2" stroke-linecap="round" stroke-linejoin="round"/><path d="M328 1020l27 -2 M342 1052l28 -1" fill="none" stroke="#868f7e" stroke-width="2" stroke-linecap="round" stroke-linejoin="round"/><path d="M369 1020l27 -2 M383 1052l28 -1" fill="none" stroke="#868f7e" stroke-width="2" stroke-linecap="round" stroke-linejoin="round"/><path d="M410 1020l27 -2 M424 1052l28 -1" fill="none" stroke="#868f7e" stroke-width="2" stroke-linecap="round" stroke-linejoin="round"/><path d="M451 1020l27 -2 M465 1052l28 -1" fill="none" stroke="#868f7e" stroke-width="2" stroke-linecap="round" stroke-linejoin="round"/><path d="M492 1020l27 -2 M506 1052l28 -1" fill="none" stroke="#868f7e" stroke-width="2" stroke-linecap="round" stroke-linejoin="round"/><path d="M533 1020l27 -2 M547 1052l28 -1" fill="none" stroke="#868f7e" stroke-width="2" stroke-linecap="round" stroke-linejoin="round"/><path d="M574 1020l27 -2 M588 1052l28 -1" fill="none" stroke="#868f7e" stroke-width="2" stroke-linecap="round" stroke-linejoin="round"/><path d="M615 1020l27 -2 M629 1052l28 -1" fill="none" stroke="#868f7e" stroke-width="2" stroke-linecap="round" stroke-linejoin="round"/><path d="M656 1020l27 -2 M670 1052l28 -1" fill="none" stroke="#868f7e" stroke-width="2" stroke-linecap="round" stroke-linejoin="round"/><path d="M697 1020l27 -2 M711 1052l28 -1" fill="none" stroke="#868f7e" stroke-width="2" stroke-linecap="round" stroke-linejoin="round"/><path d="M738 1020l27 -2 M752 1052l28 -1" fill="none" stroke="#868f7e" stroke-width="2" stroke-linecap="round" stroke-linejoin="round"/><path d="M779 1020l27 -2 M793 1052l28 -1" fill="none" stroke="#868f7e" stroke-width="2" stroke-linecap="round" stroke-linejoin="round"/><path d="M820 1020l27 -2 M834 1052l28 -1" fill="none" stroke="#868f7e" stroke-width="2" stroke-linecap="round" stroke-linejoin="round"/><path d="M861 1020l27 -2 M875 1052l28 -1" fill="none" stroke="#868f7e" stroke-width="2" stroke-linecap="round" stroke-linejoin="round"/><rect x="0" y="1080" width="800" height="22" fill="#ddbb85"/><rect x="0" y="1102" width="800" height="26" fill="#98735a"/><rect x="0" y="1128" width="800" height="72" fill="#665248"/><rect x="0" y="1110" width="3" height="84" fill="#423d39"/><polygon points="0,1110 64,1110 59,1115 4,1115" fill="#aa8865"/><rect x="72" y="1110" width="3" height="84" fill="#423d39"/><polygon points="72,1110 136,1110 131,1115 76,1115" fill="#aa8865"/><rect x="144" y="1110" width="3" height="84" fill="#423d39"/><polygon points="144,1110 208,1110 203,1115 148,1115" fill="#aa8865"/><rect x="216" y="1110" width="3" height="84" fill="#423d39"/><polygon points="216,1110 280,1110 275,1115 220,1115" fill="#aa8865"/><rect x="288" y="1110" width="3" height="84" fill="#423d39"/><polygon points="288,1110 352,1110 347,1115 292,1115" fill="#aa8865"/><rect x="360" y="1110" width="3" height="84" fill="#423d39"/><polygon points="360,1110 424,1110 419,1115 364,1115" fill="#aa8865"/><rect x="432" y="1110" width="3" height="84" fill="#423d39"/><polygon points="432,1110 496,1110 491,1115 436,1115" fill="#aa8865"/><rect x="504" y="1110" width="3" height="84" fill="#423d39"/><polygon points="504,1110 568,1110 563,1115 508,1115" fill="#aa8865"/><rect x="576" y="1110" width="3" height="84" fill="#423d39"/><polygon points="576,1110 640,1110 635,1115 580,1115" fill="#aa8865"/><rect x="648" y="1110" width="3" height="84" fill="#423d39"/><polygon points="648,1110 712,1110 707,1115 652,1115" fill="#aa8865"/><rect x="720" y="1110" width="3" height="84" fill="#423d39"/><polygon points="720,1110 784,1110 779,1115 724,1115" fill="#aa8865"/><rect x="792" y="1110" width="3" height="84" fill="#423d39"/><polygon points="792,1110 856,1110 851,1115 796,1115" fill="#aa8865"/><rect x="0" y="1200" width="800" height="400" fill="#697b72"/><polygon points="132,1210 190,1207 200,1226 139,1230" fill="#7e8d80"/><polygon points="259,1210 317,1207 327,1226 266,1230" fill="#7e8d80"/><polygon points="386,1210 444,1207 454,1226 393,1230" fill="#7e8d80"/><polygon points="513,1210 571,1207 581,1226 520,1230" fill="#7e8d80"/><polygon points="640,1210 698,1207 708,1226 647,1230" fill="#7e8d80"/><polygon points="767,1210 825,1207 835,1226 774,1230" fill="#7e8d80"/><polygon points="94,1210 152,1207 162,1226 101,1230" fill="#7e8d80"/><polygon points="221,1210 279,1207 289,1226 228,1230" fill="#7e8d80"/><polygon points="348,1210 406,1207 416,1226 355,1230" fill="#7e8d80"/><polygon points="475,1210 533,1207 543,1226 482,1230" fill="#7e8d80"/><polygon points="602,1273 660,1270 670,1289 609,1293" fill="#7e8d80"/><polygon points="729,1273 787,1270 797,1289 736,1293" fill="#7e8d80"/><polygon points="56,1273 114,1270 124,1289 63,1293" fill="#7e8d80"/><polygon points="183,1273 241,1270 251,1289 190,1293" fill="#7e8d80"/><polygon points="310,1273 368,1270 378,1289 317,1293" fill="#7e8d80"/><polygon points="437,1273 495,1270 505,1289 444,1293" fill="#7e8d80"/><polygon points="564,1273 622,1270 632,1289 571,1293" fill="#7e8d80"/><polygon points="691,1273 749,1270 759,1289 698,1293" fill="#7e8d80"/><polygon points="18,1273 76,1270 86,1289 25,1293" fill="#7e8d80"/><polygon points="145,1273 203,1270 213,1289 152,1293" fill="#7e8d80"/><polygon points="272,1336 330,1333 340,1352 279,1356" fill="#7e8d80"/><polygon points="399,1336 457,1333 467,1352 406,1356" fill="#7e8d80"/><polygon points="526,1336 584,1333 594,1352 533,1356" fill="#7e8d80"/><polygon points="653,1336 711,1333 721,1352 660,1356" fill="#7e8d80"/><polygon points="780,1336 838,1333 848,1352 787,1356" fill="#7e8d80"/><polygon points="107,1336 165,1333 175,1352 114,1356" fill="#7e8d80"/><polygon points="234,1336 292,1333 302,1352 241,1356" fill="#7e8d80"/><polygon points="361,1336 419,1333 429,1352 368,1356" fill="#7e8d80"/><polygon points="488,1336 546,1333 556,1352 495,1356" fill="#7e8d80"/><polygon points="615,1336 673,1333 683,1352 622,1356" fill="#7e8d80"/><polygon points="742,1399 800,1396 810,1415 749,1419" fill="#7e8d80"/><polygon points="69,1399 127,1396 137,1415 76,1419" fill="#7e8d80"/><polygon points="196,1399 254,1396 264,1415 203,1419" fill="#7e8d80"/><polygon points="323,1399 381,1396 391,1415 330,1419" fill="#7e8d80"/><polygon points="450,1399 508,1396 518,1415 457,1419" fill="#7e8d80"/><polygon points="577,1399 635,1396 645,1415 584,1419" fill="#7e8d80"/><polygon points="704,1399 762,1396 772,1415 711,1419" fill="#7e8d80"/><polygon points="31,1399 89,1396 99,1415 38,1419" fill="#7e8d80"/><polygon points="158,1399 216,1396 226,1415 165,1419" fill="#7e8d80"/><polygon points="285,1399 343,1396 353,1415 292,1419" fill="#7e8d80"/><polygon points="412,1462 470,1459 480,1478 419,1482" fill="#7e8d80"/><polygon points="539,1462 597,1459 607,1478 546,1482" fill="#7e8d80"/><polygon points="666,1462 724,1459 734,1478 673,1482" fill="#7e8d80"/><polygon points="793,1462 851,1459 861,1478 800,1482" fill="#7e8d80"/><polygon points="120,1462 178,1459 188,1478 127,1482" fill="#7e8d80"/><polygon points="247,1462 305,1459 315,1478 254,1482" fill="#7e8d80"/><polygon points="374,1462 432,1459 442,1478 381,1482" fill="#7e8d80"/><polygon points="501,1462 559,1459 569,1478 508,1482" fill="#7e8d80"/><polygon points="628,1462 686,1459 696,1478 635,1482" fill="#7e8d80"/><polygon points="755,1462 813,1459 823,1478 762,1482" fill="#7e8d80"/><polygon points="82,1525 140,1522 150,1541 89,1545" fill="#7e8d80"/><polygon points="209,1525 267,1522 277,1541 216,1545" fill="#7e8d80"/><polygon points="336,1525 394,1522 404,1541 343,1545" fill="#7e8d80"/><polygon points="463,1525 521,1522 531,1541 470,1545" fill="#7e8d80"/><polygon points="590,1525 648,1522 658,1541 597,1545" fill="#7e8d80"/><polygon points="717,1525 775,1522 785,1541 724,1545" fill="#7e8d80"/><polygon points="44,1525 102,1522 112,1541 51,1545" fill="#7e8d80"/><polygon points="171,1525 229,1522 239,1541 178,1545" fill="#7e8d80"/><polygon points="298,1525 356,1522 366,1541 305,1545" fill="#7e8d80"/><polygon points="425,1525 483,1522 493,1541 432,1545" fill="#7e8d80"/></svg>