<svg xmlns="http://www.w3.org/2000/svg" width="800" height="1600" viewBox="0 0 800 1600"><polygon points="0,850 120,740 230,810 400,720 570,810 710,760 800,830 800,1080 0,1080" fill="#9bafa0"/><rect x="205" y="760" width="108" height="210" fill="#b9b89c"/><polygon points="200,760 259,699 318,760" fill="#647579"/><rect x="320" y="795" width="108" height="175" fill="#b9b89c"/><polygon points="315,795 374,734 433,795" fill="#647579"/><rect x="435" y="760" width="108" height="210" fill="#b9b89c"/><polygon points="430,760 489,699 548,760" fill="#647579"/><rect x="525" y="620" width="70" height="350" fill="#b9b89c"/><polygon points="572.6,620 595,620 595,970 572.6,970" fill="#00000022"/><polygon points="519,620 560,490 601,620" fill="#526778"/><rect x="540.4" y="642" width="12.6" height="30" fill="#455c60"/><rect x="566.3" y="642" width="9.1" height="30" fill="#455c60"/><rect x="540.4" y="707" width="12.6" height="30" fill="#455c60"/><rect x="566.3" y="707" width="9.1" height="30" fill="#455c60"/><rect x="540.4" y="772" width="12.6" height="30" fill="#455c60"/><rect x="566.3" y="772" width="9.1" height="30" fill="#455c60"/><rect x="540.4" y="837" width="12.6" height="30" fill="#455c60"/><rect x="566.3" y="837" width="9.1" height="30" fill="#455c60"/><rect x="540.4" y="902" width="12.6" height="30" fill="#455c60"/><rect x="566.3" y="902" width="9.1" height="30" fill="#455c60"/><rect x="-40" y="878" width="74" height="122" fill="#d4aa7d"/><polygon points="11.799999999999997,878 34,878 34,1000 11.799999999999997,1000" fill="#00000020"/><polygon points="-48,878 -3,813 42,878" fill="#8a5960"/><polygon points="-3,813 42,878 0.7000000000000028,878" fill="#00000025"/><rect x="-30" y="893" width="7" height="107" fill="#695647"/><rect x="-17" y="903" width="17" height="30" fill="#475c5b"/><rect x="-15" y="905" width="5" height="24" fill="#d2b477"/><rect x="-12" y="893" width="7" height="107" fill="#695647"/><rect x="14.82" y="903" width="17" height="30" fill="#475c5b"/><rect x="16.82" y="905" width="5" height="24" fill="#d2b477"/><rect x="6" y="893" width="7" height="107" fill="#695647"/><rect x="-40" y="943" width="74" height="7" fill="#695647"/><path d="M-30 943L-6.699999999999996 995M24 943L0.7000000000000028 995" fill="none" stroke="#89705b" stroke-width="5" stroke-linecap="round" stroke-linejoin="round"/><rect x="38" y="831" width="74" height="169" fill="#b9bea1"/><polygon points="89.8,831 112,831 112,1000 89.8,1000" fill="#00000020"/><polygon points="30,831 75,766 120,831" fill="#526778"/><polygon points="75,766 120,831 78.7,831" fill="#00000025"/><rect x="48" y="846" width="7" height="154" fill="#695647"/><rect x="61" y="856" width="17" height="30" fill="#475c5b"/><rect x="63" y="858" width="5" height="24" fill="#d2b477"/><rect x="66" y="846" width="7" height="154" fill="#695647"/><rect x="92.82" y="856" width="17" height="30" fill="#475c5b"/><rect x="94.82" y="858" width="5" height="24" fill="#d2b477"/><rect x="84" y="846" width="7" height="154" fill="#695647"/><rect x="38" y="896" width="74" height="7" fill="#695647"/><path d="M48 896L71.30000000000001 995M102 896L78.7 995" fill="none" stroke="#89705b" stroke-width="5" stroke-linecap="round" stroke-linejoin="round"/><rect x="116" y="889" width="74" height="111" fill="#cba28b"/><polygon points="167.8,889 190,889 190,1000 167.8,1000" fill="#00000020"/><polygon points="108,889 153,824 198,889" fill="#77625f"/><polygon points="153,824 198,889 156.7,889" fill="#00000025"/><rect x="126" y="904" width="7" height="96" fill="#695647"/><rect x="139" y="914" width="17" height="30" fill="#475c5b"/><rect x="141" y="916" width="5" height="24" fill="#d2b477"/><rect x="144" y="904" width="7" height="96" fill="#695647"/><rect x="170.82" y="914" width="17" height="30" fill="#475c5b"/><rect x="172.82" y="916" width="5" height="24" fill="#d2b477"/><rect x="162" y="904" width="7" height="96" fill="#695647"/><rect x="116" y="954" width="74" height="7" fill="#695647"/><path d="M126 954L149.3 995M180 954L156.7 995" fill="none" stroke="#89705b" stroke-width="5" stroke-linecap="round" stroke-linejoin="round"/><rect x="194" y="842" width="74" height="158" fill="#b4c7ba"/><polygon points="245.8,842 268,842 268,1000 245.8,1000" fill="#00000020"/><polygon points="186,842 231,777 276,842" fill="#8a5960"/><polygon points="231,777 276,842 234.7,842" fill="#00000025"/><rect x="204" y="857" width="7" height="143" fill="#695647"/><rect x="217" y="867" width="17" height="30" fill="#475c5b"/><rect x="219" y="869" width="5" height="24" fill="#d2b477"/><rect x="222" y="857" width="7" height="143" fill="#695647"/><rect x="248.82" y="867" width="17" height="30" fill="#475c5b"/><rect x="250.82" y="869" width="5" height="24" fill="#d2b477"/><rect x="240" y="857" width="7" height="143" fill="#695647"/><rect x="194" y="907" width="74" height="7" fill="#695647"/><path d="M204 907L227.3 995M258 907L234.7 995" fill="none" stroke="#89705b" stroke-width="5" stroke-linecap="round" stroke-linejoin="round"/><rect x="272" y="900" width="74" height="100" fill="#d4aa7d"/><polygon points="323.8,900 346,900 346,1000 323.8,1000" fill="#00000020"/><polygon points="264,900 309,835 354,900" fill="#526778"/><polygon points="309,835 354,900 312.7,900" fill="#00000025"/><rect x="282" y="915" width="7" height="85" fill="#695647"/><rect x="295" y="925" width="17" height="30" fill="#475c5b"/><rect x="297" y="927" width="5" height="24" fill="#d2b477"/><rect x="300" y="915" width="7" height="85" fill="#695647"/><rect x="326.82" y="925" width="17" height="30" fill="#475c5b"/><rect x="328.82" y="927" width="5" height="24" fill="#d2b477"/><rect x="318" y="915" width="7" height="85" fill="#695647"/><rect x="272" y="965" width="74" height="7" fill="#695647"/><path d="M282 965L305.3 995M336 965L312.7 995" fill="none" stroke="#89705b" stroke-width="5" stroke-linecap="round" stroke-linejoin="round"/><rect x="350" y="853" width="74" height="147" fill="#b9bea1"/><polygon points="401.8,853 424,853 424,1000 401.8,1000" fill="#00000020"/><polygon points="342,853 387,788 432,853" fill="#77625f"/><polygon points="387,788 432,853 390.7,853" fill="#00000025"/><rect x="360" y="868" width="7" height="132" fill="#695647"/><rect x="373" y="878" width="17" height="30" fill="#475c5b"/><rect x="375" y="880" width="5" height="24" fill="#d2b477"/><rect x="378" y="868" width="7" height="132" fill="#695647"/><rect x="404.82" y="878" width="17" height="30" fill="#475c5b"/><rect x="406.82" y="880" width="5" height="24" fill="#d2b477"/><rect x="396" y="868" width="7" height="132" fill="#695647"/><rect x="350" y="918" width="74" height="7" fill="#695647"/><path d="M360 918L383.3 995M414 918L390.7 995" fill="none" stroke="#89705b" stroke-width="5" stroke-linecap="round" stroke-linejoin="round"/><rect x="428" y="911" width="74" height="89" fill="#cba28b"/><polygon points="479.8,911 502,911 502,1000 479.8,1000" fill="#00000020"/><polygon points="420,911 465,846 510,911" fill="#8a5960"/><polygon points="465,846 510,911 468.7,911" fill="#00000025"/><rect x="438" y="926" width="7" height="74" fill="#695647"/><rect x="451" y="936" width="17" height="30" fill="#475c5b"/><rect x="453" y="938" width="5" height="24" fill="#d2b477"/><rect x="456" y="926" width="7" height="74" fill="#695647"/><rect x="482.82" y="936" width="17" height="30" fill="#475c5b"/><rect x="484.82" y="938" width="5" height="24" fill="#d2b477"/><rect x="474" y="926" width="7" height="74" fill="#695647"/><rect x="428" y="976" width="74" height="7" fill="#695647"/><path d="M438 976L461.3 995M492 976L468.7 995" fill="none" stroke="#89705b" stroke-width="5" stroke-linecap="round" stroke-linejoin="round"/><rect x="506" y="864" width="74" height="136" fill="#b4c7ba"/><polygon points="557.8,864 580,864 580,1000 557.8,1000" fill="#00000020"/><polygon points="498,864 543,799 588,864" fill="#526778"/><polygon points="543,799 588,864 546.7,864" fill="#00000025"/><rect x="516" y="879" width="7" height="121" fill="#695647"/><rect x="529" y="889" width="17" height="30" fill="#475c5b"/><rect x="531" y="891" width="5" height="24" fill="#d2b477"/><rect x="534" y="879" width="7" height="121" fill="#695647"/><rect x="560.82" y="889" width="17" height="30" fill="#475c5b"/><rect x="562.82" y="891" width="5" height="24" fill="#d2b477"/><rect x="552" y="879" width="7" height="121" fill="#695647"/><rect x="506" y="929" width="74" height="7" fill="#695647"/><path d="M516 929L539.3 995M570 929L546.7 995" fill="none" stroke="#89705b" stroke-width="5" stroke-linecap="round" stroke-linejoin="round"/><rect x="584" y="922" width="74" height="78" fill="#d4aa7d"/><polygon points="635.8,922 658,922 658,1000 635.8,1000" fill="#00000020"/><polygon points="576,922 621,857 666,922" fill="#77625f"/><polygon points="621,857 666,922 624.7,922" fill="#00000025"/><rect x="594" y="937" width="7" height="63" fill="#695647"/><rect x="607" y="947" width="17" height="30" fill="#475c5b"/><rect x="609" y="949" width="5" height="24" fill="#d2b477"/><rect x="612" y="937" width="7" height="63" fill="#695647"/><rect x="638.82" y="947" width="17" height="30" fill="#475c5b"/><rect x="640.82" y="949" width="5" height="24" fill="#d2b477"/><rect x="630" y="937" width="7" height="63" fill="#695647"/><rect x="584" y="987" width="74" height="7" fill="#695647"/><path d="M594 987L617.3 995M648 987L624.7 995" fill="none" stroke="#89705b" stroke-width="5" stroke-linecap="round" stroke-linejoin="round"/><rect x="662" y="875" width="74" height="125" fill="#b9bea1"/><polygon points="713.8,875 736,875 736,1000 713.8,1000" fill="#00000020"/><polygon points="654,875 699,810 744,875" fill="#8a5960"/><polygon points="699,810 744,875 702.7,875" fill="#00000025"/><rect x="672" y="890" width="7" height="110" fill="#695647"/><rect x="685" y="900" width="17" height="30" fill="#475c5b"/><rect x="687" y="902" width="5" height="24" fill="#d2b477"/><rect x="690" y="890" width="7" height="110" fill="#695647"/><rect x="716.82" y="900" width="17" height="30" fill="#475c5b"/><rect x="718.82" y="902" width="5" height="24" fill="#d2b477"/><rect x="708" y="890" width="7" height="110" fill="#695647"/><rect x="662" y="940" width="74" height="7" fill="#695647"/><path d="M672 940L695.3 995M726 940L702.7 995" fill="none" stroke="#89705b" stroke-width="5" stroke-linecap="round" stroke-linejoin="round"/><rect x="740" y="933" width="74" height="67" fill="#cba28b"/><polygon points="791.8,933 814,933 814,1000 791.8,1000" fill="#00000020"/><polygon points="732,933 777,868 822,933" fill="#526778"/><polygon points="777,868 822,933 780.7,933" fill="#00000025"/><rect x="750" y="948" width="7" height="52" fill="#695647"/><rect x="763" y="958" width="17" height="30" fill="#475c5b"/><rect x="765" y="960" width="5" height="24" fill="#d2b477"/><rect x="768" y="948" width="7" height="52" fill="#695647"/><rect x="794.82" y="958" width="17" height="30" fill="#475c5b"/><rect x="796.82" y="960" width="5" height="24" fill="#d2b477"/><rect x="786" y="948" width="7" height="52" fill="#695647"/><rect x="740" y="998" width="74" height="7" fill="#695647"/><path d="M750 998L773.3 995M804 998L780.7 995" fill="none" stroke="#89705b" stroke-width="5" stroke-linecap="round" stroke-linejoin="round"/><rect x="818" y="886" width="74" height="114" fill="#b4c7ba"/><polygon points="869.8,886 892,886 892,1000 869.8,1000" fill="#00000020"/><polygon points="810,886 855,821 900,886" fill="#77625f"/><polygon points="855,821 900,886 858.7,886" fill="#00000025"/><rect x="828" y="901" width="7" height="99" fill="#695647"/><rect x="841" y="911" width="17" height="30" fill="#475c5b"/><rect x="843" y="913" width="5" height="24" fill="#d2b477"/><rect x="846" y="901" width="7" height="99" fill="#695647"/><rect x="872.82" y="911" width="17" height="30" fill="#475c5b"/><rect x="874.82" y="913" width="5" height="24" fill="#d2b477"/><rect x="864" y="901" width="7" height="99" fill="#695647"/><rect x="818" y="951" width="74" height="7" fill="#695647"/><path d="M828 951L851.3 995M882 951L858.7 995" fill="none" stroke="#89705b" stroke-width="5" stroke-linecap="round" stroke-linejoin="round"/><rect x="-75" y="760" width="225" height="240" fill="#d4aa7d"/><polygon points="82.5,760 150,760 150,1000 82.5,1000" fill="#00000020"/><polygon points="-83,760 37.5,695 158,760" fill="#8a5960"/><polygon points="37.5,695 158,760 48.750000000000014,760" fill="#00000025"/><rect x="-65" y="775" width="7" height="225" fill="#695647"/><rect x="-52" y="785" width="17" height="30" fill="#475c5b"/><rect x="-50" y="787" width="5" height="24" fill="#d2b477"/><rect x="3.3333333333333286" y="775" width="7" height="225" fill="#695647"/><rect x="44.75" y="785" width="17" height="30" fill="#475c5b"/><rect x="46.75" y="787" width="5" height="24" fill="#d2b477"/><rect x="71.66666666666666" y="775" width="7" height="225" fill="#695647"/><rect x="-75" y="825" width="225" height="7" fill="#695647"/><path d="M-65 825L26.25 995M140 825L48.750000000000014 995" fill="none" stroke="#89705b" stroke-width="5" stroke-linecap="round" stroke-linejoin="round"/><rect x="650" y="795" width="240" height="205" fill="#cba28b"/><polygon points="818,795 890,795 890,1000 818,1000" fill="#00000020"/><polygon points="642,795 770,730 898,795" fill="#77625f"/><polygon points="770,730 898,795 782,795" fill="#00000025"/><rect x="660" y="810" width="7" height="190" fill="#695647"/><rect x="673" y="820" width="17" height="30" fill="#475c5b"/><rect x="675" y="822" width="5" height="24" fill="#d2b477"/><rect x="733.3333333333334" y="810" width="7" height="190" fill="#695647"/><rect x="776.2" y="820" width="17" height="30" fill="#475c5b"/><rect x="778.2" y="822" width="5" height="24" fill="#d2b477"/><rect x="806.6666666666666" y="810" width="7" height="190" fill="#695647"/><rect x="650" y="860" width="240" height="7" fill="#695647"/><path d="M660 860L758 995M880 860L782 995" fill="none" stroke="#89705b" stroke-width="5" stroke-linecap="round" stroke-linejoin="round"/><rect x="0" y="1000" width="800" height="80" fill="#a9a591"/><path d="M0 1020l27 -2 M14 1052l28 -1" fill="none" stroke="#868f7e" stroke-width="2" stroke-linecap="round" stroke-linejoin="round"/><path d="M41 1020l27 -2 M55 1052l28 -1" fill="none" stroke="#868f7e" stroke-width="2" stroke-linecap="round" stroke-linejoin="round"/><path d="M82 1020l27 -2 M96 1052l28 -1" fill="none" stroke="#868f7e" stroke-width="2" stroke-linecap="round" stroke-linejoin="round"/><path d="M123 1020l27 -2 M137 1052l28 -1" fill="none" stroke="#868f7e" stroke-width="2" stroke-linecap="round" stroke-linejoin="round"/><path d="M164 1020l27 -2 M178 1052l28 -1" fill="none" stroke="#868f7e" stroke-width="2" stroke-linecap="round" stroke-linejoin="round"/><path d="M205 1020l27 -2 M219 1052l28 -1" fill="none" stroke="#868f7e" stroke-width="2" stroke-linecap="round" stroke-linejoin="round"/><path d="M246 1020l27 -2 M260 1052l28 -1" fill="none" stroke="#868f7e" stroke-width="2" stroke-linecap="round" stroke-linejoin="round"/><path d="M287 1020l27 -2 M301 1052l28 -1" fill="none" stroke="#868f7e" stroke-width="2" stroke-linecap="round" stroke-linejoin="round"/><path d="M328 1020l27 -2 M342 1052l28 -1" fill="none" stroke="#868f7e" stroke-width="2" stroke-linecap="round" stroke-linejoin="round"/><path d="M369 1020l27 -2 M383 1052l28 -1" fill="none" stroke="#868f7e" stroke-width="2" stroke-linecap="round" stroke-linejoin="round"/><path d="M410 1020l27 -2 M424 1052l28 -1" fill="none" stroke="#868f7e" stroke-width="2" stroke-linecap="round" stroke-linejoin="round"/><path d="M451 1020l27 -2 M465 1052l28 -1" fill="none" stroke="#868f7e" stroke-width="2" stroke-linecap="round" stroke-linejoin="round"/><path d="M492 1020l27 -2 M506 1052l28 -1" fill="none" stroke="#868f7e" stroke-width="2" stroke-linecap="round" stroke-linejoin="round"/><path d="M533 1020l27 -2 M547 1052l28 -1" fill="none" stroke="#868f7e" stroke-width="2" stroke-linecap="round" stroke-linejoin="round"/><path d="M574 1020l27 -2 M588 1052l28 -1" fill="none" stroke="#868f7e" stroke-width="2" stroke-linecap="round" stroke-linejoin="round"/><path d="M615 1020l27 -2 M629 1052l28 -1" fill="none" stroke="#868f7e" stroke-width="2" stroke-linecap="round" stroke-linejoin="round"/><path d="M656 1020l27 -2 M670 1052l28 -1" fill="none" stroke="#868f7e" stroke-width="2" stroke-linecap="round" stroke-linejoin="round"/><path d="M697 1020l27 -2 M711 1052l28 -1" fill="none" stroke="#868f7e" stroke-width="2" stroke-linecap="round" stroke-linejoin="round"/><path d="M738 1020l27 -2 M752 1052l28 -1" fill="none" stroke="#868f7e" stroke-width="2" stroke-linecap="round" stroke-linejoin="round"/><path d="M779 1020l27 -2 M793 1052l28 -1" fill="none" stroke="#868f7e" stroke-width="2" stroke-linecap="round" stroke-linejoin="round"/><path d="M820 1020l27 -2 M834 1052l28 -1" fill="none" stroke="#868f7e" stroke-width="2" stroke-linecap="round" stroke-linejoin="round"/><path d="M861 1020l27 -2 M875 1052l28 -1" fill="none" stroke="#868f7e" stroke-width="2" stroke-linecap="round" stroke-linejoin="round"/><rect x="0" y="1080" width="800" height="22" fill="#ddbb85"/><rect x="0" y="1102" width="800" height="26" fill="#98735a"/><rect x="0" y="1128" width="800" height="72" fill="#665248"/><rect x="0" y="1110" width="3" height="84" fill="#423d39"/><polygon points="0,1110 64,1110 59,1115 4,1115" fill="#aa8865"/><rect x="72" y="1110" width="3" height="84" fill="#423d39"/><polygon points="72,1110 136,1110 131,1115 76,1115" fill="#aa8865"/><rect x="144" y="1110" width="3" height="84" fill="#423d39"/><polygon points="144,1110 208,1110 203,1115 148,1115" fill="#aa8865"/><rect x="216" y="1110" width="3" height="84" fill="#423d39"/><polygon points="216,1110 280,1110 275,1115 220,1115" fill="#aa8865"/><rect x="288" y="1110" width="3" height="84" fill="#423d39"/><polygon points="288,1110 352,1110 347,1115 292,1115" fill="#aa8865"/><rect x="360" y="1110" width="3" height="84" fill="#423d39"/><polygon points="360,1110 424,1110 419,1115 364,1115" fill="#aa8865"/><rect x="432" y="1110" width="3" height="84" fill="#423d39"/><polygon points="432,1110 496,1110 491,1115 436,1115" fill="#aa8865"/><rect x="504" y="1110" width="3" height="84" fill="#423d39"/><polygon points="504,1110 568,1110 563,1115 508,1115" fill="#aa8865"/><rect x="576" y="1110" width="3" height="84" fill="#423d39"/><polygon points="576,1110 640,1110 635,1115 580,1115" fill="#aa8865"/><rect x="648" y="1110" width="3" height="84" fill="#423d39"/><polygon points="648,1110 712,1110 707,1115 652,1115" fill="#aa8865"/><rect x="720" y="1110" width="3" height="84" fill="#423d39"/><polygon points="720,1110 784,1110 779,1115 724,1115" fill="#aa8865"/><rect x="792" y="1110" width="3" height="84" fill="#423d39"/><polygon points="792,1110 856,1110 851,1115 796,1115" fill="#aa8865"/><rect x="0" y="1200" width="800" height="400" fill="#697b72"/><polygon points="132,1210 190,1207 200,1226 139,1230" fill="#7e8d80"/><polygon points="259,1210 317,1207 327,1226 266,1230" fill="#7e8d80"/><polygon points="386,1210 444,1207 454,1226 393,1230" fill="#7e8d80"/><polygon points="513,1210 571,1207 581,1226 520,1230" fill="#7e8d80"/><polygon points="640,1210 698,1207 708,1226 647,1230" fill="#7e8d80"/><polygon points="767,1210 825,1207 835,1226 774,1230" fill="#7e8d80"/><polygon points="94,1210 152,1207 162,1226 101,1230" fill="#7e8d80"/><polygon points="221,1210 279,1207 289,1226 228,1230" fill="#7e8d80"/><polygon points="348,1210 406,1207 416,1226 355,1230" fill="#7e8d80"/><polygon points="475,1210 533,1207 543,1226 482,1230" fill="#7e8d80"/><polygon points="602,1273 660,1270 670,1289 609,1293" fill="#7e8d80"/><polygon points="729,1273 787,1270 797,1289 736,1293" fill="#7e8d80"/><polygon points="56,1273 114,1270 124,1289 63,1293" fill="#7e8d80"/><polygon points="183,1273 241,1270 251,1289 190,1293" fill="#7e8d80"/><polygon points="310,1273 368,1270 378,1289 317,1293" fill="#7e8d80"/><polygon points="437,1273 495,1270 505,1289 444,1293" fill="#7e8d80"/><polygon points="564,1273 622,1270 632,1289 571,1293" fill="#7e8d80"/><polygon points="691,1273 749,1270 759,1289 698,1293" fill="#7e8d80"/><polygon points="18,1273 76,1270 86,1289 25,1293" fill="#7e8d80"/><polygon points="145,1273 203,1270 213,1289 152,1293" fill="#7e8d80"/><polygon points="272,1336 330,1333 340,1352 279,1356" fill="#7e8d80"/><polygon points="399,1336 457,1333 467,1352 406,1356" fill="#7e8d80"/><polygon points="526,1336 584,1333 594,1352 533,1356" fill="#7e8d80"/><polygon points="653,1336 711,1333 721,1352 660,1356" fill="#7e8d80"/><polygon points="780,1336 838,1333 848,1352 787,1356" fill="#7e8d80"/><polygon points="107,1336 165,1333 175,1352 114,1356" fill="#7e8d80"/><polygon points="234,1336 292,1333 302,1352 241,1356" fill="#7e8d80"/><polygon points="361,1336 419,1333 429,1352 368,1356" fill="#7e8d80"/><polygon points="488,1336 546,1333 556,1352 495,1356" fill="#7e8d80"/><polygon points="615,1336 673,1333 683,1352 622,1356" fill="#7e8d80"/><polygon points="742,1399 800,1396 810,1415 749,1419" fill="#7e8d80"/><polygon points="69,1399 127,1396 137,1415 76,1419" fill="#7e8d80"/><polygon points="196,1399 254,1396 264,1415 203,1419" fill="#7e8d80"/><polygon points="323,1399 381,1396 391,1415 330,1419" fill="#7e8d80"/><polygon points="450,1399 508,1396 518,1415 457,1419" fill="#7e8d80"/><polygon points="577,1399 635,1396 645,1415 584,1419" fill="#7e8d80"/><polygon points="704,1399 762,1396 772,1415 711,1419" fill="#7e8d80"/><polygon points="31,1399 89,1396 99,1415 38,1419" fill="#7e8d80"/><polygon points="158,1399 216,1396 226,1415 165,1419" fill="#7e8d80"/><polygon points="285,1399 343,1396 353,1415 292,1419" fill="#7e8d80"/><polygon points="412,1462 470,1459 480,1478 419,1482" fill="#7e8d80"/><polygon points="539,1462 597,1459 607,1478 546,1482" fill="#7e8d80"/><polygon points="666,1462 724,1459 734,1478 673,1482" fill="#7e8d80"/><polygon points="793,1462 851,1459 861,1478 800,1482" fill="#7e8d80"/><polygon points="120,1462 178,1459 188,1478 127,1482" fill="#7e8d80"/><polygon points="247,1462 305,1459 315,1478 254,1482" fill="#7e8d80"/><polygon points="374,1462 432,1459 442,1478 381,1482" fill="#7e8d80"/><polygon points="501,1462 559,1459 569,1478 508,1482" fill="#7e8d80"/><polygon points="628,1462 686,1459 696,1478 635,1482" fill="#7e8d80"/><polygon points="755,1462 813,1459 823,1478 762,1482" fill="#7e8d80"/><polygon points="82,1525 140,1522 150,1541 89,1545" fill="#7e8d80"/><polygon points="209,1525 267,1522 277,1541 216,1545" fill="#7e8d80"/><polygon points="336,1525 394,1522 404,1541 343,1545" fill="#7e8d80"/><polygon points="463,1525 521,1522 531,1541 470,1545" fill="#7e8d80"/><polygon points="590,1525 648,1522 658,1541 597,1545" fill="#7e8d80"/><polygon points="717,1525 775,1522 785,1541 724,1545" fill="#7e8d80"/><polygon points="44,1525 102,1522 112,1541 51,1545" fill="#7e8d80"/><polygon points="171,1525 229,1522 239,1541 178,1545" fill="#7e8d80"/><polygon points="298,1525 356,1522 366,1541 305,1545" fill="#7e8d80"/><polygon points="425,1525 483,1522 493,1541 432,1545" fill="#7e8d80"/></svg>