<svg xmlns="http://www.w3.org/2000/svg" width="800" height="1600" viewBox="0 0 800 1600"><polygon points="0,850 120,740 230,810 400,720 570,810 710,760 800,830 800,1080 0,1080" fill="#9bafa0"/><rect x="195" y="740" width="410" height="230" fill="#c4bea5"/><polygon points="175,740 400,650 625,740" fill="#657a78"/><rect x="355" y="460" width="90" height="510" fill="#c4bea5"/><polygon points="416.2,460 445,460 445,970 416.2,970" fill="#00000022"/><rect x="351" y="448" width="98" height="14" fill="#c4bea5"/><rect x="355" y="435" width="12.857142857142858" height="20" fill="#c4bea5"/><rect x="377.5" y="435" width="12.857142857142858" height="20" fill="#c4bea5"/><rect x="400" y="435" width="12.857142857142858" height="20" fill="#c4bea5"/><rect x="422.5" y="435" width="12.857142857142858" height="20" fill="#c4bea5"/><rect x="374.8" y="482" width="16.2" height="30" fill="#455c60"/><rect x="408.1" y="482" width="11.700000000000001" height="30" fill="#455c60"/><polygon points="374.8,482 382.9,473 391,482" fill="#455c60"/><path d="M373 515h20.7 M405.4 515h18" fill="none" stroke="#e4d5b9" stroke-width="2" stroke-linecap="round" stroke-linejoin="round"/><rect x="358" y="474" width="7" height="18" fill="#ffffff20"/><path d="M367 526h68" fill="none" stroke="#00000016" stroke-width="2" stroke-linecap="round" stroke-linejoin="round"/><rect x="374.8" y="547" width="16.2" height="30" fill="#455c60"/><rect x="408.1" y="547" width="11.700000000000001" height="30" fill="#455c60"/><polygon points="374.8,547 382.9,538 391,547" fill="#455c60"/><path d="M373 580h20.7 M405.4 580h18" fill="none" stroke="#e4d5b9" stroke-width="2" stroke-linecap="round" stroke-linejoin="round"/><rect x="358" y="539" width="7" height="18" fill="#ffffff20"/><path d="M367 591h68" fill="none" stroke="#00000016" stroke-width="2" stroke-linecap="round" stroke-linejoin="round"/><rect x="374.8" y="612" width="16.2" height="30" fill="#455c60"/><rect x="408.1" y="612" width="11.700000000000001" height="30" fill="#455c60"/><polygon points="374.8,612 382.9,603 391,612" fill="#455c60"/><path d="M373 645h20.7 M405.4 645h18" fill="none" stroke="#e4d5b9" stroke-width="2" stroke-linecap="round" stroke-linejoin="round"/><rect x="358" y="604" width="7" height="18" fill="#ffffff20"/><path d="M367 656h68" fill="none" stroke="#00000016" stroke-width="2" stroke-linecap="round" stroke-linejoin="round"/><rect x="374.8" y="677" width="16.2" height="30" fill="#455c60"/><rect x="408.1" y="677" width="11.700000000000001" height="30" fill="#455c60"/><polygon points="374.8,677 382.9,668 391,677" fill="#455c60"/><path d="M373 710h20.7 M405.4 710h18" fill="none" stroke="#e4d5b9" stroke-width="2" stroke-linecap="round" stroke-linejoin="round"/><rect x="358" y="669" width="7" height="18" fill="#ffffff20"/><path d="M367 721h68" fill="none" stroke="#00000016" stroke-width="2" stroke-linecap="round" stroke-linejoin="round"/><rect x="374.8" y="742" width="16.2" height="30" fill="#455c60"/><rect x="408.1" y="742" width="11.700000000000001" height="30" fill="#455c60"/><polygon points="374.8,742 382.9,733 391,742" fill="#455c60"/><path d="M373 775h20.7 M405.4 775h18" fill="none" stroke="#e4d5b9" stroke-width="2" stroke-linecap="round" stroke-linejoin="round"/><rect x="358" y="734" width="7" height="18" fill="#ffffff20"/><path d="M367 786h68" fill="none" stroke="#00000016" stroke-width="2" stroke-linecap="round" stroke-linejoin="round"/><rect x="374.8" y="807" width="16.2" height="30" fill="#455c60"/><rect x="408.1" y="807" width="11.700000000000001" height="30" fill="#455c60"/><polygon points="374.8,807 382.9,798 391,807" fill="#455c60"/><path d="M373 840h20.7 M405.4 840h18" fill="none" stroke="#e4d5b9" stroke-width="2" stroke-linecap="round" stroke-linejoin="round"/><rect x="358" y="799" width="7" height="18" fill="#ffffff20"/><path d="M367 851h68" fill="none" stroke="#00000016" stroke-width="2" stroke-linecap="round" stroke-linejoin="round"/><rect x="374.8" y="872" width="16.2" height="30" fill="#455c60"/><rect x="408.1" y="872" width="11.700000000000001" height="30" fill="#455c60"/><polygon points="374.8,872 382.9,863 391,872" fill="#455c60"/><path d="M373 905h20.7 M405.4 905h18" fill="none" stroke="#e4d5b9" stroke-width="2" stroke-linecap="round" stroke-linejoin="round"/><rect x="358" y="864" width="7" height="18" fill="#ffffff20"/><path d="M367 916h68" fill="none" stroke="#00000016" stroke-width="2" stroke-linecap="round" stroke-linejoin="round"/><rect x="215" y="525" width="67" height="445" fill="#c4bea5"/><polygon points="260.56,525 282,525 282,970 260.56,970" fill="#00000022"/><rect x="211" y="513" width="75" height="14" fill="#c4bea5"/><rect x="215" y="500" width="9.571428571428571" height="20" fill="#c4bea5"/><rect x="231.75" y="500" width="9.571428571428571" height="20" fill="#c4bea5"/><rect x="248.5" y="500" width="9.571428571428571" height="20" fill="#c4bea5"/><rect x="265.25" y="500" width="9.571428571428571" height="20" fill="#c4bea5"/><rect x="229.74" y="547" width="12.059999999999999" height="30" fill="#455c60"/><rect x="254.53" y="547" width="8.71" height="30" fill="#455c60"/><polygon points="229.74,547 235.77,538 241.8,547" fill="#455c60"/><path d="M228.4 580h15.41 M252.52 580h13.4" fill="none" stroke="#e4d5b9" stroke-width="2" stroke-linecap="round" stroke-linejoin="round"/><rect x="218" y="539" width="7" height="18" fill="#ffffff20"/><path d="M227 591h45" fill="none" stroke="#00000016" stroke-width="2" stroke-linecap="round" stroke-linejoin="round"/><rect x="229.74" y="612" width="12.059999999999999" height="30" fill="#455c60"/><rect x="254.53" y="612" width="8.71" height="30" fill="#455c60"/><polygon points="229.74,612 235.77,603 241.8,612" fill="#455c60"/><path d="M228.4 645h15.41 M252.52 645h13.4" fill="none" stroke="#e4d5b9" stroke-width="2" stroke-linecap="round" stroke-linejoin="round"/><rect x="218" y="604" width="7" height="18" fill="#ffffff20"/><path d="M227 656h45" fill="none" stroke="#00000016" stroke-width="2" stroke-linecap="round" stroke-linejoin="round"/><rect x="229.74" y="677" width="12.059999999999999" height="30" fill="#455c60"/><rect x="254.53" y="677" width="8.71" height="30" fill="#455c60"/><polygon points="229.74,677 235.77,668 241.8,677" fill="#455c60"/><path d="M228.4 710h15.41 M252.52 710h13.4" fill="none" stroke="#e4d5b9" stroke-width="2" stroke-linecap="round" stroke-linejoin="round"/><rect x="218" y="669" width="7" height="18" fill="#ffffff20"/><path d="M227 721h45" fill="none" stroke="#00000016" stroke-width="2" stroke-linecap="round" stroke-linejoin="round"/><rect x="229.74" y="742" width="12.059999999999999" height="30" fill="#455c60"/><rect x="254.53" y="742" width="8.71" height="30" fill="#455c60"/><polygon points="229.74,742 235.77,733 241.8,742" fill="#455c60"/><path d="M228.4 775h15.41 M252.52 775h13.4" fill="none" stroke="#e4d5b9" stroke-width="2" stroke-linecap="round" stroke-linejoin="round"/><rect x="218" y="734" width="7" height="18" fill="#ffffff20"/><path d="M227 786h45" fill="none" stroke="#00000016" stroke-width="2" stroke-linecap="round" stroke-linejoin="round"/><rect x="229.74" y="807" width="12.059999999999999" height="30" fill="#455c60"/><rect x="254.53" y="807" width="8.71" height="30" fill="#455c60"/><polygon points="229.74,807 235.77,798 241.8,807" fill="#455c60"/><path d="M228.4 840h15.41 M252.52 840h13.4" fill="none" stroke="#e4d5b9" stroke-width="2" stroke-linecap="round" stroke-linejoin="round"/><rect x="218" y="799" width="7" height="18" fill="#ffffff20"/><path d="M227 851h45" fill="none" stroke="#00000016" stroke-width="2" stroke-linecap="round" stroke-linejoin="round"/><rect x="229.74" y="872" width="12.059999999999999" height="30" fill="#455c60"/><rect x="254.53" y="872" width="8.71" height="30" fill="#455c60"/><polygon points="229.74,872 235.77,863 241.8,872" fill="#455c60"/><path d="M228.4 905h15.41 M252.52 905h13.4" fill="none" stroke="#e4d5b9" stroke-width="2" stroke-linecap="round" stroke-linejoin="round"/><rect x="218" y="864" width="7" height="18" fill="#ffffff20"/><path d="M227 916h45" fill="none" stroke="#00000016" stroke-width="2" stroke-linecap="round" stroke-linejoin="round"/><rect x="515" y="525" width="67" height="445" fill="#c4bea5"/><polygon points="560.56,525 582,525 582,970 560.56,970" fill="#00000022"/><rect x="511" y="513" width="75" height="14" fill="#c4bea5"/><rect x="515" y="500" width="9.571428571428571" height="20" fill="#c4bea5"/><rect x="531.75" y="500" width="9.571428571428571" height="20" fill="#c4bea5"/><rect x="548.5" y="500" width="9.571428571428571" height="20" fill="#c4bea5"/><rect x="565.25" y="500" width="9.571428571428571" height="20" fill="#c4bea5"/><rect x="529.74" y="547" width="12.059999999999999" height="30" fill="#455c60"/><rect x="554.53" y="547" width="8.71" height="30" fill="#455c60"/><polygon points="529.74,547 535.77,538 541.8,547" fill="#455c60"/><path d="M528.4 580h15.41 M552.52 580h13.4" fill="none" stroke="#e4d5b9" stroke-width="2" stroke-linecap="round" stroke-linejoin="round"/><rect x="518" y="539" width="7" height="18" fill="#ffffff20"/><path d="M527 591h45" fill="none" stroke="#00000016" stroke-width="2" stroke-linecap="round" stroke-linejoin="round"/><rect x="529.74" y="612" width="12.059999999999999" height="30" fill="#455c60"/><rect x="554.53" y="612" width="8.71" height="30" fill="#455c60"/><polygon points="529.74,612 535.77,603 541.8,612" fill="#455c60"/><path d="M528.4 645h15.41 M552.52 645h13.4" fill="none" stroke="#e4d5b9" stroke-width="2" stroke-linecap="round" stroke-linejoin="round"/><rect x="518" y="604" width="7" height="18" fill="#ffffff20"/><path d="M527 656h45" fill="none" stroke="#00000016" stroke-width="2" stroke-linecap="round" stroke-linejoin="round"/><rect x="529.74" y="677" width="12.059999999999999" height="30" fill="#455c60"/><rect x="554.53" y="677" width="8.71" height="30" fill="#455c60"/><polygon points="529.74,677 535.77,668 541.8,677" fill="#455c60"/><path d="M528.4 710h15.41 M552.52 710h13.4" fill="none" stroke="#e4d5b9" stroke-width="2" stroke-linecap="round" stroke-linejoin="round"/><rect x="518" y="669" width="7" height="18" fill="#ffffff20"/><path d="M527 721h45" fill="none" stroke="#00000016" stroke-width="2" stroke-linecap="round" stroke-linejoin="round"/><rect x="529.74" y="742" width="12.059999999999999" height="30" fill="#455c60"/><rect x="554.53" y="742" width="8.71" height="30" fill="#455c60"/><polygon points="529.74,742 535.77,733 541.8,742" fill="#455c60"/><path d="M528.4 775h15.41 M552.52 775h13.4" fill="none" stroke="#e4d5b9" stroke-width="2" stroke-linecap="round" stroke-linejoin="round"/><rect x="518" y="734" width="7" height="18" fill="#ffffff20"/><path d="M527 786h45" fill="none" stroke="#00000016" stroke-width="2" stroke-linecap="round" stroke-linejoin="round"/><rect x="529.74" y="807" width="12.059999999999999" height="30" fill="#455c60"/><rect x="554.53" y="807" width="8.71" height="30" fill="#455c60"/><polygon points="529.74,807 535.77,798 541.8,807" fill="#455c60"/><path d="M528.4 840h15.41 M552.52 840h13.4" fill="none" stroke="#e4d5b9" stroke-width="2" stroke-linecap="round" stroke-linejoin="round"/><rect x="518" y="799" width="7" height="18" fill="#ffffff20"/><path d="M527 851h45" fill="none" stroke="#00000016" stroke-width="2" stroke-linecap="round" stroke-linejoin="round"/><rect x="529.74" y="872" width="12.059999999999999" height="30" fill="#455c60"/><rect x="554.53" y="872" width="8.71" height="30" fill="#455c60"/><polygon points="529.74,872 535.77,863 541.8,872" fill="#455c60"/><path d="M528.4 905h15.41 M552.52 905h13.4" fill="none" stroke="#e4d5b9" stroke-width="2" stroke-linecap="round" stroke-linejoin="round"/><rect x="518" y="864" width="7" height="18" fill="#ffffff20"/><path d="M527 916h45" fill="none" stroke="#00000016" stroke-width="2" stroke-linecap="round" stroke-linejoin="round"/><polygon points="225,830 235,808 247,830 247,905 225,905" fill="#566965"/><polygon points="277,830 287,808 299,830 299,905 277,905" fill="#566965"/><polygon points="329,830 339,808 351,830 351,905 329,905" fill="#566965"/><polygon points="381,830 391,808 403,830 403,905 381,905" fill="#566965"/><polygon points="433,830 443,808 455,830 455,905 433,905" fill="#566965"/><polygon points="485,830 495,808 507,830 507,905 485,905" fill="#566965"/><polygon points="537,830 547,808 559,830 559,905 537,905" fill="#566965"/><polygon points="589,830 599,808 611,830 611,905 589,905" fill="#566965"/><polygon points="365,970 365,894 400,862 435,894 435,970" fill="#455c60"/><rect x="-40" y="935" width="74" height="65" fill="#d4aa7d"/><polygon points="11.799999999999997,935 34,935 34,1000 11.799999999999997,1000" fill="#00000020"/><polygon points="-48,935 -3,870 42,935" fill="#8a5960"/><polygon points="-3,870 42,935 0.7000000000000028,935" fill="#00000025"/><path d="M-3 882L-3 927M-21.5 927L-3 897L15.5 927" fill="none" stroke="#5b524a" stroke-width="4" stroke-linecap="round" stroke-linejoin="round"/><rect x="-40.04" y="935" width="6" height="65" fill="#695647"/><rect x="-6" y="935" width="6" height="65" fill="#695647"/><rect x="28.039999999999992" y="935" width="6" height="65" fill="#695647"/><rect x="-40" y="935" width="74" height="6" fill="#695647"/><rect x="-40" y="968.8" width="74" height="6" fill="#695647"/><rect x="-40" y="994" width="74" height="6" fill="#695647"/><rect x="-31.9" y="943" width="22.28" height="19.800000000000004" fill="#765e49"/><rect x="-28.9" y="945" width="16.28" height="15.800000000000004" fill="#415955"/><rect x="-25.9" y="948" width="5.698" height="9.800000000000004" fill="#d2b477"/><rect x="-20.9228" y="945" width="2" height="15.800000000000004" fill="#765e49"/><rect x="-32.9" y="960.8" width="24.28" height="3" fill="#dac292"/><rect x="3.6199999999999974" y="943" width="22.28" height="19.800000000000004" fill="#765e49"/><rect x="6.619999999999997" y="945" width="16.28" height="15.800000000000004" fill="#415955"/><rect x="9.619999999999997" y="948" width="5.698" height="9.800000000000004" fill="#d2b477"/><rect x="14.597199999999997" y="945" width="2" height="15.800000000000004" fill="#765e49"/><rect x="2.6199999999999974" y="960.8" width="24.28" height="3" fill="#dac292"/><path d="M-34.08 980.8L-7.439999999999998 988" fill="none" stroke="#89705b" stroke-width="4" stroke-linecap="round" stroke-linejoin="round"/><rect x="8.840000000000003" y="978.8" width="12.58" height="15.200000000000045" fill="#725948"/><rect x="10.32" y="981.8" width="3" height="9.200000000000045" fill="#ad8860"/><rect x="38" y="888" width="74" height="112" fill="#b9bea1"/><polygon points="89.8,888 112,888 112,1000 89.8,1000" fill="#00000020"/><polygon points="30,888 75,823 120,888" fill="#526778"/><polygon points="75,823 120,888 78.7,888" fill="#00000025"/><path d="M75 835L75 880M56.5 880L75 850L93.5 880" fill="none" stroke="#5b524a" stroke-width="4" stroke-linecap="round" stroke-linejoin="round"/><rect x="37.96" y="888" width="6" height="112" fill="#695647"/><rect x="72" y="888" width="6" height="112" fill="#695647"/><rect x="106.03999999999999" y="888" width="6" height="112" fill="#695647"/><rect x="38" y="888" width="74" height="6" fill="#695647"/><rect x="38" y="946.24" width="74" height="6" fill="#695647"/><rect x="38" y="994" width="74" height="6" fill="#695647"/><rect x="46.1" y="896" width="22.28" height="42" fill="#765e49"/><rect x="49.1" y="898" width="16.28" height="38" fill="#415955"/><rect x="52.1" y="901" width="5.698" height="32" fill="#d2b477"/><rect x="57.077200000000005" y="898" width="2" height="38" fill="#765e49"/><rect x="45.1" y="936" width="24.28" height="3" fill="#dac292"/><rect x="81.61999999999999" y="896" width="22.28" height="42" fill="#765e49"/><rect x="84.61999999999999" y="898" width="16.28" height="38" fill="#415955"/><rect x="87.61999999999999" y="901" width="5.698" height="32" fill="#d2b477"/><rect x="92.59719999999999" y="898" width="2" height="38" fill="#765e49"/><rect x="80.61999999999999" y="936" width="24.28" height="3" fill="#dac292"/><path d="M43.92 958.24L70.56 988" fill="none" stroke="#89705b" stroke-width="4" stroke-linecap="round" stroke-linejoin="round"/><rect x="86.84" y="956.24" width="12.58" height="37.75999999999999" fill="#725948"/><rect x="88.32" y="959.24" width="3" height="31.75999999999999" fill="#ad8860"/><rect x="116" y="841" width="74" height="159" fill="#cba28b"/><polygon points="167.8,841 190,841 190,1000 167.8,1000" fill="#00000020"/><polygon points="108,841 153,776 198,841" fill="#77625f"/><polygon points="153,776 198,841 156.7,841" fill="#00000025"/><path d="M153 788L153 833M134.5 833L153 803L171.5 833" fill="none" stroke="#5b524a" stroke-width="4" stroke-linecap="round" stroke-linejoin="round"/><rect x="115.96" y="841" width="6" height="159" fill="#695647"/><rect x="150" y="841" width="6" height="159" fill="#695647"/><rect x="184.04" y="841" width="6" height="159" fill="#695647"/><rect x="116" y="841" width="74" height="6" fill="#695647"/><rect x="116" y="923.6800000000001" width="74" height="6" fill="#695647"/><rect x="116" y="994" width="74" height="6" fill="#695647"/><rect x="124.10000000000001" y="849" width="22.28" height="42" fill="#765e49"/><rect x="127.10000000000001" y="851" width="16.28" height="38" fill="#415955"/><rect x="130.10000000000002" y="854" width="5.698" height="32" fill="#d2b477"/><rect x="135.0772" y="851" width="2" height="38" fill="#765e49"/><rect x="123.10000000000001" y="889" width="24.28" height="3" fill="#dac292"/><rect x="159.62" y="849" width="22.28" height="42" fill="#765e49"/><rect x="162.62" y="851" width="16.28" height="38" fill="#415955"/><rect x="165.62" y="854" width="5.698" height="32" fill="#d2b477"/><rect x="170.59720000000002" y="851" width="2" height="38" fill="#765e49"/><rect x="158.62" y="889" width="24.28" height="3" fill="#dac292"/><path d="M121.92 935.6800000000001L148.56 988" fill="none" stroke="#89705b" stroke-width="4" stroke-linecap="round" stroke-linejoin="round"/><rect x="164.84" y="933.6800000000001" width="12.58" height="60.319999999999936" fill="#725948"/><rect x="166.32" y="936.6800000000001" width="3" height="54.319999999999936" fill="#ad8860"/><rect x="194" y="899" width="74" height="101" fill="#b4c7ba"/><polygon points="245.8,899 268,899 268,1000 245.8,1000" fill="#00000020"/><polygon points="186,899 231,834 276,899" fill="#8a5960"/><polygon points="231,834 276,899 234.7,899" fill="#00000025"/><path d="M231 846L231 891M212.5 891L231 861L249.5 891" fill="none" stroke="#5b524a" stroke-width="4" stroke-linecap="round" stroke-linejoin="round"/><rect x="193.96" y="899" width="6" height="101" fill="#695647"/><rect x="228" y="899" width="6" height="101" fill="#695647"/><rect x="262.03999999999996" y="899" width="6" height="101" fill="#695647"/><rect x="194" y="899" width="74" height="6" fill="#695647"/><rect x="194" y="951.52" width="74" height="6" fill="#695647"/><rect x="194" y="994" width="74" height="6" fill="#695647"/><rect x="202.10000000000002" y="907" width="22.28" height="38.52" fill="#765e49"/><rect x="205.10000000000002" y="909" width="16.28" height="34.52" fill="#415955"/><rect x="208.10000000000002" y="912" width="5.698" height="28.520000000000003" fill="#d2b477"/><rect x="213.07720000000003" y="909" width="2" height="34.52" fill="#765e49"/><rect x="201.10000000000002" y="943.52" width="24.28" height="3" fill="#dac292"/><rect x="237.62" y="907" width="22.28" height="38.52" fill="#765e49"/><rect x="240.62" y="909" width="16.28" height="34.52" fill="#415955"/><rect x="243.62" y="912" width="5.698" height="28.520000000000003" fill="#d2b477"/><rect x="248.59720000000002" y="909" width="2" height="34.52" fill="#765e49"/><rect x="236.62" y="943.52" width="24.28" height="3" fill="#dac292"/><path d="M199.92 963.52L226.56 988" fill="none" stroke="#89705b" stroke-width="4" stroke-linecap="round" stroke-linejoin="round"/><rect x="242.84" y="961.52" width="12.58" height="32.48000000000002" fill="#725948"/><rect x="244.32" y="964.52" width="3" height="26.480000000000018" fill="#ad8860"/><rect x="272" y="852" width="74" height="148" fill="#d4aa7d"/><polygon points="323.8,852 346,852 346,1000 323.8,1000" fill="#00000020"/><polygon points="264,852 309,787 354,852" fill="#526778"/><polygon points="309,787 354,852 312.7,852" fill="#00000025"/><path d="M309 799L309 844M290.5 844L309 814L327.5 844" fill="none" stroke="#5b524a" stroke-width="4" stroke-linecap="round" stroke-linejoin="round"/><rect x="271.96" y="852" width="6" height="148" fill="#695647"/><rect x="306" y="852" width="6" height="148" fill="#695647"/><rect x="340.03999999999996" y="852" width="6" height="148" fill="#695647"/><rect x="272" y="852" width="74" height="6" fill="#695647"/><rect x="272" y="928.96" width="74" height="6" fill="#695647"/><rect x="272" y="994" width="74" height="6" fill="#695647"/><rect x="280.1" y="860" width="22.28" height="42" fill="#765e49"/><rect x="283.1" y="862" width="16.28" height="38" fill="#415955"/><rect x="286.1" y="865" width="5.698" height="32" fill="#d2b477"/><rect x="291.0772" y="862" width="2" height="38" fill="#765e49"/><rect x="279.1" y="900" width="24.28" height="3" fill="#dac292"/><rect x="315.62" y="860" width="22.28" height="42" fill="#765e49"/><rect x="318.62" y="862" width="16.28" height="38" fill="#415955"/><rect x="321.62" y="865" width="5.698" height="32" fill="#d2b477"/><rect x="326.5972" y="862" width="2" height="38" fill="#765e49"/><rect x="314.62" y="900" width="24.28" height="3" fill="#dac292"/><path d="M277.92 940.96L304.56 988" fill="none" stroke="#89705b" stroke-width="4" stroke-linecap="round" stroke-linejoin="round"/><rect x="320.84000000000003" y="938.96" width="12.58" height="55.039999999999964" fill="#725948"/><rect x="322.32" y="941.96" width="3" height="49.039999999999964" fill="#ad8860"/><rect x="350" y="910" width="74" height="90" fill="#b9bea1"/><polygon points="401.8,910 424,910 424,1000 401.8,1000" fill="#00000020"/><polygon points="342,910 387,845 432,910" fill="#77625f"/><polygon points="387,845 432,910 390.7,910" fill="#00000025"/><path d="M387 857L387 902M368.5 902L387 872L405.5 902" fill="none" stroke="#5b524a" stroke-width="4" stroke-linecap="round" stroke-linejoin="round"/><rect x="349.96" y="910" width="6" height="90" fill="#695647"/><rect x="384" y="910" width="6" height="90" fill="#695647"/><rect x="418.03999999999996" y="910" width="6" height="90" fill="#695647"/><rect x="350" y="910" width="74" height="6" fill="#695647"/><rect x="350" y="956.8" width="74" height="6" fill="#695647"/><rect x="350" y="994" width="74" height="6" fill="#695647"/><rect x="358.1" y="918" width="22.28" height="32.800000000000004" fill="#765e49"/><rect x="361.1" y="920" width="16.28" height="28.800000000000004" fill="#415955"/><rect x="364.1" y="923" width="5.698" height="22.800000000000004" fill="#d2b477"/><rect x="369.0772" y="920" width="2" height="28.800000000000004" fill="#765e49"/><rect x="357.1" y="948.8" width="24.28" height="3" fill="#dac292"/><rect x="393.62" y="918" width="22.28" height="32.800000000000004" fill="#765e49"/><rect x="396.62" y="920" width="16.28" height="28.800000000000004" fill="#415955"/><rect x="399.62" y="923" width="5.698" height="22.800000000000004" fill="#d2b477"/><rect x="404.5972" y="920" width="2" height="28.800000000000004" fill="#765e49"/><rect x="392.62" y="948.8" width="24.28" height="3" fill="#dac292"/><path d="M355.92 968.8L382.56 988" fill="none" stroke="#89705b" stroke-width="4" stroke-linecap="round" stroke-linejoin="round"/><rect x="398.84000000000003" y="966.8" width="12.58" height="27.200000000000045" fill="#725948"/><rect x="400.32" y="969.8" width="3" height="21.200000000000045" fill="#ad8860"/><rect x="428" y="863" width="74" height="137" fill="#cba28b"/><polygon points="479.8,863 502,863 502,1000 479.8,1000" fill="#00000020"/><polygon points="420,863 465,798 510,863" fill="#8a5960"/><polygon points="465,798 510,863 468.7,863" fill="#00000025"/><path d="M465 810L465 855M446.5 855L465 825L483.5 855" fill="none" stroke="#5b524a" stroke-width="4" stroke-linecap="round" stroke-linejoin="round"/><rect x="427.96" y="863" width="6" height="137" fill="#695647"/><rect x="462" y="863" width="6" height="137" fill="#695647"/><rect x="496.03999999999996" y="863" width="6" height="137" fill="#695647"/><rect x="428" y="863" width="74" height="6" fill="#695647"/><rect x="428" y="934.24" width="74" height="6" fill="#695647"/><rect x="428" y="994" width="74" height="6" fill="#695647"/><rect x="436.1" y="871" width="22.28" height="42" fill="#765e49"/><rect x="439.1" y="873" width="16.28" height="38" fill="#415955"/><rect x="442.1" y="876" width="5.698" height="32" fill="#d2b477"/><rect x="447.0772" y="873" width="2" height="38" fill="#765e49"/><rect x="435.1" y="911" width="24.28" height="3" fill="#dac292"/><rect x="471.62" y="871" width="22.28" height="42" fill="#765e49"/><rect x="474.62" y="873" width="16.28" height="38" fill="#415955"/><rect x="477.62" y="876" width="5.698" height="32" fill="#d2b477"/><rect x="482.5972" y="873" width="2" height="38" fill="#765e49"/><rect x="470.62" y="911" width="24.28" height="3" fill="#dac292"/><path d="M433.92 946.24L460.56 988" fill="none" stroke="#89705b" stroke-width="4" stroke-linecap="round" stroke-linejoin="round"/><rect x="476.84000000000003" y="944.24" width="12.58" height="49.75999999999999" fill="#725948"/><rect x="478.32" y="947.24" width="3" height="43.75999999999999" fill="#ad8860"/><rect x="506" y="921" width="74" height="79" fill="#b4c7ba"/><polygon points="557.8,921 580,921 580,1000 557.8,1000" fill="#00000020"/><polygon points="498,921 543,856 588,921" fill="#526778"/><polygon points="543,856 588,921 546.7,921" fill="#00000025"/><path d="M543 868L543 913M524.5 913L543 883L561.5 913" fill="none" stroke="#5b524a" stroke-width="4" stroke-linecap="round" stroke-linejoin="round"/><rect x="505.96" y="921" width="6" height="79" fill="#695647"/><rect x="540" y="921" width="6" height="79" fill="#695647"/><rect x="574.04" y="921" width="6" height="79" fill="#695647"/><rect x="506" y="921" width="74" height="6" fill="#695647"/><rect x="506" y="962.08" width="74" height="6" fill="#695647"/><rect x="506" y="994" width="74" height="6" fill="#695647"/><rect x="514.1" y="929" width="22.28" height="27.08" fill="#765e49"/><rect x="517.1" y="931" width="16.28" height="23.08" fill="#415955"/><rect x="520.1" y="934" width="5.698" height="17.08" fill="#d2b477"/><rect x="525.0772000000001" y="931" width="2" height="23.08" fill="#765e49"/><rect x="513.1" y="954.08" width="24.28" height="3" fill="#dac292"/><rect x="549.62" y="929" width="22.28" height="27.08" fill="#765e49"/><rect x="552.62" y="931" width="16.28" height="23.08" fill="#415955"/><rect x="555.62" y="934" width="5.698" height="17.08" fill="#d2b477"/><rect x="560.5972" y="931" width="2" height="23.08" fill="#765e49"/><rect x="548.62" y="954.08" width="24.28" height="3" fill="#dac292"/><path d="M511.92 974.08L538.56 988" fill="none" stroke="#89705b" stroke-width="4" stroke-linecap="round" stroke-linejoin="round"/><rect x="554.84" y="972.08" width="12.58" height="21.91999999999996" fill="#725948"/><rect x="556.32" y="975.08" width="3" height="15.919999999999959" fill="#ad8860"/><rect x="584" y="874" width="74" height="126" fill="#d4aa7d"/><polygon points="635.8,874 658,874 658,1000 635.8,1000" fill="#00000020"/><polygon points="576,874 621,809 666,874" fill="#77625f"/><polygon points="621,809 666,874 624.7,874" fill="#00000025"/><path d="M621 821L621 866M602.5 866L621 836L639.5 866" fill="none" stroke="#5b524a" stroke-width="4" stroke-linecap="round" stroke-linejoin="round"/><rect x="583.96" y="874" width="6" height="126" fill="#695647"/><rect x="618" y="874" width="6" height="126" fill="#695647"/><rect x="652.04" y="874" width="6" height="126" fill="#695647"/><rect x="584" y="874" width="74" height="6" fill="#695647"/><rect x="584" y="939.52" width="74" height="6" fill="#695647"/><rect x="584" y="994" width="74" height="6" fill="#695647"/><rect x="592.1" y="882" width="22.28" height="42" fill="#765e49"/><rect x="595.1" y="884" width="16.28" height="38" fill="#415955"/><rect x="598.1" y="887" width="5.698" height="32" fill="#d2b477"/><rect x="603.0772000000001" y="884" width="2" height="38" fill="#765e49"/><rect x="591.1" y="922" width="24.28" height="3" fill="#dac292"/><rect x="627.62" y="882" width="22.28" height="42" fill="#765e49"/><rect x="630.62" y="884" width="16.28" height="38" fill="#415955"/><rect x="633.62" y="887" width="5.698" height="32" fill="#d2b477"/><rect x="638.5972" y="884" width="2" height="38" fill="#765e49"/><rect x="626.62" y="922" width="24.28" height="3" fill="#dac292"/><path d="M589.92 951.52L616.56 988" fill="none" stroke="#89705b" stroke-width="4" stroke-linecap="round" stroke-linejoin="round"/><rect x="632.84" y="949.52" width="12.58" height="44.48000000000002" fill="#725948"/><rect x="634.32" y="952.52" width="3" height="38.48000000000002" fill="#ad8860"/><rect x="662" y="932" width="74" height="68" fill="#b9bea1"/><polygon points="713.8,932 736,932 736,1000 713.8,1000" fill="#00000020"/><polygon points="654,932 699,867 744,932" fill="#8a5960"/><polygon points="699,867 744,932 702.7,932" fill="#00000025"/><path d="M699 879L699 924M680.5 924L699 894L717.5 924" fill="none" stroke="#5b524a" stroke-width="4" stroke-linecap="round" stroke-linejoin="round"/><rect x="661.96" y="932" width="6" height="68" fill="#695647"/><rect x="696" y="932" width="6" height="68" fill="#695647"/><rect x="730.04" y="932" width="6" height="68" fill="#695647"/><rect x="662" y="932" width="74" height="6" fill="#695647"/><rect x="662" y="967.36" width="74" height="6" fill="#695647"/><rect x="662" y="994" width="74" height="6" fill="#695647"/><rect x="670.1" y="940" width="22.28" height="21.36" fill="#765e49"/><rect x="673.1" y="942" width="16.28" height="17.36" fill="#415955"/><rect x="676.1" y="945" width="5.698" height="11.36" fill="#d2b477"/><rect x="681.0772000000001" y="942" width="2" height="17.36" fill="#765e49"/><rect x="669.1" y="959.36" width="24.28" height="3" fill="#dac292"/><rect x="705.62" y="940" width="22.28" height="21.36" fill="#765e49"/><rect x="708.62" y="942" width="16.28" height="17.36" fill="#415955"/><rect x="711.62" y="945" width="5.698" height="11.36" fill="#d2b477"/><rect x="716.5972" y="942" width="2" height="17.36" fill="#765e49"/><rect x="704.62" y="959.36" width="24.28" height="3" fill="#dac292"/><path d="M667.92 979.36L694.56 988" fill="none" stroke="#89705b" stroke-width="4" stroke-linecap="round" stroke-linejoin="round"/><rect x="710.84" y="977.36" width="12.58" height="16.639999999999986" fill="#725948"/><rect x="712.32" y="980.36" width="3" height="10.639999999999986" fill="#ad8860"/><rect x="740" y="885" width="74" height="115" fill="#cba28b"/><polygon points="791.8,885 814,885 814,1000 791.8,1000" fill="#00000020"/><polygon points="732,885 777,820 822,885" fill="#526778"/><polygon points="777,820 822,885 780.7,885" fill="#00000025"/><path d="M777 832L777 877M758.5 877L777 847L795.5 877" fill="none" stroke="#5b524a" stroke-width="4" stroke-linecap="round" stroke-linejoin="round"/><rect x="739.96" y="885" width="6" height="115" fill="#695647"/><rect x="774" y="885" width="6" height="115" fill="#695647"/><rect x="808.04" y="885" width="6" height="115" fill="#695647"/><rect x="740" y="885" width="74" height="6" fill="#695647"/><rect x="740" y="944.8" width="74" height="6" fill="#695647"/><rect x="740" y="994" width="74" height="6" fill="#695647"/><rect x="748.1" y="893" width="22.28" height="42" fill="#765e49"/><rect x="751.1" y="895" width="16.28" height="38" fill="#415955"/><rect x="754.1" y="898" width="5.698" height="32" fill="#d2b477"/><rect x="759.0772000000001" y="895" width="2" height="38" fill="#765e49"/><rect x="747.1" y="933" width="24.28" height="3" fill="#dac292"/><rect x="783.62" y="893" width="22.28" height="42" fill="#765e49"/><rect x="786.62" y="895" width="16.28" height="38" fill="#415955"/><rect x="789.62" y="898" width="5.698" height="32" fill="#d2b477"/><rect x="794.5972" y="895" width="2" height="38" fill="#765e49"/><rect x="782.62" y="933" width="24.28" height="3" fill="#dac292"/><path d="M745.92 956.8L772.56 988" fill="none" stroke="#89705b" stroke-width="4" stroke-linecap="round" stroke-linejoin="round"/><rect x="788.84" y="954.8" width="12.58" height="39.200000000000045" fill="#725948"/><rect x="790.32" y="957.8" width="3" height="33.200000000000045" fill="#ad8860"/><rect x="818" y="838" width="74" height="162" fill="#b4c7ba"/><polygon points="869.8,838 892,838 892,1000 869.8,1000" fill="#00000020"/><polygon points="810,838 855,773 900,838" fill="#77625f"/><polygon points="855,773 900,838 858.7,838" fill="#00000025"/><path d="M855 785L855 830M836.5 830L855 800L873.5 830" fill="none" stroke="#5b524a" stroke-width="4" stroke-linecap="round" stroke-linejoin="round"/><rect x="817.96" y="838" width="6" height="162" fill="#695647"/><rect x="852" y="838" width="6" height="162" fill="#695647"/><rect x="886.04" y="838" width="6" height="162" fill="#695647"/><rect x="818" y="838" width="74" height="6" fill="#695647"/><rect x="818" y="922.24" width="74" height="6" fill="#695647"/><rect x="818" y="994" width="74" height="6" fill="#695647"/><rect x="826.1" y="846" width="22.28" height="42" fill="#765e49"/><rect x="829.1" y="848" width="16.28" height="38" fill="#415955"/><rect x="832.1" y="851" width="5.698" height="32" fill="#d2b477"/><rect x="837.0772000000001" y="848" width="2" height="38" fill="#765e49"/><rect x="825.1" y="886" width="24.28" height="3" fill="#dac292"/><rect x="861.62" y="846" width="22.28" height="42" fill="#765e49"/><rect x="864.62" y="848" width="16.28" height="38" fill="#415955"/><rect x="867.62" y="851" width="5.698" height="32" fill="#d2b477"/><rect x="872.5972" y="848" width="2" height="38" fill="#765e49"/><rect x="860.62" y="886" width="24.28" height="3" fill="#dac292"/><path d="M823.92 934.24L850.56 988" fill="none" stroke="#89705b" stroke-width="4" stroke-linecap="round" stroke-linejoin="round"/><rect x="866.84" y="932.24" width="12.58" height="61.75999999999999" fill="#725948"/><rect x="868.32" y="935.24" width="3" height="55.75999999999999" fill="#ad8860"/><rect x="-75" y="760" width="225" height="240" fill="#d4aa7d"/><polygon points="82.5,760 150,760 150,1000 82.5,1000" fill="#00000020"/><polygon points="-83,760 37.5,695 158,760" fill="#8a5960"/><polygon points="37.5,695 158,760 48.750000000000014,760" fill="#00000025"/><path d="M37.5 707L37.5 752M-18.75 752L37.5 722L93.75 752" fill="none" stroke="#5b524a" stroke-width="4" stroke-linecap="round" stroke-linejoin="round"/><rect x="-69" y="760" width="6" height="240" fill="#695647"/><rect x="34.5" y="760" width="6" height="240" fill="#695647"/><rect x="138" y="760" width="6" height="240" fill="#695647"/><rect x="-75" y="760" width="225" height="6" fill="#695647"/><rect x="-75" y="884.8" width="225" height="6" fill="#695647"/><rect x="-75" y="994" width="225" height="6" fill="#695647"/><rect x="-36.5" y="768" width="40" height="42" fill="#765e49"/><rect x="-33.5" y="770" width="34" height="38" fill="#415955"/><rect x="-30.5" y="773" width="11.899999999999999" height="32" fill="#d2b477"/><rect x="-16.84" y="770" width="2" height="38" fill="#765e49"/><rect x="-37.5" y="808" width="42" height="3" fill="#dac292"/><rect x="71.5" y="768" width="40" height="42" fill="#765e49"/><rect x="74.5" y="770" width="34" height="38" fill="#415955"/><rect x="77.5" y="773" width="11.899999999999999" height="32" fill="#d2b477"/><rect x="91.16" y="770" width="2" height="38" fill="#765e49"/><rect x="70.5" y="808" width="42" height="3" fill="#dac292"/><path d="M-57 896.8L24 988" fill="none" stroke="#89705b" stroke-width="4" stroke-linecap="round" stroke-linejoin="round"/><rect x="73.5" y="894.8" width="38.25" height="99.20000000000005" fill="#725948"/><rect x="78" y="897.8" width="3" height="93.20000000000005" fill="#ad8860"/><rect x="650" y="795" width="240" height="205" fill="#cba28b"/><polygon points="818,795 890,795 890,1000 818,1000" fill="#00000020"/><polygon points="642,795 770,730 898,795" fill="#77625f"/><polygon points="770,730 898,795 782,795" fill="#00000025"/><path d="M770 742L770 787M710 787L770 757L830 787" fill="none" stroke="#5b524a" stroke-width="4" stroke-linecap="round" stroke-linejoin="round"/><rect x="656.6" y="795" width="6" height="205" fill="#695647"/><rect x="767" y="795" width="6" height="205" fill="#695647"/><rect x="877.4" y="795" width="6" height="205" fill="#695647"/><rect x="650" y="795" width="240" height="6" fill="#695647"/><rect x="650" y="901.6" width="240" height="6" fill="#695647"/><rect x="650" y="994" width="240" height="6" fill="#695647"/><rect x="692.4" y="803" width="40" height="42" fill="#765e49"/><rect x="695.4" y="805" width="34" height="38" fill="#415955"/><rect x="698.4" y="808" width="11.899999999999999" height="32" fill="#d2b477"/><rect x="712.06" y="805" width="2" height="38" fill="#765e49"/><rect x="691.4" y="843" width="42" height="3" fill="#dac292"/><rect x="807.6" y="803" width="40" height="42" fill="#765e49"/><rect x="810.6" y="805" width="34" height="38" fill="#415955"/><rect x="813.6" y="808" width="11.899999999999999" height="32" fill="#d2b477"/><rect x="827.26" y="805" width="2" height="38" fill="#765e49"/><rect x="806.6" y="843" width="42" height="3" fill="#dac292"/><path d="M669.2 913.6L755.6 988" fill="none" stroke="#89705b" stroke-width="4" stroke-linecap="round" stroke-linejoin="round"/><rect x="808.4" y="911.6" width="40.800000000000004" height="82.39999999999998" fill="#725948"/><rect x="813.2" y="914.6" width="3" height="76.39999999999998" fill="#ad8860"/><rect x="0" y="1000" width="800" height="80" fill="#a9a591"/><path d="M0 1020l27 -2 M14 1052l28 -1" fill="none" stroke="#868f7e" stroke-width="2" stroke-linecap="round" stroke-linejoin="round"/><path d="M41 1020l27 -2 M55 1052l28 -1" fill="none" stroke="#868f7e" stroke-width="2" stroke-linecap="round" stroke-linejoin="round"/><path d="M82 1020l27 -2 M96 1052l28 -1" fill="none" stroke="#868f7e" stroke-width="2" stroke-linecap="round" stroke-linejoin="round"/><path d="M123 1020l27 -2 M137 1052l28 -1" fill="none" stroke="#868f7e" stroke-width="2" stroke-linecap="round" stroke-linejoin="round"/><path d="M164 1020l27 -2 M178 1052l28 -1" fill="none" stroke="#868f7e" stroke-width="2" stroke-linecap="round" stroke-linejoin="round"/><path d="M205 1020l27 -2 M219 1052l28 -1" fill="none" stroke="#868f7e" stroke-width="2" stroke-linecap="round" stroke-linejoin="round"/><path d="M246 1020l27 -2 M260 1052l28 -1" fill="none" stroke="#868f7e" stroke-width="2" stroke-linecap="round" stroke-linejoin="round"/><path d="M287 1020l27 -2 M301 1052l28 -1" fill="none" stroke="#868f7e" stroke-width="2" stroke-linecap="round" stroke-linejoin="round"/><path d="M328 1020l27 -2 M342 1052l28 -1" fill="none" stroke="#868f7e" stroke-width="2" stroke-linecap="round" stroke-linejoin="round"/><path d="M369 1020l27 -2 M383 1052l28 -1" fill="none" stroke="#868f7e" stroke-width="2" stroke-linecap="round" stroke-linejoin="round"/><path d="M410 1020l27 -2 M424 1052l28 -1" fill="none" stroke="#868f7e" stroke-width="2" stroke-linecap="round" stroke-linejoin="round"/><path d="M451 1020l27 -2 M465 1052l28 -1" fill="none" stroke="#868f7e" stroke-width="2" stroke-linecap="round" stroke-linejoin="round"/><path d="M492 1020l27 -2 M506 1052l28 -1" fill="none" stroke="#868f7e" stroke-width="2" stroke-linecap="round" stroke-linejoin="round"/><path d="M533 1020l27 -2 M547 1052l28 -1" fill="none" stroke="#868f7e" stroke-width="2" stroke-linecap="round" stroke-linejoin="round"/><path d="M574 1020l27 -2 M588 1052l28 -1" fill="none" stroke="#868f7e" stroke-width="2" stroke-linecap="round" stroke-linejoin="round"/><path d="M615 1020l27 -2 M629 1052l28 -1" fill="none" stroke="#868f7e" stroke-width="2" stroke-linecap="round" stroke-linejoin="round"/><path d="M656 1020l27 -2 M670 1052l28 -1" fill="none" stroke="#868f7e" stroke-width="2" stroke-linecap="round" stroke-linejoin="round"/><path d="M697 1020l27 -2 M711 1052l28 -1" fill="none" stroke="#868f7e" stroke-width="2" stroke-linecap="round" stroke-linejoin="round"/><path d="M738 1020l27 -2 M752 1052l28 -1" fill="none" stroke="#868f7e" stroke-width="2" stroke-linecap="round" stroke-linejoin="round"/><path d="M779 1020l27 -2 M793 1052l28 -1" fill="none" stroke="#868f7e" stroke-width="2" stroke-linecap="round" stroke-linejoin="round"/><path d="M820 1020l27 -2 M834 1052l28 -1" fill="none" stroke="#868f7e" stroke-width="2" stroke-linecap="round" stroke-linejoin="round"/><path d="M861 1020l27 -2 M875 1052l28 -1" fill="none" stroke="#868f7e" stroke-width="2" stroke-linecap="round" stroke-linejoin="round"/><rect x="0" y="1080" width="800" height="22" fill="#ddbb85"/><rect x="0" y="1102" width="800" height="26" fill="#98735a"/><rect x="0" y="1128" width="800" height="72" fill="#665248"/><rect x="0" y="1110" width="3" height="84" fill="#423d39"/><polygon points="0,1110 64,1110 59,1115 4,1115" fill="#aa8865"/><rect x="72" y="1110" width="3" height="84" fill="#423d39"/><polygon points="72,1110 136,1110 131,1115 76,1115" fill="#aa8865"/><rect x="144" y="1110" width="3" height="84" fill="#423d39"/><polygon points="144,1110 208,1110 203,1115 148,1115" fill="#aa8865"/><rect x="216" y="1110" width="3" height="84" fill="#423d39"/><polygon points="216,1110 280,1110 275,1115 220,1115" fill="#aa8865"/><rect x="288" y="1110" width="3" height="84" fill="#423d39"/><polygon points="288,1110 352,1110 347,1115 292,1115" fill="#aa8865"/><rect x="360" y="1110" width="3" height="84" fill="#423d39"/><polygon points="360,1110 424,1110 419,1115 364,1115" fill="#aa8865"/><rect x="432" y="1110" width="3" height="84" fill="#423d39"/><polygon points="432,1110 496,1110 491,1115 436,1115" fill="#aa8865"/><rect x="504" y="1110" width="3" height="84" fill="#423d39"/><polygon points="504,1110 568,1110 563,1115 508,1115" fill="#aa8865"/><rect x="576" y="1110" width="3" height="84" fill="#423d39"/><polygon points="576,1110 640,1110 635,1115 580,1115" fill="#aa8865"/><rect x="648" y="1110" width="3" height="84" fill="#423d39"/><polygon points="648,1110 712,1110 707,1115 652,1115" fill="#aa8865"/><rect x="720" y="1110" width="3" height="84" fill="#423d39"/><polygon points="720,1110 784,1110 779,1115 724,1115" fill="#aa8865"/><rect x="792" y="1110" width="3" height="84" fill="#423d39"/><polygon points="792,1110 856,1110 851,1115 796,1115" fill="#aa8865"/><rect x="0" y="1200" width="800" height="400" fill="#697b72"/><polygon points="0,1210 58,1207 68,1226 7,1230" fill="#7e8d80"/><polygon points="127,1210 185,1207 195,1226 134,1230" fill="#7e8d80"/><polygon points="254,1210 312,1207 322,1226 261,1230" fill="#7e8d80"/><polygon points="381,1210 439,1207 449,1226 388,1230" fill="#7e8d80"/><polygon points="508,1210 566,1207 576,1226 515,1230" fill="#7e8d80"/><polygon points="635,1210 693,1207 703,1226 642,1230" fill="#7e8d80"/><polygon points="762,1210 820,1207 830,1226 769,1230" fill="#7e8d80"/><polygon points="89,1210 147,1207 157,1226 96,1230" fill="#7e8d80"/><polygon points="216,1210 274,1207 284,1226 223,1230" fill="#7e8d80"/><polygon points="343,1210 401,1207 411,1226 350,1230" fill="#7e8d80"/><polygon points="470,1273 528,1270 538,1289 477,1293" fill="#7e8d80"/><polygon points="597,1273 655,1270 665,1289 604,1293" fill="#7e8d80"/><polygon points="724,1273 782,1270 792,1289 731,1293" fill="#7e8d80"/><polygon points="51,1273 109,1270 119,1289 58,1293" fill="#7e8d80"/><polygon points="178,1273 236,1270 246,1289 185,1293" fill="#7e8d80"/><polygon points="305,1273 363,1270 373,1289 312,1293" fill="#7e8d80"/><polygon points="432,1273 490,1270 500,1289 439,1293" fill="#7e8d80"/><polygon points="559,1273 617,1270 627,1289 566,1293" fill="#7e8d80"/><polygon points="686,1273 744,1270 754,1289 693,1293" fill="#7e8d80"/><polygon points="13,1273 71,1270 81,1289 20,1293" fill="#7e8d80"/><polygon points="140,1336 198,1333 208,1352 147,1356" fill="#7e8d80"/><polygon points="267,1336 325,1333 335,1352 274,1356" fill="#7e8d80"/><polygon points="394,1336 452,1333 462,1352 401,1356" fill="#7e8d80"/><polygon points="521,1336 579,1333 589,1352 528,1356" fill="#7e8d80"/><polygon points="648,1336 706,1333 716,1352 655,1356" fill="#7e8d80"/><polygon points="775,1336 833,1333 843,1352 782,1356" fill="#7e8d80"/><polygon points="102,1336 160,1333 170,1352 109,1356" fill="#7e8d80"/><polygon points="229,1336 287,1333 297,1352 236,1356" fill="#7e8d80"/><polygon points="356,1336 414,1333 424,1352 363,1356" fill="#7e8d80"/><polygon points="483,1336 541,1333 551,1352 490,1356" fill="#7e8d80"/><polygon points="610,1399 668,1396 678,1415 617,1419" fill="#7e8d80"/><polygon points="737,1399 795,1396 805,1415 744,1419" fill="#7e8d80"/><polygon points="64,1399 122,1396 132,1415 71,1419" fill="#7e8d80"/><polygon points="191,1399 249,1396 259,1415 198,1419" fill="#7e8d80"/><polygon points="318,1399 376,1396 386,1415 325,1419" fill="#7e8d80"/><polygon points="445,1399 503,1396 513,1415 452,1419" fill="#7e8d80"/><polygon points="572,1399 630,1396 640,1415 579,1419" fill="#7e8d80"/><polygon points="699,1399 757,1396 767,1415 706,1419" fill="#7e8d80"/><polygon points="26,1399 84,1396 94,1415 33,1419" fill="#7e8d80"/><polygon points="153,1399 211,1396 221,1415 160,1419" fill="#7e8d80"/><polygon points="280,1462 338,1459 348,1478 287,1482" fill="#7e8d80"/><polygon points="407,1462 465,1459 475,1478 414,1482" fill="#7e8d80"/><polygon points="534,1462 592,1459 602,1478 541,1482" fill="#7e8d80"/><polygon points="661,1462 719,1459 729,1478 668,1482" fill="#7e8d80"/><polygon points="788,1462 846,1459 856,1478 795,1482" fill="#7e8d80"/><polygon points="115,1462 173,1459 183,1478 122,1482" fill="#7e8d80"/><polygon points="242,1462 300,1459 310,1478 249,1482" fill="#7e8d80"/><polygon points="369,1462 427,1459 437,1478 376,1482" fill="#7e8d80"/><polygon points="496,1462 554,1459 564,1478 503,1482" fill="#7e8d80"/><polygon points="623,1462 681,1459 691,1478 630,1482" fill="#7e8d80"/><polygon points="750,1525 808,1522 818,1541 757,1545" fill="#7e8d80"/><polygon points="77,1525 135,1522 145,1541 84,1545" fill="#7e8d80"/><polygon points="204,1525 262,1522 272,1541 211,1545" fill="#7e8d80"/><polygon points="331,1525 389,1522 399,1541 338,1545" fill="#7e8d80"/><polygon points="458,1525 516,1522 526,1541 465,1545" fill="#7e8d80"/><polygon points="585,1525 643,1522 653,1541 592,1545" fill="#7e8d80"/><polygon points="712,1525 770,1522 780,1541 719,1545" fill="#7e8d80"/><polygon points="39,1525 97,1522 107,1541 46,1545" fill="#7e8d80"/><polygon points="166,1525 224,1522 234,1541 173,1545" fill="#7e8d80"/><polygon points="293,1525 351,1522 361,1541 300,1545" fill="#7e8d80"/></svg>